Commissioner-FlairMediumItalic.ufo
<glyph name="numbersign" format="2">
  <advance width="1377.3052631578948"/>
  <unicode hex="0023"/>
  <outline>
    <contour>
      <point x="-13.34736842105263" y="281.34736842105264" type="line"/>
      <point x="117.43157894736842" y="289.4526315789474"/>
      <point x="241.38947368421051" y="290.2736842105263"/>
      <point x="347.7052631578947" y="290.2736842105263" type="curve"/>
      <point x="834.5684210526316" y="290.2736842105263" type="line"/>
      <point x="940.8842105263158" y="290.2736842105263"/>
      <point x="1063.1999999999998" y="289.4526315789474"/>
      <point x="1192.336842105263" y="281.34736842105264" type="curve"/>
      <point x="1229.7894736842106" y="463.57894736842104" type="line"/>
      <point x="1099.0105263157895" y="455.4736842105263"/>
      <point x="975.8736842105262" y="454.65263157894736"/>
      <point x="869.5578947368421" y="454.65263157894736" type="curve"/>
      <point x="382.69473684210527" y="454.65263157894736" type="line"/>
      <point x="276.37894736842105" y="454.65263157894736"/>
      <point x="153.2421052631579" y="455.4736842105263"/>
      <point x="24.105263157894736" y="463.57894736842104" type="curve"/>
    </contour>
    <contour>
      <point x="104.8421052631579" y="0.0" type="curve"/>
      <point x="312.67368421052635" y="0.0" type="line"/>
      <point x="355.0736842105263" y="136.82105263157894"/>
      <point x="401.89473684210526" y="258.5684210526316"/>
      <point x="469.43157894736845" y="426.2105263157895" type="curve"/>
      <point x="655.2210526315789" y="887.1368421052632" type="line"/>
      <point x="727.9368421052632" y="1067.6"/>
      <point x="775.8315789473684" y="1179.1368421052634"/>
      <point x="844.8631578947369" y="1322.421052631579" type="curve"/>
      <point x="638.6736842105263" y="1322.421052631579" type="line"/>
      <point x="593.3473684210527" y="1175.8526315789477"/>
      <point x="549.0947368421052" y="1062.778947368421"/>
      <point x="478.37894736842105" y="887.1368421052631" type="curve"/>
      <point x="292.58947368421053" y="426.2105263157895" type="line"/>
      <point x="225.05263157894737" y="259.74736842105267"/>
      <point x="170.58947368421053" y="133.53684210526313"/>
    </contour>
    <contour>
      <point x="215.1578947368421" y="852.8421052631578" type="line"/>
      <point x="346.7578947368421" y="860.9473684210526"/>
      <point x="469.89473684210526" y="861.7684210526315"/>
      <point x="576.2105263157895" y="861.7684210526315" type="curve"/>
      <point x="1063.0736842105262" y="861.7684210526315" type="line"/>
      <point x="1169.3894736842105" y="861.7684210526315"/>
      <point x="1292.5263157894738" y="860.9473684210526"/>
      <point x="1420.842105263158" y="852.8421052631578" type="curve"/>
      <point x="1459.1157894736841" y="1035.0736842105262" type="line"/>
      <point x="1327.5157894736842" y="1026.9684210526316"/>
      <point x="1204.378947368421" y="1026.1473684210525"/>
      <point x="1098.0631578947366" y="1026.1473684210525" type="curve"/>
      <point x="611.2" y="1026.1473684210525" type="line"/>
      <point x="504.88421052631577" y="1026.1473684210525"/>
      <point x="381.7473684210526" y="1026.9684210526316"/>
      <point x="253.43157894736842" y="1035.0736842105262" type="curve"/>
    </contour>
    <contour>
      <point x="589.4736842105264" y="0.0" type="curve"/>
      <point x="797.3052631578947" y="0.0" type="line"/>
      <point x="839.7052631578947" y="136.82105263157894"/>
      <point x="886.5263157894736" y="258.5684210526316"/>
      <point x="954.0631578947368" y="426.2105263157895" type="curve"/>
      <point x="1139.8526315789475" y="887.1368421052632" type="line"/>
      <point x="1212.5684210526315" y="1067.6"/>
      <point x="1260.463157894737" y="1179.1368421052634"/>
      <point x="1329.4947368421053" y="1322.421052631579" type="curve"/>
      <point x="1123.3052631578948" y="1322.421052631579" type="line"/>
      <point x="1077.978947368421" y="1175.8526315789477"/>
      <point x="1033.7263157894738" y="1062.778947368421"/>
      <point x="963.0105263157894" y="887.1368421052631" type="curve"/>
      <point x="777.2210526315789" y="426.2105263157895" type="line"/>
      <point x="709.6842105263158" y="259.74736842105267"/>
      <point x="655.221052631579" y="133.53684210526313"/>
    </contour>
  </outline>
</glyph>
<glyph name="dollar" format="2">
  <advance width="1133.5578947368422"/>
  <unicode hex="0024"/>
  <outline>
    <contour>
      <point x="516.9263157894736" y="-22.926315789473684" type="curve" smooth="yes"/>
      <point x="829.8736842105263" y="-22.926315789473684"/>
      <point x="980.0842105263159" y="93.68421052631578"/>
      <point x="1028.6526315789474" y="328.5263157894737" type="curve" smooth="yes"/>
      <point x="1070.4" y="528.4421052631578"/>
      <point x="992.7578947368421" y="653.2631578947368"/>
      <point x="698.1473684210526" y="771.7684210526317" type="curve" smooth="yes"/>
      <point x="468.63157894736844" y="865.2421052631578"/>
      <point x="392.1263157894737" y="926.4631578947368"/>
      <point x="417.4526315789474" y="1042.7368421052631" type="curve" smooth="yes"/>
      <point x="444.3157894736842" y="1172.336842105263"/>
      <point x="576.2315789473685" y="1205.6631578947367"/>
      <point x="709.3894736842105" y="1205.6631578947367" type="curve"/>
      <point x="777.3894736842104" y="1205.6631578947367"/>
      <point x="921.2421052631579" y="1165.5578947368424"/>
      <point x="1084.6315789473686" y="1082.378947368421" type="curve"/>
      <point x="1149.578947368421" y="1278.5684210526315" type="line"/>
      <point x="1043.4736842105262" y="1319.1789473684212"/>
      <point x="850.0631578947368" y="1395.2842105263157"/>
      <point x="698.7157894736843" y="1395.2842105263157" type="curve" smooth="yes"/>
      <point x="411.978947368421" y="1395.2842105263157"/>
      <point x="258.33684210526314" y="1282.3578947368421"/>
      <point x="213.76842105263157" y="1068.6947368421054" type="curve" smooth="yes"/>
      <point x="164.8421052631579" y="836.778947368421"/>
      <point x="282.94736842105266" y="728.5684210526316"/>
      <point x="529.1368421052632" y="625.3473684210527" type="curve" smooth="yes"/>
      <point x="724.6526315789473" y="543.4105263157894"/>
      <point x="850.2947368421053" y="474.2947368421053"/>
      <point x="824.1473684210526" y="348.7368421052632" type="curve" smooth="yes"/>
      <point x="793.3894736842105" y="199.2"/>
      <point x="663.578947368421" y="163.41052631578947"/>
      <point x="521.8526315789474" y="163.41052631578947" type="curve"/>
      <point x="400.778947368421" y="163.41052631578947"/>
      <point x="236.7157894736842" y="223.1578947368421"/>
      <point x="93.64210526315789" y="305.0526315789474" type="curve"/>
      <point x="30.69473684210526" y="101.11578947368422" type="line"/>
      <point x="137.5157894736842" y="55.68421052631578"/>
      <point x="307.36842105263156" y="-22.926315789473684"/>
    </contour>
    <contour>
      <point x="318.8421052631579" y="-274.0" type="curve"/>
      <point x="510.0" y="-274.0" type="line"/>
      <point x="548.6105263157895" y="-40.0"/>
      <point x="591.7894736842105" y="168.0"/>
      <point x="637.7894736842105" y="384.0" type="curve"/>
      <point x="757.7894736842105" y="948.0" type="line"/>
      <point x="803.7894736842105" y="1164.0"/>
      <point x="848.6105263157895" y="1372.0"/>
      <point x="910.0" y="1606.0" type="curve"/>
      <point x="718.8421052631579" y="1606.0" type="line"/>
      <point x="680.2315789473685" y="1372.0"/>
      <point x="637.0526315789474" y="1164.0"/>
      <point x="591.0526315789474" y="948.0" type="curve"/>
      <point x="471.0526315789474" y="384.0" type="line"/>
      <point x="425.0526315789474" y="168.0"/>
      <point x="379.4105263157895" y="-40.0"/>
    </contour>
  </outline>
</glyph>
<glyph name="percent" format="2">
  <advance width="1807.578947368421"/>
  <unicode hex="0025"/>
  <outline>
    <contour>
      <point x="271.57894736842104" y="0.0" type="curve"/>
      <point x="508.6526315789475" y="0.0" type="line"/>
      <point x="607.621052631579" y="147.17894736842106"/>
      <point x="708.0842105263158" y="275.17894736842106"/>
      <point x="852.1894736842106" y="458.82105263157894" type="curve"/>
      <point x="1241.9368421052632" y="956.3578947368421" type="line"/>
      <point x="1390.3999999999999" y="1145.536842105263"/>
      <point x="1494.6105263157897" y="1273.6421052631579"/>
      <point x="1628.463157894737" y="1426.0" type="curve"/>
      <point x="1393.0315789473682" y="1426.0" type="line"/>
      <point x="1289.2421052631578" y="1273.6421052631579"/>
      <point x="1188.3157894736842" y="1145.536842105263"/>
      <point x="1039.8526315789472" y="956.3578947368421" type="curve"/>
      <point x="650.1052631578948" y="458.82105263157894" type="line"/>
      <point x="506.0" y="275.17894736842106"/>
      <point x="403.0736842105263" y="147.17894736842106"/>
    </contour>
    <contour>
      <point x="549.4947368421052" y="736.2947368421053" type="curve" smooth="yes"/>
      <point x="754.9473684210526" y="736.2947368421053"/>
      <point x="900.5894736842105" y="836.2947368421053"/>
      <point x="946.2315789473685" y="1052.9684210526316" type="curve" smooth="yes"/>
      <point x="989.8736842105263" y="1261.178947368421"/>
      <point x="843.7684210526315" y="1453.2842105263157"/>
      <point x="596.2105263157895" y="1453.2842105263157" type="curve" smooth="yes"/>
      <point x="384.4" y="1453.2842105263157"/>
      <point x="241.57894736842104" y="1340.1052631578946"/>
      <point x="197.57894736842104" y="1138.4631578947367" type="curve" smooth="yes"/>
      <point x="149.4736842105263" y="916.4"/>
      <point x="294.04210526315785" y="736.2947368421053"/>
    </contour>
    <contour>
      <point x="556.4210526315788" y="880.4" type="curve"/>
      <point x="405.3263157894737" y="886.0421052631579"/>
      <point x="333.59999999999997" y="986.4842105263157"/>
      <point x="359.7473684210526" y="1115.221052631579" type="curve" smooth="yes"/>
      <point x="385.53684210526313" y="1240.0631578947368"/>
      <point x="465.15789473684214" y="1302.7157894736845"/>
      <point x="588.4631578947369" y="1309.1789473684212" type="curve"/>
      <point x="730.0210526315789" y="1302.7157894736845"/>
      <point x="806.1052631578947" y="1192.7368421052631"/>
      <point x="779.9578947368421" y="1070.8210526315788" type="curve" smooth="yes"/>
      <point x="752.9894736842106" y="939.1578947368421"/>
      <point x="674.8" y="886.0421052631579"/>
    </contour>
    <contour>
      <point x="1310.1894736842105" y="-23.74736842105263" type="curve" smooth="yes"/>
      <point x="1515.6421052631579" y="-23.74736842105263"/>
      <point x="1661.2842105263157" y="76.25263157894737"/>
      <point x="1706.9263157894736" y="292.9263157894737" type="curve" smooth="yes"/>
      <point x="1750.5684210526315" y="501.1368421052632"/>
      <point x="1604.4631578947367" y="693.2421052631579"/>
      <point x="1356.9052631578948" y="693.2421052631579" type="curve" smooth="yes"/>
      <point x="1145.0947368421055" y="693.2421052631579"/>
      <point x="1002.2736842105263" y="580.063157894737"/>
      <point x="958.2736842105263" y="378.42105263157896" type="curve" smooth="yes"/>
      <point x="910.1684210526316" y="156.35789473684213"/>
      <point x="1054.7368421052633" y="-23.74736842105263"/>
    </contour>
    <contour>
      <point x="1317.1157894736841" y="120.3578947368421" type="curve"/>
      <point x="1166.0210526315789" y="125.99999999999999"/>
      <point x="1094.294736842105" y="226.4421052631579"/>
      <point x="1120.4421052631578" y="355.17894736842106" type="curve" smooth="yes"/>
      <point x="1145.4105263157894" y="480.0210526315789"/>
      <point x="1225.8526315789472" y="542.6736842105263"/>
      <point x="1349.157894736842" y="549.1368421052631" type="curve"/>
      <point x="1490.7157894736843" y="542.6736842105263"/>
      <point x="1566.8" y="432.69473684210527"/>
      <point x="1540.6526315789472" y="310.7789473684211" type="curve" smooth="yes"/>
      <point x="1512.8631578947366" y="179.1157894736842"/>
      <point x="1435.4947368421053" y="125.99999999999999"/>
    </contour>
  </outline>
</glyph>
<glyph name="ampersand" format="2">
  <advance width="1498.896551724138"/>
  <unicode hex="0026"/>
  <outline>
    <contour>
      <point x="1088.7586206896551" y="0.0" type="curve"/>
      <point x="1374.2068965517244" y="0.0" type="line"/>
      <point x="1260.8965517241377" y="129.10344827586206"/>
      <point x="1156.9655172413793" y="260.2068965517241"/>
      <point x="1058.0" y="387.7241379310345" type="curve"/>
      <point x="709.8620689655172" y="839.3793103448277" type="line" smooth="yes"/>
      <point x="624.9655172413793" y="950.0689655172414"/>
      <point x="599.1034482758621" y="1038.9655172413793"/>
      <point x="621.7241379310345" y="1142.2758620689656" type="curve" smooth="yes"/>
      <point x="644.551724137931" y="1242.4137931034481"/>
      <point x="712.2758620689656" y="1285.3793103448277"/>
      <point x="814.0689655172414" y="1289.3793103448277" type="curve"/>
      <point x="917.1724137931035" y="1283.5862068965519"/>
      <point x="989.0344827586207" y="1219.2413793103449"/>
      <point x="968.0" y="1110.6896551724137" type="curve" smooth="yes"/>
      <point x="946.551724137931" y="996.896551724138"/>
      <point x="823.3793103448277" y="937.448275862069"/>
      <point x="682.8275862068965" y="864.4137931034483" type="curve"/>
      <point x="783.3793103448276" y="737.5172413793103" type="line"/>
      <point x="935.448275862069" y="817.3103448275862"/>
      <point x="1128.0689655172414" y="901.5172413793103"/>
      <point x="1166.0689655172414" y="1084.344827586207" type="curve" smooth="yes"/>
      <point x="1207.655172413793" y="1286.6896551724137"/>
      <point x="1045.9999999999998" y="1453.5862068965516"/>
      <point x="814.2758620689655" y="1453.5862068965516" type="curve" smooth="yes"/>
      <point x="622.9655172413793" y="1453.5862068965516"/>
      <point x="450.6896551724138" y="1361.9310344827586"/>
      <point x="410.89655172413796" y="1163.0344827586207" type="curve" smooth="yes"/>
      <point x="378.48275862068965" y="1003.5862068965516"/>
      <point x="439.3103448275862" y="861.0344827586207"/>
      <point x="532.9655172413793" y="738.0" type="curve" smooth="yes"/>
      <point x="893.8620689655173" y="272.0" type="line"/>
      <point x="964.4827586206897" y="182.0"/>
      <point x="1037.103448275862" y="88.0"/>
    </contour>
    <contour>
      <point x="472.20689655172407" y="-21.586206896551722" type="curve" smooth="yes"/>
      <point x="642.0689655172414" y="-21.586206896551722"/>
      <point x="771.103448275862" y="71.51724137931033"/>
      <point x="928.3448275862069" y="199.99999999999997" type="curve"/>
      <point x="955.9310344827586" y="199.99999999999997" type="line"/>
      <point x="943.1724137931035" y="238.13793103448276" type="line"/>
      <point x="848.551724137931" y="363.7931034482759" type="line"/>
      <point x="726.344827586207" y="231.65517241379308"/>
      <point x="610.6896551724138" y="162.34482758620692"/>
      <point x="500.8965517241379" y="162.34482758620692" type="curve"/>
      <point x="324.0689655172414" y="168.1379310344828"/>
      <point x="254.6896551724138" y="283.3103448275862"/>
      <point x="283.93103448275866" y="421.7241379310345" type="curve" smooth="yes"/>
      <point x="313.3793103448276" y="562.551724137931"/>
      <point x="421.17241379310343" y="638.6206896551724"/>
      <point x="582.2068965517241" y="699.8620689655172" type="curve"/>
      <point x="503.03448275862064" y="836.3448275862069" type="line"/>
      <point x="304.4137931034483" y="770.551724137931"/>
      <point x="121.72413793103448" y="657.7931034482758"/>
      <point x="73.3103448275862" y="424.55172413793105" type="curve" smooth="yes"/>
      <point x="27.517241379310338" y="204.20689655172413"/>
      <point x="169.86206896551724" y="-21.586206896551722"/>
    </contour>
    <contour>
      <point x="1083.7241379310346" y="340.41379310344826" type="line"/>
      <point x="1204.4827586206895" y="463.2413793103448"/>
      <point x="1319.0344827586207" y="581.6551724137931"/>
      <point x="1447.1724137931035" y="696.8965517241379" type="curve"/>
      <point x="1257.8620689655172" y="831.9310344827586" type="line"/>
      <point x="1170.8275862068967" y="703.9310344827586"/>
      <point x="1074.6206896551726" y="589.7241379310345"/>
      <point x="972.0" y="468.68965517241384" type="curve"/>
    </contour>
  </outline>
</glyph>
<glyph name="quotesingle" format="2">
  <advance width="422.65263157894736"/>
  <unicode hex="0027"/>
  <outline>
    <contour>
      <point x="182.94736842105263" y="844.1473684210526" type="curve"/>
      <point x="346.14736842105265" y="846.1473684210526" type="line"/>
      <point x="399.28421052631575" y="1062.5263157894738"/>
      <point x="457.13684210526316" y="1277.2631578947369"/>
      <point x="527.9157894736843" y="1488.821052631579" type="curve"/>
      <point x="276.23157894736846" y="1483.536842105263" type="line"/>
      <point x="255.0526315789474" y="1272.8"/>
      <point x="222.9473684210526" y="1060.0631578947368"/>
    </contour>
  </outline>
</glyph>
<glyph name="parenleft" format="2">
  <advance width="791.2210526315789"/>
  <unicode hex="0028"/>
  <outline>
    <contour>
      <point x="405.57894736842104" y="-251.09473684210525" type="curve"/>
      <point x="588.8842105263158" y="-188.86315789473684" type="line"/>
      <point x="414.8421052631578" y="55.136842105263156"/>
      <point x="291.15789473684214" y="311.43157894736845"/>
      <point x="368.33684210526314" y="672.1473684210526" type="curve" smooth="yes"/>
      <point x="445.5157894736842" y="1034.863157894737"/>
      <point x="673.9157894736842" y="1271.5789473684213"/>
      <point x="937.6000000000001" y="1472.8631578947368" type="curve"/>
      <point x="758.7578947368421" y="1545.4526315789474" type="line"/>
      <point x="508.1052631578948" y="1361.3684210526317"/>
      <point x="234.90526315789475" y="1099.3052631578946"/>
      <point x="149.97894736842105" y="697.8526315789474" type="curve" smooth="yes"/>
      <point x="65.05263157894737" y="297.57894736842104"/>
      <point x="237.43157894736845" y="-26.29473684210525"/>
    </contour>
  </outline>
</glyph>
<glyph name="asterisk" format="2">
  <advance width="961.1578947368421"/>
  <unicode hex="002A"/>
  <outline>
    <contour>
      <point x="872.8210526315789" y="660.2315789473685" type="curve"/>
      <point x="982.7578947368421" y="780.378947368421" type="line"/>
      <point x="860.9052631578946" y="872.6315789473683"/>
      <point x="742.3368421052631" y="968.8842105263159"/>
      <point x="626.1263157894737" y="1065.957894736842" type="curve"/>
      <point x="518.9473684210526" y="1178.0631578947368"/>
      <point x="416.58947368421053" y="1289.8105263157895"/>
      <point x="315.05263157894734" y="1405.2" type="curve"/>
      <point x="206.29473684210527" y="1285.0526315789475" type="line"/>
      <point x="326.14736842105265" y="1192.8"/>
      <point x="446.35789473684207" y="1095.7263157894736"/>
      <point x="561.7473684210527" y="996.6526315789473" type="curve"/>
      <point x="668.1052631578947" y="886.5473684210526"/>
      <point x="771.2842105263157" y="773.978947368421"/>
    </contour>
    <contour>
      <point x="188.63157894736844" y="806.4842105263159" type="line"/>
      <point x="327.4526315789474" y="869.8736842105263"/>
      <point x="467.09473684210525" y="929.621052631579"/>
      <point x="609.9157894736842" y="988.5473684210526" type="curve"/>
      <point x="755.6631578947369" y="1030.336842105263"/>
      <point x="903.7684210526315" y="1070.1263157894737"/>
      <point x="1051.5157894736842" y="1105.9157894736843" type="curve"/>
      <point x="999.2421052631579" y="1258.9473684210527" type="line"/>
      <point x="860.421052631579" y="1194.7368421052631"/>
      <point x="720.778947368421" y="1134.9894736842105"/>
      <point x="579.9578947368421" y="1078.0631578947368" type="curve"/>
      <point x="432.2105263157895" y="1034.2736842105264"/>
      <point x="285.2842105263158" y="995.6631578947367"/>
      <point x="135.53684210526313" y="959.5157894736842" type="curve"/>
    </contour>
    <contour>
      <point x="418.54736842105257" y="603.1789473684211" type="curve"/>
      <point x="578.042105263158" y="568.2947368421053" type="line"/>
      <point x="595.8315789473685" y="720.4"/>
      <point x="617.2631578947369" y="872.5052631578947"/>
      <point x="639.5157894736842" y="1024.9684210526316" type="curve"/>
      <point x="680.9052631578948" y="1170.6105263157895"/>
      <point x="722.2947368421053" y="1317.4315789473683"/>
      <point x="768.5052631578948" y="1463.0736842105264" type="curve"/>
      <point x="609.8315789473684" y="1497.1368421052632" type="line"/>
      <point x="592.0421052631579" y="1345.0315789473684"/>
      <point x="570.6105263157895" y="1193.7473684210524"/>
      <point x="548.3578947368421" y="1044.0" type="curve"/>
      <point x="506.9684210526316" y="894.8210526315789"/>
      <point x="465.57894736842104" y="748.0"/>
    </contour>
  </outline>
</glyph>
<glyph name="plus" format="2">
  <advance width="1185.8105263157893"/>
  <unicode hex="002B"/>
  <outline>
    <contour>
      <point x="402.3157894736842" y="112.7578947368421" type="curve"/>
      <point x="619.2842105263159" y="112.7578947368421" type="line"/>
      <point x="639.6421052631579" y="241.53684210526313"/>
      <point x="664.1052631578947" y="365.85263157894735"/>
      <point x="686.5684210526316" y="471.34736842105264" type="curve"/>
      <point x="741.6421052631579" y="729.1789473684211" type="line"/>
      <point x="764.9263157894736" y="837.1368421052632"/>
      <point x="792.2105263157895" y="960.2736842105263"/>
      <point x="827.6" y="1090.2315789473685" type="curve"/>
      <point x="610.6315789473684" y="1090.2315789473685" type="line"/>
      <point x="590.2736842105264" y="961.4526315789474"/>
      <point x="565.8105263157895" y="837.1368421052632"/>
      <point x="542.5263157894738" y="728.3578947368421" type="curve"/>
      <point x="487.4526315789474" y="471.34736842105264" type="line"/>
      <point x="464.9894736842105" y="365.85263157894735"/>
      <point x="437.70526315789476" y="241.53684210526313"/>
    </contour>
    <contour>
      <point x="115.41052631578945" y="496.8842105263158" type="line"/>
      <point x="248.18947368421055" y="504.98947368421057"/>
      <point x="371.3263157894737" y="505.8105263157895"/>
      <point x="477.6421052631579" y="505.8105263157895" type="curve"/>
      <point x="712.7157894736843" y="505.8105263157895" type="line"/>
      <point x="819.0315789473685" y="505.8105263157895"/>
      <point x="942.1684210526316" y="504.98947368421057"/>
      <point x="1069.3052631578948" y="496.8842105263158" type="curve"/>
      <point x="1114.8631578947368" y="706.1052631578948" type="line"/>
      <point x="982.9052631578948" y="698.0"/>
      <point x="859.7684210526317" y="697.1789473684211"/>
      <point x="753.4526315789474" y="697.1789473684211" type="curve"/>
      <point x="518.378947368421" y="697.1789473684211" type="line"/>
      <point x="412.0631578947369" y="697.1789473684211"/>
      <point x="288.92631578947373" y="698.0"/>
      <point x="160.96842105263158" y="706.1052631578948" type="curve"/>
    </contour>
  </outline>
</glyph>
<glyph name="comma" format="2">
  <advance width="475.62105263157895"/>
  <unicode hex="002C"/>
  <outline>
    <contour>
      <point x="-121.8736842105263" y="-314.0" type="curve"/>
      <point x="9.915789473684207" y="-311.17894736842106" type="line"/>
      <point x="104.73684210526312" y="-218.56842105263158"/>
      <point x="271.28421052631575" y="-35.32631578947368"/>
      <point x="301.38947368421054" y="111.19999999999999" type="curve" smooth="yes"/>
      <point x="318.77894736842103" y="197.3263157894737"/>
      <point x="294.9263157894737" y="263.34736842105264"/>
      <point x="208.2315789473684" y="282.021052631579" type="curve"/>
      <point x="85.15789473684212" y="273.4526315789474" type="line"/>
      <point x="84.4421052631579" y="200.0"/>
      <point x="74.80000000000001" y="126.54736842105262"/>
      <point x="60.69473684210528" y="58.02105263157895" type="curve"/>
      <point x="35.87368421052633" y="-60.90526315789473"/>
      <point x="-30.547368421052635" y="-196.82105263157897"/>
    </contour>
  </outline>
</glyph>
<glyph name="hyphen" format="2">
  <advance width="848.2105263157895"/>
  <unicode hex="002D"/>
  <outline>
    <contour>
      <point x="114.5894736842105" y="492.77894736842103" type="line"/>
      <point x="227.26315789473685" y="500.88421052631577"/>
      <point x="333.11578947368423" y="501.7052631578947"/>
      <point x="424.14736842105265" y="501.7052631578947" type="curve"/>
      <point x="515.1789473684211" y="501.7052631578947"/>
      <point x="621.0315789473684" y="500.88421052631577"/>
      <point x="732.0631578947368" y="492.77894736842103" type="curve"/>
      <point x="775.621052631579" y="702.0" type="line"/>
      <point x="661.7684210526317" y="693.8947368421052"/>
      <point x="555.0947368421054" y="693.0736842105263"/>
      <point x="464.06315789473683" y="693.0736842105263" type="curve"/>
      <point x="373.0315789473684" y="693.0736842105263"/>
      <point x="268.0" y="693.8947368421052"/>
      <point x="158.1473684210526" y="702.0" type="curve"/>
    </contour>
  </outline>
</glyph>
<glyph name="period" format="2">
  <advance width="494.5052631578947"/>
  <unicode hex="002E"/>
  <outline>
    <contour>
      <point x="157.41052631578947" y="-23.74736842105263" type="curve" smooth="yes"/>
      <point x="252.46315789473684" y="-23.74736842105263"/>
      <point x="302.9894736842105" y="19.6"/>
      <point x="322.7368421052631" y="115.97894736842105" type="curve" smooth="yes"/>
      <point x="338.4842105263158" y="202.71578947368425"/>
      <point x="288.5263157894737" y="275.30526315789473"/>
      <point x="181.26315789473685" y="275.30526315789473" type="curve" smooth="yes"/>
      <point x="79.17894736842106" y="275.30526315789473"/>
      <point x="35.684210526315795" y="233.95789473684212"/>
      <point x="20.757894736842108" y="157.3263157894737" type="curve" smooth="yes"/>
      <point x="0.18947368421052702" y="57.2"/>
      <point x="51.431578947368436" y="-23.74736842105263"/>
    </contour>
  </outline>
</glyph>
<glyph name="slash" format="2">
  <advance width="914.5894736842105"/>
  <unicode hex="002F"/>
  <outline>
    <contour>
      <point x="-63.30526315789474" y="0.0" type="curve"/>
      <point x="192.39999999999998" y="0.0" type="line"/>
      <point x="269.978947368421" y="148.0"/>
      <point x="344.58947368421053" y="274.0"/>
      <point x="457.5578947368421" y="456.0" type="curve"/>
      <point x="759.7473684210526" y="948.0" type="line"/>
      <point x="878.7157894736843" y="1142.0"/>
      <point x="959.7894736842105" y="1272.0"/>
      <point x="1068.2526315789473" y="1426.0" type="curve"/>
      <point x="813.3684210526316" y="1426.0" type="line"/>
      <point x="731.4315789473684" y="1272.0"/>
      <point x="654.0" y="1142.0"/>
      <point x="537.8526315789474" y="952.8210526315789" type="curve"/>
      <point x="232.8421052631579" y="456.0" type="line"/>
      <point x="119.8736842105263" y="274.0"/>
      <point x="38.79999999999999" y="148.0"/>
    </contour>
  </outline>
</glyph>
<glyph name="two" format="2">
  <advance width="1120.4842105263158"/>
  <unicode hex="0032"/>
  <outline>
    <contour>
      <point x="-11.136842105263156" y="0.0" type="line"/>
      <point x="917.0105263157894" y="0.0" type="line"/>
      <point x="963.0315789473683" y="216.25263157894736" type="line"/>
      <point x="813.8105263157894" y="197.4736842105263"/>
      <point x="666.3368421052631" y="194.65263157894736"/>
      <point x="521.2210526315789" y="194.65263157894736" type="curve"/>
      <point x="254.52631578947367" y="194.65263157894736" type="line"/>
      <point x="280.8421052631579" y="142.2736842105263" type="line"/>
      <point x="529.0736842105263" y="316.86315789473684" type="line"/>
      <point x="870.7368421052631" y="556.7789473684211"/>
      <point x="1048.5052631578947" y="721.8947368421053"/>
      <point x="1095.221052631579" y="945.8315789473684" type="curve" smooth="yes"/>
      <point x="1147.7894736842106" y="1198.1052631578948"/>
      <point x="1010.9473684210526" y="1400.2105263157894"/>
      <point x="700.4631578947368" y="1400.2105263157894" type="curve" smooth="yes"/>
      <point x="569.2842105263159" y="1400.2105263157894"/>
      <point x="371.6421052631579" y="1332.0631578947368"/>
      <point x="252.14736842105265" y="1292.9894736842107" type="curve"/>
      <point x="228.79999999999998" y="1058.6315789473683" type="line"/>
      <point x="401.55789473684206" y="1151.3473684210528"/>
      <point x="584.4842105263158" y="1206.4842105263158"/>
      <point x="651.1999999999999" y="1206.4842105263158" type="curve"/>
      <point x="825.7263157894737" y="1202.842105263158"/>
      <point x="895.7684210526315" y="1097.8947368421052"/>
      <point x="863.6210526315789" y="948.3368421052631" type="curve" smooth="yes"/>
      <point x="823.0105263157894" y="754.9263157894736"/>
      <point x="619.5368421052631" y="595.0947368421052"/>
      <point x="297.9789473684211" y="358.14736842105265" type="curve"/>
      <point x="205.1157894736842" y="290.82105263157894"/>
      <point x="115.53684210526315" y="230.06315789473683"/>
      <point x="24.673684210526318" y="172.4842105263158" type="curve"/>
    </contour>
  </outline>
</glyph>
<glyph name="four" format="2">
  <advance width="1210.2758620689656"/>
  <unicode hex="0034"/>
  <outline>
    <contour>
      <point x="576.896551724138" y="0.0" type="curve"/>
      <point x="836.9655172413793" y="0.0" type="line"/>
      <point x="848.2068965517241" y="129.17241379310346"/>
      <point x="870.0" y="234.13793103448273"/>
      <point x="901.7931034482758" y="386.89655172413796" type="curve"/>
      <point x="1008.4137931034483" y="891.3793103448276" type="line"/>
      <point x="1040.6206896551726" y="1049.3793103448277"/>
      <point x="1076.2068965517242" y="1207.3793103448277"/>
      <point x="1128.9655172413793" y="1373.3793103448277" type="curve"/>
      <point x="864.8965517241379" y="1373.3793103448277" type="line"/>
      <point x="799.2413793103449" y="1286.7586206896551"/>
      <point x="720.2068965517241" y="1197.7241379310344"/>
      <point x="641.3793103448276" y="1110.896551724138" type="curve"/>
      <point x="417.51724137931035" y="865.2413793103449" type="line"/>
      <point x="306.2758620689655" y="742.2068965517241"/>
      <point x="153.0344827586207" y="578.5517241379309"/>
      <point x="51.58620689655172" y="476.48275862068965" type="curve"/>
      <point x="16.482758620689655" y="305.7241379310345" type="line"/>
      <point x="749.103448275862" y="305.7241379310345" type="line"/>
      <point x="859.2413793103448" y="305.7241379310345"/>
      <point x="1016.9655172413793" y="303.9310344827586"/>
      <point x="1115.3103448275863" y="294.55172413793105" type="curve"/>
      <point x="1161.5862068965516" y="513.1724137931035" type="line"/>
      <point x="1059.4482758620688" y="502.0"/>
      <point x="898.1379310344828" y="500.2068965517241"/>
      <point x="788.0" y="500.2068965517241" type="curve"/>
      <point x="758.4137931034484" y="500.2068965517241" type="line"/>
      <point x="236.89655172413794" y="500.2068965517241" type="line"/>
      <point x="249.86206896551724" y="417.7931034482759" type="line"/>
      <point x="321.3103448275862" y="504.82758620689657"/>
      <point x="398.13793103448273" y="593.448275862069"/>
      <point x="477.17241379310343" y="680.4827586206897" type="curve"/>
      <point x="776.8965517241379" y="1008.2068965517241" type="line"/>
      <point x="869.7241379310344" y="1111.0344827586207"/>
      <point x="959.1724137931035" y="1206.6896551724137"/>
      <point x="1050.2068965517242" y="1292.965517241379" type="curve"/>
      <point x="857.3103448275862" y="1272.2068965517242" type="line"/>
      <point x="840.0689655172414" y="1131.5862068965516"/>
      <point x="811.8620689655172" y="992.551724137931"/>
      <point x="781.6551724137931" y="850.1379310344828" type="curve"/>
      <point x="691.7931034482758" y="425.44827586206895" type="line"/>
      <point x="676.8275862068966" y="386.89655172413796" type="line"/>
      <point x="645.0344827586207" y="234.13793103448273"/>
      <point x="621.2413793103449" y="129.17241379310346"/>
    </contour>
  </outline>
</glyph>
<glyph name="five" format="2">
  <advance width="1157.5172413793102"/>
  <unicode hex="0035"/>
  <outline>
    <contour>
      <point x="475.17241379310343" y="-23.379310344827587" type="curve" smooth="yes"/>
      <point x="806.0" y="-23.379310344827587"/>
      <point x="984.4137931034481" y="119.3793103448276"/>
      <point x="1044.206896551724" y="403.9310344827586" type="curve" smooth="yes"/>
      <point x="1106.4137931034481" y="699.9310344827586"/>
      <point x="926.7586206896551" y="892.8965517241379"/>
      <point x="693.7241379310344" y="892.8965517241379" type="curve" smooth="yes"/>
      <point x="607.7931034482758" y="892.8965517241379"/>
      <point x="543.7241379310344" y="870.0689655172415"/>
      <point x="471.2413793103448" y="836.4137931034483" type="curve"/>
      <point x="452.0689655172414" y="836.4137931034483" type="line"/>
      <point x="468.68965517241384" y="913.7241379310344" type="line"/>
      <point x="493.3103448275862" y="1025.6551724137933"/>
      <point x="520.1379310344827" y="1141.3793103448274"/>
      <point x="551.9310344827586" y="1253.5172413793102" type="curve"/>
      <point x="448.2068965517241" y="1178.896551724138" type="line"/>
      <point x="650.8275862068964" y="1178.896551724138" type="line"/>
      <point x="807.448275862069" y="1178.896551724138"/>
      <point x="969.8620689655172" y="1177.103448275862"/>
      <point x="1124.689655172414" y="1156.7586206896551" type="curve"/>
      <point x="1169.1724137931035" y="1373.3793103448277" type="line"/>
      <point x="332.3448275862069" y="1373.3793103448277" type="line"/>
      <point x="315.3103448275862" y="1215.0344827586207"/>
      <point x="279.72413793103453" y="1040.6896551724137"/>
      <point x="240.13793103448276" y="854.551724137931" type="curve"/>
      <point x="194.55172413793105" y="634.6206896551724" type="line"/>
      <point x="290.8965517241379" y="627.0344827586207" type="line"/>
      <point x="401.0344827586207" y="688.1379310344828"/>
      <point x="480.0689655172414" y="708.7586206896551"/>
      <point x="575.1724137931034" y="708.7586206896551" type="curve"/>
      <point x="739.9310344827587" y="704.9655172413793"/>
      <point x="853.7241379310344" y="608.8275862068966"/>
      <point x="815.655172413793" y="419.3103448275862" type="curve" smooth="yes"/>
      <point x="780.0" y="243.24137931034483"/>
      <point x="663.2413793103449" y="173.51724137931035"/>
      <point x="474.96551724137936" y="169.72413793103448" type="curve"/>
      <point x="355.9310344827586" y="169.72413793103448"/>
      <point x="203.3793103448276" y="231.10344827586206"/>
      <point x="63.93103448275863" y="313.51724137931035" type="curve"/>
      <point x="0.27586206896551424" y="102.06896551724138" type="line"/>
      <point x="106.27586206896552" y="59.0344827586207"/>
      <point x="271.86206896551727" y="-23.379310344827587"/>
    </contour>
  </outline>
</glyph>
<glyph name="seven" format="2">
  <advance width="1072.9052631578948"/>
  <unicode hex="0037"/>
  <outline>
    <contour>
      <point x="89.55789473684212" y="0.0" type="curve"/>
      <point x="378.82105263157894" y="0.0" type="line"/>
      <point x="465.01052631578943" y="159.68421052631578"/>
      <point x="562.9473684210526" y="319.7263157894737"/>
      <point x="665.4526315789474" y="476.2315789473684" type="curve"/>
      <point x="842.9263157894737" y="746.8842105263158" type="line"/>
      <point x="948.9684210526316" y="909.2842105263159"/>
      <point x="1045.8315789473681" y="1057.6842105263158"/>
      <point x="1146.6947368421054" y="1201.0526315789475" type="curve"/>
      <point x="1183.3263157894737" y="1372.9263157894736" type="line"/>
      <point x="234.0" y="1372.9263157894736" type="line"/>
      <point x="187.97894736842105" y="1154.2105263157896" type="line"/>
      <point x="354.8421052631579" y="1173.3473684210528"/>
      <point x="518.063157894737" y="1178.2736842105264"/>
      <point x="678.4631578947368" y="1178.2736842105264" type="curve"/>
      <point x="950.1894736842106" y="1178.2736842105264" type="line"/>
      <point x="890.6736842105264" y="1225.3684210526317" type="line"/>
      <point x="835.0947368421052" y="1126.4"/>
      <point x="775.7684210526315" y="1030.2526315789473"/>
      <point x="709.5157894736842" y="928.8210526315789" type="curve"/>
      <point x="443.8947368421053" y="526.1263157894737" type="line"/>
      <point x="329.3894736842105" y="352.4421052631579"/>
      <point x="210.88421052631583" y="174.4"/>
    </contour>
  </outline>
</glyph>
<glyph name="eight" format="2">
  <advance width="1222.896551724138"/>
  <unicode hex="0038"/>
  <outline>
    <contour>
      <point x="568.1379310344827" y="-23.379310344827587" type="curve" smooth="yes"/>
      <point x="886.4137931034483" y="-23.379310344827587"/>
      <point x="1050.2068965517242" y="111.0344827586207"/>
      <point x="1097.7931034482758" y="332.0" type="curve" smooth="yes"/>
      <point x="1147.7931034482758" y="562.8275862068966"/>
      <point x="1008.1379310344827" y="686.0689655172414"/>
      <point x="895.1724137931034" y="723.0344827586207" type="curve"/>
      <point x="898.9655172413793" y="742.2068965517241" type="line"/>
      <point x="1039.7241379310344" y="766.4137931034483"/>
      <point x="1160.7586206896551" y="847.448275862069"/>
      <point x="1192.9655172413793" y="1003.448275862069" type="curve" smooth="yes"/>
      <point x="1238.9655172413793" y="1222.4137931034481"/>
      <point x="1070.2068965517242" y="1400.9655172413793"/>
      <point x="749.3793103448276" y="1400.9655172413793" type="curve" smooth="yes"/>
      <point x="496.68965517241384" y="1400.9655172413793"/>
      <point x="303.93103448275866" y="1303.3793103448274"/>
      <point x="262.1379310344828" y="1104.4137931034484" type="curve" smooth="yes"/>
      <point x="225.93103448275863" y="932.4137931034483"/>
      <point x="324.7586206896552" y="807.7931034482758"/>
      <point x="431.7241379310345" y="771.5862068965516" type="curve"/>
      <point x="427.9310344827586" y="752.4137931034483" type="line"/>
      <point x="299.17241379310343" y="730.6206896551724"/>
      <point x="125.3103448275862" y="660.2068965517241"/>
      <point x="79.10344827586206" y="443.1724137931035" type="curve" smooth="yes"/>
      <point x="29.51724137931034" y="208.41379310344828"/>
      <point x="170.27586206896552" y="-23.379310344827587"/>
    </contour>
    <contour>
      <point x="575.3103448275862" y="171.51724137931035" type="curve"/>
      <point x="347.51724137931035" y="177.10344827586206"/>
      <point x="276.82758620689657" y="301.9310344827586"/>
      <point x="306.2758620689655" y="438.7586206896552" type="curve" smooth="yes"/>
      <point x="339.7241379310345" y="596.4137931034483"/>
      <point x="467.1724137931035" y="636.8965517241379"/>
      <point x="632.8275862068965" y="642.4827586206897" type="curve"/>
      <point x="802.0689655172413" y="636.8965517241379"/>
      <point x="917.448275862069" y="541.9310344827586"/>
      <point x="883.5862068965517" y="377.65517241379314" type="curve" smooth="yes"/>
      <point x="856.3448275862069" y="245.6551724137931"/>
      <point x="759.7931034482758" y="177.10344827586206"/>
    </contour>
    <contour>
      <point x="691.103448275862" y="817.2413793103449" type="curve"/>
      <point x="525.2413793103449" y="821.0344827586207"/>
      <point x="443.9310344827586" y="922.2068965517241"/>
      <point x="471.17241379310343" y="1046.2068965517242" type="curve" smooth="yes"/>
      <point x="498.0" y="1166.9655172413793"/>
      <point x="603.5862068965516" y="1205.8620689655174"/>
      <point x="740.0" y="1211.448275862069" type="curve"/>
      <point x="906.4827586206897" y="1205.8620689655174"/>
      <point x="1000.6206896551723" y="1127.3103448275863"/>
      <point x="973.1724137931034" y="993.7241379310344" type="curve" smooth="yes"/>
      <point x="949.9310344827586" y="880.3448275862069"/>
      <point x="849.3793103448276" y="821.0344827586207"/>
    </contour>
  </outline>
</glyph>
<glyph name="less" format="2">
  <advance width="1144.6315789473683"/>
  <unicode hex="003C"/>
  <outline>
    <contour>
      <point x="949.3578947368421" y="120.27368421052631" type="curve"/>
      <point x="995.7368421052632" y="335.13684210526316" type="line"/>
      <point x="872.7263157894737" y="377.7894736842105"/>
      <point x="744.178947368421" y="434.90526315789475"/>
      <point x="621.6315789473684" y="490.8421052631579" type="curve"/>
      <point x="424.6842105263158" y="580.1052631578948" type="line"/>
      <point x="429.5052631578947" y="600.3157894736843" type="line"/>
      <point x="662.1368421052632" y="687.936842105263" type="line"/>
      <point x="810.1157894736841" y="743.8736842105262"/>
      <point x="962.4526315789474" y="799.3473684210526"/>
      <point x="1103.6105263157895" y="842.0" type="curve"/>
      <point x="1152.4526315789474" y="1080.357894736842" type="line"/>
      <point x="1010.8526315789474" y="1018.9684210526316"/>
      <point x="875.7157894736843" y="966.9684210526316"/>
      <point x="759.0421052631579" y="922.9684210526316" type="curve"/>
      <point x="547.6105263157895" y="842.8210526315789" type="line"/>
      <point x="432.47368421052636" y="800.0"/>
      <point x="298.1578947368421" y="750.8210526315789"/>
      <point x="160.19999999999996" y="707.7473684210527" type="curve"/>
      <point x="113.82105263157892" y="492.88421052631577" type="line"/>
      <point x="234.2421052631579" y="449.8105263157895"/>
      <point x="347.7368421052632" y="400.63157894736844"/>
      <point x="443.69473684210527" y="357.8105263157895" type="curve"/>
      <point x="621.5894736842105" y="277.66315789473686" type="line"/>
      <point x="719.0842105263158" y="233.66315789473686"/>
      <point x="834.2210526315789" y="180.48421052631576"/>
    </contour>
  </outline>
</glyph>
<glyph name="equal" format="2">
  <advance width="1144.6315789473683"/>
  <unicode hex="003D"/>
  <outline>
    <contour>
      <point x="75.51578947368421" y="266.3578947368421" type="line"/>
      <point x="207.1157894736842" y="274.46315789473687"/>
      <point x="330.25263157894733" y="275.2842105263158"/>
      <point x="436.56842105263155" y="275.2842105263158" type="curve"/>
      <point x="615.2210526315789" y="275.2842105263158" type="line"/>
      <point x="721.5368421052632" y="275.2842105263158"/>
      <point x="844.6736842105263" y="274.46315789473687"/>
      <point x="972.9894736842106" y="266.3578947368421" type="curve"/>
      <point x="1017.3684210526316" y="475.57894736842104" type="line"/>
      <point x="885.4105263157894" y="467.4736842105263"/>
      <point x="762.2736842105263" y="466.65263157894736"/>
      <point x="655.957894736842" y="466.65263157894736" type="curve"/>
      <point x="477.30526315789473" y="466.65263157894736" type="line"/>
      <point x="370.9894736842105" y="466.65263157894736"/>
      <point x="247.85263157894735" y="467.4736842105263"/>
      <point x="119.89473684210527" y="475.57894736842104" type="curve"/>
    </contour>
    <contour>
      <point x="171.3684210526316" y="727.4105263157894" type="line"/>
      <point x="302.9684210526316" y="735.5157894736842"/>
      <point x="426.1052631578947" y="736.3368421052631"/>
      <point x="532.4210526315788" y="736.3368421052631" type="curve"/>
      <point x="711.0736842105263" y="736.3368421052631" type="line"/>
      <point x="817.3894736842105" y="736.3368421052631"/>
      <point x="940.5263157894736" y="735.5157894736842"/>
      <point x="1068.842105263158" y="727.4105263157894" type="curve"/>
      <point x="1113.2210526315791" y="936.6315789473684" type="line"/>
      <point x="981.2631578947368" y="928.5263157894736"/>
      <point x="858.1263157894737" y="927.7052631578947"/>
      <point x="751.8105263157894" y="927.7052631578947" type="curve"/>
      <point x="573.157894736842" y="927.7052631578947" type="line"/>
      <point x="466.84210526315786" y="927.7052631578947"/>
      <point x="343.70526315789476" y="928.5263157894736"/>
      <point x="215.7473684210526" y="936.6315789473684" type="curve"/>
    </contour>
  </outline>
</glyph>
<glyph name="greater" format="2">
  <advance width="1144.6315789473683"/>
  <unicode hex="003E"/>
  <outline>
    <contour>
      <point x="35.873684210526314" y="120.27368421052631" type="line"/>
      <point x="177.4736842105263" y="181.66315789473683"/>
      <point x="312.6105263157895" y="233.66315789473686"/>
      <point x="429.2842105263158" y="277.66315789473686" type="curve"/>
      <point x="640.7157894736843" y="357.8105263157895" type="line"/>
      <point x="755.8526315789475" y="400.63157894736844"/>
      <point x="890.1684210526316" y="449.8105263157895"/>
      <point x="1028.1263157894737" y="492.88421052631577" type="curve"/>
      <point x="1074.505263157895" y="707.7473684210527" type="line"/>
      <point x="954.0842105263158" y="750.8210526315789"/>
      <point x="840.5894736842106" y="800.0"/>
      <point x="744.6315789473684" y="842.8210526315789" type="curve"/>
      <point x="566.7368421052631" y="922.9684210526316" type="line"/>
      <point x="469.2421052631579" y="966.9684210526316"/>
      <point x="354.10526315789474" y="1020.1473684210526"/>
      <point x="238.96842105263156" y="1080.357894736842" type="curve"/>
      <point x="192.58947368421053" y="865.4947368421053" type="line"/>
      <point x="315.6" y="822.8421052631579"/>
      <point x="444.14736842105265" y="765.7263157894737"/>
      <point x="566.6947368421053" y="709.7894736842105" type="curve"/>
      <point x="763.6421052631579" y="620.5263157894736" type="line"/>
      <point x="758.8210526315789" y="600.3157894736842" type="line"/>
      <point x="526.1894736842105" y="512.6947368421053" type="line"/>
      <point x="378.2105263157895" y="456.7578947368421"/>
      <point x="225.8736842105263" y="401.28421052631575"/>
      <point x="84.71578947368421" y="358.63157894736844" type="curve"/>
    </contour>
  </outline>
</glyph>
<glyph name="at" format="2">
  <advance width="1772.1684210526316"/>
  <unicode hex="0040"/>
  <outline>
    <contour>
      <point x="960.421052631579" y="-272.7368421052632" type="curve" smooth="yes"/>
      <point x="1130.0631578947368" y="-272.7368421052632"/>
      <point x="1360.778947368421" y="-201.7684210526316"/>
      <point x="1526.0631578947368" y="-132.2315789473684" type="curve"/>
      <point x="1526.0631578947368" y="27.515789473684208" type="line"/>
      <point x="1313.3894736842103" y="-77.05263157894737"/>
      <point x="1089.2842105263157" y="-130.02105263157895"/>
      <point x="960.421052631579" y="-137.66315789473686" type="curve"/>
      <point x="415.9789473684211" y="-130.02105263157895"/>
      <point x="171.47368421052633" y="235.6421052631579"/>
      <point x="264.7578947368421" y="670.1052631578947" type="curve" smooth="yes"/>
      <point x="342.90526315789475" y="1035.9157894736843"/>
      <point x="594.2105263157895" y="1224.0842105263157"/>
      <point x="950.421052631579" y="1231.7263157894736" type="curve"/>
      <point x="1372.5052631578947" y="1224.0842105263157"/>
      <point x="1615.3684210526314" y="932.9894736842106"/>
      <point x="1535.0105263157893" y="528.021052631579" type="curve" smooth="yes"/>
      <point x="1507.1157894736841" y="387.7263157894737"/>
      <point x="1384.2105263157896" y="263.17894736842106"/>
      <point x="1300.6315789473686" y="259.89473684210526" type="curve"/>
      <point x="1206.336842105263" y="265.53684210526313"/>
      <point x="1171.8315789473684" y="321.4315789473684"/>
      <point x="1201.9368421052632" y="467.85263157894735" type="curve"/>
      <point x="1234.4421052631578" y="623.2" type="line"/>
      <point x="1261.2631578947369" y="737.8105263157895"/>
      <point x="1291.7263157894736" y="851.7052631578947"/>
      <point x="1333.0105263157895" y="965.8526315789474" type="curve"/>
      <point x="1156.8842105263157" y="955.7473684210527" type="line"/>
      <point x="1124.0631578947368" y="849.8526315789474" type="line"/>
      <point x="1107.494736842105" y="849.8526315789474" type="line"/>
      <point x="1052.8842105263157" y="924.0631578947368"/>
      <point x="948.8421052631579" y="977.0315789473684"/>
      <point x="859.621052631579" y="977.0315789473684" type="curve" smooth="yes"/>
      <point x="673.2631578947369" y="977.0315789473684"/>
      <point x="535.9368421052632" y="825.0736842105263"/>
      <point x="492.0421052631579" y="611.4947368421052" type="curve" smooth="yes"/>
      <point x="441.22105263157897" y="364.82105263157894"/>
      <point x="543.0736842105263" y="141.07368421052632"/>
      <point x="773.578947368421" y="141.07368421052632" type="curve" smooth="yes"/>
      <point x="849.2631578947369" y="141.07368421052632"/>
      <point x="944.4421052631578" y="186.7157894736842"/>
      <point x="1025.7684210526315" y="274.61052631578946" type="curve"/>
      <point x="1041.5157894736842" y="274.61052631578946" type="line"/>
      <point x="1069.1157894736841" y="195.6842105263158"/>
      <point x="1152.3157894736842" y="122.71578947368421"/>
      <point x="1306.4210526315787" y="122.71578947368421" type="curve" smooth="yes"/>
      <point x="1408.6315789473683" y="122.71578947368421"/>
      <point x="1628.0842105263157" y="257.57894736842104"/>
      <point x="1675.4736842105262" y="499.6" type="curve" smooth="yes"/>
      <point x="1768.042105263158" y="975.7684210526315"/>
      <point x="1456.336842105263" y="1366.8"/>
      <point x="953.2421052631579" y="1366.8" type="curve" smooth="yes"/>
      <point x="566.6736842105263" y="1366.8"/>
      <point x="219.68421052631578" y="1159.8736842105263"/>
      <point x="123.93684210526317" y="698.6315789473684" type="curve" smooth="yes"/>
      <point x="18.44210526315789" y="194.29473684210527"/>
      <point x="324.9684210526316" y="-272.7368421052632"/>
    </contour>
    <contour>
      <point x="823.4526315789474" y="300.42105263157896" type="curve"/>
      <point x="687.1368421052631" y="304.42105263157896"/>
      <point x="634.4842105263158" y="428.5473684210526"/>
      <point x="666.5263157894736" y="581.6842105263158" type="curve" smooth="yes"/>
      <point x="694.6736842105263" y="714.5263157894736"/>
      <point x="772.7578947368421" y="809.2210526315789"/>
      <point x="900.5684210526316" y="814.0421052631579" type="curve"/>
      <point x="971.3684210526316" y="813.578947368421"/>
      <point x="1033.7052631578945" y="776.4631578947368"/>
      <point x="1079.4315789473683" y="727.9157894736842" type="curve"/>
      <point x="1014.3157894736843" y="424.9473684210526" type="line"/>
      <point x="953.1578947368421" y="338.82105263157894"/>
      <point x="883.6421052631579" y="304.42105263157896"/>
    </contour>
  </outline>
</glyph>
<glyph name="A" format="2">
  <advance width="1405.7894736842104"/>
  <unicode hex="0041"/>
  <anchor x="598.4842105263158" y="0.0" name="bottom"/>
  <anchor x="1262.0631578947368" y="0.0" name="ogonek"/>
  <anchor x="896.8421052631579" y="1426.0" name="top"/>
  <outline>
    <contour>
      <point x="-71.5578947368421" y="0.0" type="curve"/>
      <point x="225.34736842105264" y="0.0" type="line"/>
      <point x="297.7894736842106" y="163.11578947368423"/>
      <point x="382.2315789473684" y="334.23157894736846"/>
      <point x="466.8842105263158" y="494.1684210526316" type="curve"/>
      <point x="850.8210526315789" y="1216.8842105263159" type="line"/>
      <point x="871.0315789473684" y="1216.8842105263159" type="line"/>
      <point x="954.0210526315789" y="491.34736842105264" type="line"/>
      <point x="971.7052631578947" y="335.41052631578947"/>
      <point x="988.4631578947369" y="160.4"/>
      <point x="990.2947368421054" y="0.0" type="curve"/>
      <point x="1266.9894736842107" y="0.0" type="line"/>
      <point x="1236.1684210526314" y="150.0"/>
      <point x="1203.3473684210526" y="326.0"/>
      <point x="1181.9157894736843" y="482.7157894736842" type="curve"/>
      <point x="1115.978947368421" y="973.1789473684211" type="line"/>
      <point x="1092.5473684210526" y="1148.0"/>
      <point x="1080.3999999999999" y="1281.0736842105262"/>
      <point x="1077.178947368421" y="1426.0" type="curve"/>
      <point x="722.5052631578948" y="1426.0" type="line"/>
      <point x="654.1052631578948" y="1276.3578947368421"/>
      <point x="584.3157894736842" y="1143.178947368421"/>
      <point x="490.0631578947368" y="973.5368421052632" type="curve"/>
      <point x="218.58947368421053" y="486.0" type="line"/>
      <point x="132.33684210526317" y="332.0"/>
      <point x="28.4421052631579" y="152.35789473684213"/>
    </contour>
    <contour>
      <point x="314.29473684210524" y="334.5684210526316" type="line"/>
      <point x="1045.1789473684212" y="334.5684210526316" type="line"/>
      <point x="1063.7473684210527" y="517.7263157894737" type="line"/>
      <point x="374.7368421052631" y="517.7263157894737" type="line"/>
    </contour>
  </outline>
</glyph>
<glyph name="B" format="2">
  <advance width="1308.1379310344828"/>
  <unicode hex="0042"/>
  <outline>
    <contour>
      <point x="576.2068965517242" y="-9.172413793103448" type="curve"/>
      <point x="1031.0344827586207" y="-9.172413793103448"/>
      <point x="1159.8620689655174" y="136.41379310344828"/>
      <point x="1207.2413793103449" y="356.34482758620686" type="curve" smooth="yes"/>
      <point x="1251.448275862069" y="569.3793103448277"/>
      <point x="1134.2068965517244" y="688.551724137931"/>
      <point x="998.2758620689656" y="732.5517241379309" type="curve"/>
      <point x="1002.2758620689656" y="753.5172413793103" type="line"/>
      <point x="1157.6551724137933" y="792.5517241379309"/>
      <point x="1272.8275862068967" y="866.4137931034483"/>
      <point x="1310.6206896551726" y="1044.0" type="curve" smooth="yes"/>
      <point x="1353.034482758621" y="1251.8620689655174"/>
      <point x="1247.9310344827586" y="1433.3793103448277"/>
      <point x="870.8965517241379" y="1433.3793103448277" type="curve"/>
      <point x="678.551724137931" y="1433.3793103448277"/>
      <point x="501.3103448275861" y="1426.0"/>
      <point x="348.34482758620686" y="1426.0" type="curve"/>
      <point x="327.3103448275862" y="1267.5862068965516"/>
      <point x="304.68965517241384" y="1129.3793103448277"/>
      <point x="266.6896551724138" y="946.0" type="curve"/>
      <point x="164.89655172413794" y="468.82758620689657" type="line"/>
      <point x="127.10344827586206" y="291.2413793103448"/>
      <point x="93.51724137931033" y="156.6206896551724"/>
      <point x="48.34482758620689" y="0.0" type="curve"/>
      <point x="155.37931034482753" y="0.0"/>
      <point x="354.13793103448273" y="-9.172413793103448"/>
    </contour>
    <contour>
      <point x="349.5172413793103" y="194.6896551724138" type="line"/>
      <point x="366.34482758620686" y="294.82758620689657"/>
      <point x="385.17241379310343" y="393.9310344827586"/>
      <point x="411.7931034482758" y="519.0344827586207" type="curve"/>
      <point x="492.06896551724134" y="898.0" type="line"/>
      <point x="518.6896551724137" y="1024.896551724138"/>
      <point x="541.3103448275862" y="1122.2068965517242"/>
      <point x="571.5172413793103" y="1231.3103448275863" type="curve"/>
      <point x="843.3793103448276" y="1231.3103448275863" type="line" smooth="yes"/>
      <point x="1011.8620689655171" y="1231.3103448275863"/>
      <point x="1087.793103448276" y="1155.1724137931035"/>
      <point x="1060.1379310344828" y="1021.5172413793103" type="curve" smooth="yes"/>
      <point x="1034.8965517241381" y="900.1379310344828"/>
      <point x="929.7931034482758" y="813.3793103448276"/>
      <point x="737.655172413793" y="813.3793103448276" type="curve" smooth="yes"/>
      <point x="416.7586206896551" y="813.3793103448276" type="line"/>
      <point x="377.6551724137931" y="626.0689655172414" type="line"/>
      <point x="710.551724137931" y="626.0689655172414" type="line" smooth="yes"/>
      <point x="902.2068965517241" y="626.0689655172414"/>
      <point x="997.3793103448276" y="540.3448275862069"/>
      <point x="965.7241379310344" y="391.44827586206895" type="curve" smooth="yes"/>
      <point x="936.4827586206897" y="252.62068965517238"/>
      <point x="833.9310344827586" y="194.6896551724138"/>
      <point x="600.8965517241379" y="194.6896551724138" type="curve" smooth="yes"/>
    </contour>
  </outline>
</glyph>
<glyph name="C" format="2">
  <advance width="1368.4842105263158"/>
  <unicode hex="0043"/>
  <anchor x="691.1999999999999" y="0.0" name="bottom"/>
  <anchor x="979.4105263157894" y="1426.0" name="top"/>
  <outline>
    <contour>
      <point x="766.6947368421053" y="-23.74736842105263" type="curve" smooth="yes"/>
      <point x="905.6210526315789" y="-23.74736842105263"/>
      <point x="1062.0842105263157" y="16.25263157894737"/>
      <point x="1172.8" y="64.7578947368421" type="curve"/>
      <point x="1206.3578947368421" y="302.65263157894736" type="line"/>
      <point x="1078.6105263157897" y="223.36842105263156"/>
      <point x="921.578947368421" y="177.7263157894737"/>
      <point x="802.4631578947369" y="177.7263157894737" type="curve"/>
      <point x="455.0315789473684" y="184.54736842105262"/>
      <point x="329.2631578947369" y="470.4"/>
      <point x="392.021052631579" y="767.9368421052632" type="curve" smooth="yes"/>
      <point x="462.42105263157896" y="1101.3263157894737"/>
      <point x="684.3368421052631" y="1239.2421052631578"/>
      <point x="947.1368421052632" y="1246.0631578947368" type="curve"/>
      <point x="1023.4947368421051" y="1246.0631578947368"/>
      <point x="1184.4631578947367" y="1208.421052631579"/>
      <point x="1384.2105263157894" y="1115.8526315789475" type="curve"/>
      <point x="1451.7263157894736" y="1345.4947368421053" type="line"/>
      <point x="1331.2631578947369" y="1390.2105263157894"/>
      <point x="1140.9052631578948" y="1453.2842105263157"/>
      <point x="970.021052631579" y="1453.2842105263157" type="curve" smooth="yes"/>
      <point x="529.0736842105264" y="1453.2842105263157"/>
      <point x="239.85263157894735" y="1227.2842105263157"/>
      <point x="150.67368421052632" y="801.2842105263159" type="curve" smooth="yes"/>
      <point x="59.38947368421053" y="368.0421052631579"/>
      <point x="277.81052631578945" y="-23.74736842105263"/>
    </contour>
  </outline>
</glyph>
<glyph name="D" format="2">
  <advance width="1474.7157894736843"/>
  <unicode hex="0044"/>
  <anchor x="599.2842105263157" y="0.0" name="bottom"/>
  <anchor x="784.5368421052632" y="714.0" name="center"/>
  <anchor x="899.2842105263157" y="1426.0" name="top"/>
  <outline>
    <contour>
      <point x="48.778947368421065" y="0.0" type="curve"/>
      <point x="221.6" y="0.0"/>
      <point x="373.2631578947368" y="-8.568421052631578"/>
      <point x="576.357894736842" y="-8.568421052631578" type="curve"/>
      <point x="1121.3473684210526" y="-8.568421052631578"/>
      <point x="1337.4526315789474" y="258.82105263157894"/>
      <point x="1421.8105263157895" y="664.3578947368421" type="curve" smooth="yes"/>
      <point x="1506.6315789473686" y="1075.3894736842105"/>
      <point x="1297.3473684210526" y="1432.9263157894736"/>
      <point x="836.1263157894737" y="1432.9263157894736" type="curve"/>
      <point x="667.7894736842105" y="1432.9263157894736"/>
      <point x="507.4947368421052" y="1426.0"/>
      <point x="348.7789473684211" y="1426.0" type="curve"/>
      <point x="327.8105263157895" y="1267.2842105263157"/>
      <point x="305.5578947368421" y="1129.7473684210527"/>
      <point x="266.7368421052632" y="946.8210526315789" type="curve"/>
      <point x="165.09473684210528" y="468.61052631578946" type="line"/>
      <point x="128.2736842105263" y="291.3263157894737"/>
      <point x="94.16842105263159" y="156.25263157894736"/>
    </contour>
    <contour>
      <point x="354.0" y="195.01052631578946" type="line"/>
      <point x="370.61052631578946" y="297.34736842105264"/>
      <point x="390.04210526315785" y="397.89473684210526"/>
      <point x="416.29473684210524" y="522.8" type="curve"/>
      <point x="495.76842105263154" y="899.0947368421052" type="line"/>
      <point x="522.8421052631578" y="1027.284210526316"/>
      <point x="546.7368421052631" y="1126.1894736842105"/>
      <point x="573.8105263157895" y="1230.9894736842105" type="curve"/>
      <point x="779.0736842105263" y="1230.9894736842105" type="line"/>
      <point x="1126.0210526315789" y="1222.5263157894735"/>
      <point x="1239.5789473684213" y="979.6"/>
      <point x="1177.1789473684212" y="689.0315789473684" type="curve" smooth="yes"/>
      <point x="1114.421052631579" y="390.77894736842103"/>
      <point x="983.1157894736841" y="204.29473684210527"/>
      <point x="596.4210526315788" y="195.01052631578946" type="curve"/>
    </contour>
  </outline>
</glyph>
<glyph name="E" format="2">
  <advance width="1191.8620689655174"/>
  <unicode hex="0045"/>
  <anchor x="520.7586206896551" y="0.0" name="bottom"/>
  <anchor x="976.2068965517242" y="0.0" name="ogonek"/>
  <anchor x="820.7586206896551" y="1426.0" name="top"/>
  <anchor x="269.10344827586204" y="1426.0" name="topleft"/>
  <outline>
    <contour>
      <point x="48.34482758620689" y="0.0" type="curve"/>
      <point x="319.58620689655174" y="0.0" type="line"/>
      <point x="328.7586206896552" y="36.689655172413794" type="line"/>
      <point x="346.0" y="193.31034482758622"/>
      <point x="370.41379310344826" y="327.7241379310345"/>
      <point x="408.41379310344826" y="505.51724137931035" type="curve"/>
      <point x="493.8620689655172" y="913.5172413793103" type="line"/>
      <point x="531.6551724137931" y="1094.896551724138"/>
      <point x="567.2413793103449" y="1231.103448275862"/>
      <point x="612.4137931034483" y="1389.5172413793102" type="curve"/>
      <point x="619.5862068965517" y="1426.0" type="line"/>
      <point x="348.3448275862069" y="1426.0" type="line"/>
      <point x="327.3103448275863" y="1267.5862068965516"/>
      <point x="304.6896551724138" y="1129.3793103448277"/>
      <point x="266.68965517241384" y="946.0" type="curve"/>
      <point x="164.89655172413794" y="468.82758620689657" type="line"/>
      <point x="127.10344827586206" y="291.2413793103448"/>
      <point x="93.51724137931033" y="156.6206896551724"/>
    </contour>
    <contour>
      <point x="272.89655172413796" y="0.0" type="line"/>
      <point x="979.7931034482759" y="0.0" type="line"/>
      <point x="1027.8620689655172" y="222.41379310344828" type="line"/>
      <point x="884.6206896551724" y="205.6551724137931"/>
      <point x="736.7586206896552" y="201.86206896551724"/>
      <point x="568.6896551724138" y="201.86206896551724" type="curve"/>
      <point x="315.58620689655174" y="201.86206896551724" type="line"/>
    </contour>
    <contour>
      <point x="377.6551724137931" y="624.0689655172414" type="line"/>
      <point x="647.7241379310344" y="624.0689655172414" type="line"/>
      <point x="823.1724137931035" y="624.0689655172414"/>
      <point x="942.0" y="622.2758620689656"/>
      <point x="1069.2413793103447" y="614.8965517241379" type="curve"/>
      <point x="1115.5172413793105" y="831.9310344827586" type="line"/>
      <point x="990.8965517241379" y="820.5517241379309"/>
      <point x="870.0689655172415" y="818.7586206896551"/>
      <point x="690.6206896551724" y="818.7586206896551" type="curve"/>
      <point x="418.551724137931" y="818.7586206896551" type="line"/>
    </contour>
    <contour>
      <point x="515.8620689655172" y="1224.1379310344828" type="line"/>
      <point x="764.5517241379312" y="1224.1379310344828" type="line"/>
      <point x="964.8275862068966" y="1224.1379310344828"/>
      <point x="1102.4827586206898" y="1218.5517241379312"/>
      <point x="1230.137931034483" y="1203.5862068965519" type="curve"/>
      <point x="1276.4137931034484" y="1426.0" type="line"/>
      <point x="558.5517241379309" y="1426.0" type="line"/>
    </contour>
  </outline>
</glyph>
<glyph name="F" format="2">
  <advance width="1154.3157894736842"/>
  <unicode hex="0046"/>
  <outline>
    <contour>
      <point x="48.778947368421065" y="0.0" type="curve"/>
      <point x="320.65263157894736" y="0.0" type="line"/>
      <point x="339.6210526315789" y="156.25263157894736"/>
      <point x="361.8736842105263" y="288.96842105263164"/>
      <point x="399.8736842105263" y="468.61052631578946" type="curve"/>
      <point x="494.12631578947367" y="912.8" type="line"/>
      <point x="531.7684210526315" y="1094.5473684210526"/>
      <point x="567.8736842105263" y="1230.9052631578948"/>
      <point x="614.0842105263158" y="1389.621052631579" type="curve"/>
      <point x="620.6526315789474" y="1426.0" type="line"/>
      <point x="348.7789473684211" y="1426.0" type="line"/>
      <point x="327.8105263157895" y="1267.2842105263157"/>
      <point x="305.5578947368421" y="1129.7473684210527"/>
      <point x="266.7368421052632" y="946.8210526315789" type="curve"/>
      <point x="165.09473684210528" y="468.61052631578946" type="line"/>
      <point x="128.2736842105263" y="291.3263157894737"/>
      <point x="94.16842105263159" y="156.25263157894736"/>
    </contour>
    <contour>
      <point x="371.4736842105263" y="610.2526315789473" type="line"/>
      <point x="629.6210526315789" y="610.2526315789473" type="line"/>
      <point x="805.3052631578947" y="610.2526315789473"/>
      <point x="923.0947368421052" y="608.6105263157895"/>
      <point x="1050.421052631579" y="600.0421052631579" type="curve"/>
      <point x="1096.442105263158" y="818.6526315789474" type="line"/>
      <point x="973.0105263157894" y="806.9052631578948"/>
      <point x="852.4" y="805.2631578947369"/>
      <point x="671.8947368421052" y="805.2631578947369" type="curve"/>
      <point x="412.56842105263155" y="805.2631578947369" type="line"/>
    </contour>
    <contour>
      <point x="513.1157894736842" y="1223.6" type="line"/>
      <point x="749.5157894736842" y="1223.6" type="line"/>
      <point x="949.8105263157895" y="1223.6"/>
      <point x="1087.0315789473684" y="1217.494736842105"/>
      <point x="1215.0736842105264" y="1204.1052631578946" type="curve"/>
      <point x="1261.0947368421052" y="1426.0" type="line"/>
      <point x="555.8526315789474" y="1426.0" type="line"/>
    </contour>
  </outline>
</glyph>
<glyph name="G" format="2">
  <advance width="1462.2736842105264"/>
  <unicode hex="0047"/>
  <anchor x="691.1999999999999" y="0.0" name="bottom"/>
  <anchor x="991.1999999999999" y="1426.0" name="top"/>
  <outline>
    <contour>
      <point x="801.5157894736842" y="-22.926315789473684" type="curve" smooth="yes"/>
      <point x="943.7684210526314" y="-22.926315789473684"/>
      <point x="1140.6526315789474" y="19.431578947368422"/>
      <point x="1252.2947368421055" y="53.11578947368421" type="curve"/>
      <point x="1254.042105263158" y="278.0842105263158" type="line"/>
      <point x="1103.9368421052632" y="205.62105263157892"/>
      <point x="969.8947368421052" y="173.62105263157895"/>
      <point x="815.8315789473685" y="173.62105263157895" type="curve"/>
      <point x="447.24210526315795" y="180.44210526315788"/>
      <point x="325.9789473684211" y="465.4736842105263"/>
      <point x="390.37894736842105" y="769.5789473684212" type="curve" smooth="yes"/>
      <point x="462.77894736842103" y="1110.1473684210525"/>
      <point x="695.1157894736841" y="1240.0631578947368"/>
      <point x="952.9894736842105" y="1246.0631578947368" type="curve"/>
      <point x="1033.3473684210528" y="1246.0631578947368"/>
      <point x="1204.3157894736844" y="1204.8842105263157"/>
      <point x="1416.8842105263159" y="1101.705263157895" type="curve"/>
      <point x="1484.3999999999999" y="1330.526315789474" type="line"/>
      <point x="1351.8315789473684" y="1381.1368421052632"/>
      <point x="1144.5473684210524" y="1453.2842105263157"/>
      <point x="956.7368421052631" y="1453.2842105263157" type="curve" smooth="yes"/>
      <point x="527.0315789473684" y="1453.2842105263157"/>
      <point x="241.49473684210525" y="1231.494736842105"/>
      <point x="150.67368421052632" y="801.2842105263159" type="curve" smooth="yes"/>
      <point x="59.852631578947374" y="370.71578947368425"/>
      <point x="262.77894736842103" y="-22.926315789473684"/>
    </contour>
    <contour>
      <point x="1005.4105263157895" y="53.11578947368422" type="curve"/>
      <point x="1252.2947368421055" y="53.11578947368421" type="line"/>
      <point x="1273.3684210526317" y="194.96842105263158"/>
      <point x="1292.1894736842107" y="297.53684210526313"/>
      <point x="1314.6526315789474" y="405.7473684210526" type="curve"/>
      <point x="1341.4736842105265" y="533.1368421052632"/>
      <point x="1367.221052631579" y="622.8842105263158"/>
      <point x="1401.0736842105264" y="724.2736842105263" type="curve"/>
      <point x="1135.8736842105263" y="724.2736842105263" type="line"/>
      <point x="1128.442105263158" y="622.8842105263158"/>
      <point x="1115.7263157894738" y="533.1368421052632"/>
      <point x="1088.9052631578948" y="405.7473684210526" type="curve"/>
      <point x="1066.442105263158" y="297.53684210526313"/>
      <point x="1042.336842105263" y="194.96842105263158"/>
    </contour>
  </outline>
</glyph>
<glyph name="H" format="2">
  <advance width="1509.0315789473684"/>
  <unicode hex="0048"/>
  <anchor x="650.1052631578947" y="0.0" name="bottom"/>
  <anchor x="800.1052631578947" y="714.0" name="center"/>
  <anchor x="950.1052631578947" y="1426.0" name="top"/>
  <anchor x="272.9263157894737" y="1426.0" name="topleft"/>
  <outline>
    <contour>
      <point x="973.8105263157895" y="0.0" type="curve"/>
      <point x="1250.6105263157892" y="0.0" type="line"/>
      <point x="1269.578947368421" y="156.25263157894736"/>
      <point x="1291.8315789473686" y="288.96842105263164"/>
      <point x="1329.8315789473684" y="468.61052631578946" type="curve"/>
      <point x="1431.4736842105262" y="946.8210526315789" type="line"/>
      <point x="1470.2947368421053" y="1129.7473684210527"/>
      <point x="1504.3999999999999" y="1267.2842105263157"/>
      <point x="1550.6105263157895" y="1426.0" type="curve"/>
      <point x="1273.8105263157893" y="1426.0" type="line"/>
      <point x="1252.842105263158" y="1267.2842105263157"/>
      <point x="1230.5894736842106" y="1129.7473684210527"/>
      <point x="1191.7684210526315" y="946.8210526315789" type="curve"/>
      <point x="1090.1263157894737" y="468.61052631578946" type="line"/>
      <point x="1053.3052631578948" y="291.3263157894737"/>
      <point x="1019.2" y="156.25263157894736"/>
    </contour>
    <contour>
      <point x="48.778947368421065" y="0.0" type="curve"/>
      <point x="325.57894736842104" y="0.0" type="line"/>
      <point x="344.5473684210526" y="156.25263157894736"/>
      <point x="366.79999999999995" y="288.96842105263164"/>
      <point x="404.8" y="468.61052631578946" type="curve"/>
      <point x="506.4421052631579" y="946.8210526315789" type="line"/>
      <point x="545.2631578947368" y="1129.7473684210527"/>
      <point x="579.3684210526316" y="1267.2842105263157"/>
      <point x="625.578947368421" y="1426.0" type="curve"/>
      <point x="348.7789473684211" y="1426.0" type="line"/>
      <point x="327.8105263157895" y="1267.2842105263157"/>
      <point x="305.5578947368421" y="1129.7473684210527"/>
      <point x="266.7368421052632" y="946.8210526315789" type="curve"/>
      <point x="165.09473684210528" y="468.61052631578946" type="line"/>
      <point x="128.2736842105263" y="291.3263157894737"/>
      <point x="94.16842105263159" y="156.25263157894736"/>
    </contour>
    <contour>
      <point x="362.0" y="619.2842105263157" type="line"/>
      <point x="1201.3684210526314" y="619.2842105263157" type="line"/>
      <point x="1244.9263157894736" y="821.6842105263158" type="line"/>
      <point x="405.5578947368421" y="821.6842105263158" type="line"/>
    </contour>
  </outline>
</glyph>
<glyph name="I" format="2">
  <advance width="596.3157894736843"/>
  <unicode hex="0049"/>
  <anchor x="189.0526315789474" y="0.0" name="bottom"/>
  <anchor x="329.6842105263158" y="0.0" name="ogonek"/>
  <anchor x="489.0526315789474" y="1426.0" name="top"/>
  <anchor x="264.2526315789474" y="1426.0" name="topleft"/>
  <outline>
    <contour>
      <point x="52.884210526315805" y="0.0" type="curve"/>
      <point x="333.7894736842105" y="0.0" type="line"/>
      <point x="352.75789473684205" y="156.25263157894736"/>
      <point x="375.01052631578943" y="288.96842105263164"/>
      <point x="413.01052631578943" y="468.61052631578946" type="curve"/>
      <point x="514.6526315789473" y="946.8210526315789" type="line"/>
      <point x="553.4736842105262" y="1129.7473684210527"/>
      <point x="587.578947368421" y="1267.2842105263157"/>
      <point x="633.7894736842105" y="1426.0" type="curve"/>
      <point x="352.8842105263158" y="1426.0" type="line"/>
      <point x="331.91578947368424" y="1267.2842105263157"/>
      <point x="309.66315789473686" y="1129.7473684210527"/>
      <point x="270.8421052631579" y="946.8210526315789" type="curve"/>
      <point x="169.20000000000002" y="468.61052631578946" type="line"/>
      <point x="132.37894736842105" y="291.3263157894737"/>
      <point x="98.27368421052633" y="156.25263157894736"/>
    </contour>
  </outline>
</glyph>
<glyph name="J" format="2">
  <advance width="612.6105263157895"/>
  <unicode hex="004A"/>
  <anchor x="207.45263157894738" y="0.0" name="bottom"/>
  <anchor x="507.4526315789474" y="1426.0" name="top"/>
  <outline>
    <contour>
      <point x="-158.73684210526318" y="-313.4315789473684" type="curve"/>
      <point x="101.97894736842106" y="-313.4315789473684" type="line"/>
      <point x="195.62105263157892" y="-221.78947368421052"/>
      <point x="327.2631578947368" y="-78.96842105263158"/>
      <point x="371.7263157894737" y="130.88421052631577" type="curve" smooth="yes"/>
      <point x="403.8315789473684" y="282.2315789473684"/>
      <point x="424.08421052631576" y="444.4"/>
      <point x="461.36842105263156" y="620.8210526315789" type="curve"/>
      <point x="530.9473684210526" y="946.8210526315789" type="line"/>
      <point x="569.7684210526315" y="1129.7473684210527"/>
      <point x="603.8736842105263" y="1267.2842105263157"/>
      <point x="650.0842105263158" y="1426.0" type="curve"/>
      <point x="373.2842105263158" y="1426.0" type="line"/>
      <point x="352.3157894736842" y="1267.2842105263157"/>
      <point x="330.06315789473683" y="1129.7473684210527"/>
      <point x="291.2421052631579" y="946.8210526315789" type="curve"/>
      <point x="213.41052631578947" y="581.9157894736842" type="line"/>
      <point x="119.81052631578949" y="144.2736842105263" type="line"/>
      <point x="82.63157894736841" y="-30.4421052631579"/>
      <point x="-24.48421052631578" y="-179.93684210526317"/>
    </contour>
  </outline>
</glyph>
<glyph name="K" format="2">
  <advance width="1367.7894736842106"/>
  <unicode hex="004B"/>
  <anchor x="595.3052631578947" y="0.0" name="bottom"/>
  <anchor x="895.3052631578947" y="1426.0" name="top"/>
  <outline>
    <contour>
      <point x="915.978947368421" y="0.0" type="curve"/>
      <point x="1232.2736842105262" y="0.0" type="line"/>
      <point x="1133.0526315789475" y="122.10526315789474"/>
      <point x="993.0736842105264" y="322.88421052631577"/>
      <point x="892.1684210526315" y="472.7368421052632" type="curve"/>
      <point x="671.9999999999999" y="798.9052631578948" type="line"/>
      <point x="672.7157894736841" y="689.0105263157894" type="line"/>
      <point x="982.7368421052631" y="973.6842105263158" type="line"/>
      <point x="1148.1052631578946" y="1123.0736842105264"/>
      <point x="1312.6526315789472" y="1272.0"/>
      <point x="1498.4842105263156" y="1426.0" type="curve"/>
      <point x="1158.4421052631578" y="1426.0" type="line"/>
      <point x="1021.7684210526317" y="1283.242105263158"/>
      <point x="917.5368421052631" y="1181.4526315789474"/>
      <point x="797.4105263157894" y="1070.5894736842106" type="curve"/>
      <point x="540.5473684210526" y="834.9684210526316" type="line"/>
      <point x="459.0105263157895" y="834.9684210526316" type="line"/>
      <point x="418.7368421052632" y="643.2421052631579" type="line"/>
      <point x="502.37894736842105" y="643.2421052631579" type="line"/>
      <point x="692.421052631579" y="359.1578947368421" type="line"/>
      <point x="766.2947368421052" y="249.83157894736843"/>
      <point x="839.3473684210526" y="137.3263157894737"/>
    </contour>
    <contour>
      <point x="48.778947368421065" y="0.0" type="curve"/>
      <point x="324.7578947368421" y="0.0" type="line"/>
      <point x="343.72631578947363" y="156.25263157894736"/>
      <point x="365.978947368421" y="288.96842105263164"/>
      <point x="403.978947368421" y="468.61052631578946" type="curve"/>
      <point x="505.62105263157895" y="946.8210526315789" type="line"/>
      <point x="544.4421052631578" y="1129.7473684210527"/>
      <point x="578.5473684210526" y="1267.2842105263157"/>
      <point x="624.7578947368421" y="1426.0" type="curve"/>
      <point x="348.7789473684211" y="1426.0" type="line"/>
      <point x="327.8105263157895" y="1267.2842105263157"/>
      <point x="305.5578947368421" y="1129.7473684210527"/>
      <point x="266.7368421052632" y="946.8210526315789" type="curve"/>
      <point x="165.09473684210528" y="468.61052631578946" type="line"/>
      <point x="128.2736842105263" y="291.3263157894737"/>
      <point x="94.16842105263159" y="156.25263157894736"/>
    </contour>
  </outline>
</glyph>
<glyph name="L" format="2">
  <advance width="1142.6736842105263"/>
  <unicode hex="004C"/>
  <anchor x="515.9368421052632" y="0.0" name="bottom"/>
  <anchor x="905.3052631578947" y="716.4631578947368" name="center"/>
  <anchor x="620.7578947368421" y="1426.0" name="top"/>
  <anchor x="688.4421052631579" y="994.5684210526316" name="topright"/>
  <outline>
    <contour>
      <point x="48.778947368421065" y="0.0" type="curve"/>
      <point x="325.57894736842104" y="0.0" type="line"/>
      <point x="334.1473684210526" y="37.5578947368421" type="line"/>
      <point x="352.29473684210524" y="193.81052631578947"/>
      <point x="376.5473684210526" y="328.88421052631577"/>
      <point x="413.36842105263156" y="506.1684210526316" type="curve"/>
      <point x="506.4421052631579" y="946.8210526315789" type="line"/>
      <point x="545.2631578947368" y="1129.7473684210527"/>
      <point x="579.3684210526316" y="1267.2842105263157"/>
      <point x="625.578947368421" y="1426.0" type="curve"/>
      <point x="348.7789473684211" y="1426.0" type="line"/>
      <point x="327.8105263157895" y="1267.2842105263157"/>
      <point x="305.5578947368421" y="1129.7473684210527"/>
      <point x="266.7368421052632" y="946.8210526315789" type="curve"/>
      <point x="165.09473684210528" y="468.61052631578946" type="line"/>
      <point x="128.2736842105263" y="291.3263157894737"/>
      <point x="94.16842105263159" y="156.25263157894736"/>
    </contour>
    <contour>
      <point x="273.0947368421053" y="0.0" type="line"/>
      <point x="973.3473684210526" y="0.0" type="line"/>
      <point x="1022.6526315789473" y="235.85263157894738" type="line"/>
      <point x="869.4315789473683" y="218.35789473684213"/>
      <point x="741.3894736842104" y="210.61052631578949"/>
      <point x="521.6631578947367" y="210.61052631578949" type="curve"/>
      <point x="318.2947368421053" y="210.61052631578949" type="line"/>
    </contour>
  </outline>
</glyph>
<glyph name="M" format="2">
  <advance width="1917.2421052631578"/>
  <unicode hex="004D"/>
  <anchor x="853.3894736842105" y="0.0" name="bottom"/>
  <anchor x="1153.3894736842103" y="1426.0" name="top"/>
  <outline>
    <contour>
      <point x="-2.9052631578947317" y="0.0" type="curve"/>
      <point x="263.93684210526317" y="0.0" type="line"/>
      <point x="324.2736842105263" y="228.06315789473683"/>
      <point x="387.17894736842106" y="442.12631578947367"/>
      <point x="447.57894736842104" y="623.6842105263158" type="curve"/>
      <point x="576.7368421052631" y="1015.4105263157894" type="line"/>
      <point x="593.4105263157894" y="1015.4105263157894" type="line"/>
      <point x="672.9263157894736" y="591.1789473684211" type="line"/>
      <point x="708.1473684210525" y="394.5473684210526"/>
      <point x="738.6947368421053" y="170.2315789473684"/>
      <point x="759.3473684210526" y="0.0" type="curve"/>
      <point x="957.6421052631579" y="0.0" type="line"/>
      <point x="1053.7684210526315" y="177.66315789473683"/>
      <point x="1172.8631578947366" y="390.5473684210526"/>
      <point x="1291.3473684210526" y="593.5368421052632" type="curve"/>
      <point x="1538.2105263157894" y="1015.4105263157894" type="line"/>
      <point x="1554.8842105263157" y="1015.4105263157894" type="line"/>
      <point x="1519.915789473684" y="623.6842105263158" type="line"/>
      <point x="1504.0210526315789" y="442.12631578947367"/>
      <point x="1476.021052631579" y="230.77894736842106"/>
      <point x="1438.2736842105262" y="0.0" type="curve"/>
      <point x="1710.5052631578947" y="0.0" type="line"/>
      <point x="1713.4736842105262" y="155.43157894736842"/>
      <point x="1718.9052631578948" y="295.7894736842105"/>
      <point x="1734.0842105263157" y="468.61052631578946" type="curve"/>
      <point x="1775.6210526315788" y="945.1789473684211" type="line"/>
      <point x="1790.8" y="1119.536842105263"/>
      <point x="1808.9052631578948" y="1265.2842105263157"/>
      <point x="1832.6526315789474" y="1426.0" type="curve"/>
      <point x="1550.3157894736842" y="1426.0" type="line"/>
      <point x="1450.1894736842107" y="1233.8736842105263"/>
      <point x="1351.1368421052632" y="1063.4947368421053"/>
      <point x="1246.8" y="889.0105263157894" type="curve"/>
      <point x="938.9684210526316" y="374.37894736842105" type="line"/>
      <point x="921.9368421052632" y="374.37894736842105" type="line"/>
      <point x="826.8842105263158" y="889.0105263157894" type="line"/>
      <point x="795.2" y="1063.4947368421053"/>
      <point x="764.3368421052631" y="1236.3368421052633"/>
      <point x="747.3263157894737" y="1426.0" type="curve"/>
      <point x="473.5578947368421" y="1426.0" type="line"/>
      <point x="432.94736842105266" y="1263.2842105263157"/>
      <point x="388.58947368421053" y="1117.178947368421"/>
      <point x="330.58947368421053" y="945.1789473684211" type="curve"/>
      <point x="172.1263157894737" y="468.61052631578946" type="line"/>
      <point x="114.1263157894737" y="295.4315789473684"/>
      <point x="60.378947368421066" y="152.96842105263158"/>
    </contour>
  </outline>
</glyph>
<glyph name="N" format="2">
  <advance width="1517.8947368421052"/>
  <unicode hex="004E"/>
  <anchor x="653.1789473684211" y="0.0" name="bottom"/>
  <anchor x="953.1789473684211" y="1426.0" name="top"/>
  <outline>
    <contour>
      <point x="48.778947368421065" y="0.0" type="curve"/>
      <point x="311.62105263157895" y="0.0" type="line"/>
      <point x="330.5894736842105" y="156.25263157894736"/>
      <point x="352.84210526315786" y="288.96842105263164"/>
      <point x="390.84210526315786" y="468.61052631578946" type="curve"/>
      <point x="512.1894736842105" y="1045.3052631578948" type="line"/>
      <point x="530.0421052631579" y="1045.3052631578948" type="line"/>
      <point x="725.178947368421" y="635.7894736842105" type="line"/>
      <point x="840.9473684210525" y="393.57894736842104"/>
      <point x="931.2842105263159" y="193.76842105263157"/>
      <point x="1005.8736842105263" y="0.0" type="curve"/>
      <point x="1255.9368421052634" y="0.0" type="line"/>
      <point x="1274.9052631578948" y="156.25263157894736"/>
      <point x="1297.157894736842" y="288.96842105263164"/>
      <point x="1335.157894736842" y="468.61052631578946" type="curve"/>
      <point x="1436.8" y="946.8210526315789" type="line"/>
      <point x="1475.621052631579" y="1129.7473684210527"/>
      <point x="1509.7263157894736" y="1267.2842105263157"/>
      <point x="1555.9368421052632" y="1426.0" type="curve"/>
      <point x="1293.094736842105" y="1426.0" type="line"/>
      <point x="1272.1263157894737" y="1267.2842105263157"/>
      <point x="1249.8736842105263" y="1129.7473684210527"/>
      <point x="1211.0526315789473" y="946.8210526315789" type="curve"/>
      <point x="1091.3473684210526" y="385.41052631578947" type="line"/>
      <point x="1072.6736842105263" y="385.41052631578947" type="line"/>
      <point x="881.1789473684211" y="791.7473684210526" type="line"/>
      <point x="788.021052631579" y="989.0947368421051"/>
      <point x="697.4315789473684" y="1197.2631578947369"/>
      <point x="606.5894736842106" y="1426.0" type="curve"/>
      <point x="348.7789473684211" y="1426.0" type="line"/>
      <point x="327.8105263157895" y="1267.2842105263157"/>
      <point x="305.5578947368421" y="1129.7473684210527"/>
      <point x="266.7368421052632" y="946.8210526315789" type="curve"/>
      <point x="165.09473684210528" y="468.61052631578946" type="line"/>
      <point x="128.2736842105263" y="291.3263157894737"/>
      <point x="94.16842105263159" y="156.25263157894736"/>
    </contour>
  </outline>
</glyph>
<glyph name="P" format="2">
  <advance width="1274.689655172414"/>
  <unicode hex="0050"/>
  <outline>
    <contour>
      <point x="723.448275862069" y="537.5172413793103" type="curve"/>
      <point x="1106.5517241379312" y="537.5172413793103"/>
      <point x="1243.448275862069" y="686.8965517241379"/>
      <point x="1299.034482758621" y="957.7931034482759" type="curve" smooth="yes"/>
      <point x="1361.793103448276" y="1261.1724137931035"/>
      <point x="1208.0689655172416" y="1433.3793103448277"/>
      <point x="874.9655172413793" y="1433.3793103448277" type="curve"/>
      <point x="645.103448275862" y="1433.3793103448277"/>
      <point x="477.86206896551727" y="1426.0"/>
      <point x="348.3448275862069" y="1426.0" type="curve"/>
      <point x="538.1379310344828" y="1231.3103448275863" type="line"/>
      <point x="829.3103448275862" y="1231.3103448275863" type="line" smooth="yes"/>
      <point x="958.0689655172414" y="1231.3103448275863"/>
      <point x="1101.586206896552" y="1177.7241379310346"/>
      <point x="1057.3103448275865" y="969.5862068965516" type="curve" smooth="yes"/>
      <point x="1019.448275862069" y="791.6551724137931"/>
      <point x="928.896551724138" y="735.7931034482758"/>
      <point x="709.7241379310344" y="735.7931034482758" type="curve" smooth="yes"/>
      <point x="427.8620689655172" y="735.7931034482758" type="line"/>
      <point x="386.9655172413793" y="541.3103448275862" type="line"/>
      <point x="466.9655172413793" y="541.3103448275862"/>
      <point x="623.2413793103448" y="537.5172413793103"/>
    </contour>
    <contour>
      <point x="48.34482758620689" y="0.0" type="curve"/>
      <point x="323.1724137931035" y="0.0" type="line"/>
      <point x="342.2068965517242" y="156.6206896551724"/>
      <point x="363.0344827586207" y="289.0344827586207"/>
      <point x="401.0344827586207" y="468.82758620689657" type="curve"/>
      <point x="495.6551724137931" y="913.5172413793103" type="line"/>
      <point x="533.4482758620691" y="1094.896551724138"/>
      <point x="569.0344827586207" y="1231.103448275862"/>
      <point x="616.0" y="1389.5172413793102" type="curve"/>
      <point x="348.3448275862069" y="1426.0" type="line"/>
      <point x="327.3103448275863" y="1267.5862068965516"/>
      <point x="304.6896551724138" y="1129.3793103448277"/>
      <point x="266.68965517241384" y="946.0" type="curve"/>
      <point x="164.89655172413794" y="468.82758620689657" type="line"/>
      <point x="127.10344827586206" y="291.2413793103448"/>
      <point x="93.51724137931033" y="156.6206896551724"/>
    </contour>
  </outline>
</glyph>
<glyph name="R" format="2">
  <advance width="1365.103448275862"/>
  <unicode hex="0052"/>
  <anchor x="578.2068965517242" y="0.0" name="bottom"/>
  <anchor x="874.2758620689656" y="1426.0" name="top"/>
  <outline>
    <contour>
      <point x="919.1724137931035" y="0.0" type="curve"/>
      <point x="1224.5517241379312" y="0.0" type="line"/>
      <point x="1153.310344827586" y="108.20689655172414"/>
      <point x="1053.448275862069" y="279.37931034482756"/>
      <point x="983.1724137931035" y="410.9655172413793" type="curve"/>
      <point x="828.6206896551723" y="694.551724137931" type="line"/>
      <point x="729.5862068965516" y="595.7931034482758" type="line"/>
      <point x="1100.8965517241381" y="593.5862068965517"/>
      <point x="1241.793103448276" y="735.5862068965517"/>
      <point x="1293.5862068965519" y="982.3448275862067" type="curve" smooth="yes"/>
      <point x="1352.5517241379312" y="1260.9655172413793"/>
      <point x="1195.2413793103447" y="1433.3793103448277"/>
      <point x="860.3448275862069" y="1433.3793103448277" type="curve"/>
      <point x="657.3793103448277" y="1433.3793103448277"/>
      <point x="488.62068965517244" y="1426.0"/>
      <point x="348.3448275862069" y="1426.0" type="curve"/>
      <point x="489.7241379310345" y="1231.3103448275863" type="line"/>
      <point x="816.4827586206897" y="1231.3103448275863" type="line" smooth="yes"/>
      <point x="945.2413793103448" y="1231.3103448275863"/>
      <point x="1086.7586206896553" y="1184.6896551724137"/>
      <point x="1044.689655172414" y="985.1724137931035" type="curve" smooth="yes"/>
      <point x="1003.2413793103448" y="791.9310344827586"/>
      <point x="905.3103448275862" y="741.448275862069"/>
      <point x="693.3103448275862" y="741.448275862069" type="curve" smooth="yes"/>
      <point x="413.51724137931035" y="741.448275862069" type="line"/>
      <point x="372.6206896551724" y="546.9655172413793" type="line"/>
      <point x="713.3793103448276" y="546.9655172413793" type="line"/>
      <point x="592.4827586206897" y="676.551724137931" type="line"/>
      <point x="768.4137931034483" y="327.7241379310345" type="line"/>
      <point x="819.7241379310344" y="226.06896551724137"/>
      <point x="871.0344827586207" y="120.62068965517243"/>
    </contour>
    <contour>
      <point x="48.34482758620689" y="0.0" type="curve"/>
      <point x="323.1724137931035" y="0.0" type="line"/>
      <point x="342.2068965517242" y="156.6206896551724"/>
      <point x="363.0344827586207" y="289.0344827586207"/>
      <point x="401.0344827586207" y="468.82758620689657" type="curve"/>
      <point x="495.6551724137931" y="913.5172413793103" type="line"/>
      <point x="533.448275862069" y="1094.896551724138"/>
      <point x="569.0344827586207" y="1231.103448275862"/>
      <point x="616.0" y="1389.5172413793102" type="curve"/>
      <point x="348.3448275862069" y="1426.0" type="line"/>
      <point x="327.3103448275863" y="1267.5862068965516"/>
      <point x="304.6896551724138" y="1129.3793103448277"/>
      <point x="266.68965517241384" y="946.0" type="curve"/>
      <point x="164.89655172413794" y="468.82758620689657" type="line"/>
      <point x="127.10344827586206" y="291.2413793103448"/>
      <point x="93.51724137931033" y="156.6206896551724"/>
    </contour>
  </outline>
</glyph>
<glyph name="S" format="2">
  <advance width="1184.0689655172414"/>
  <unicode hex="0053"/>
  <anchor x="492.7586206896552" y="0.0" name="bottom"/>
  <anchor x="792.7586206896552" y="1426.0" name="top"/>
  <outline>
    <contour>
      <point x="544.9655172413792" y="-23.379310344827587" type="curve" smooth="yes"/>
      <point x="872.4137931034483" y="-23.379310344827587"/>
      <point x="1029.793103448276" y="97.44827586206897"/>
      <point x="1080.9655172413793" y="341.3103448275862" type="curve" smooth="yes"/>
      <point x="1122.5517241379312" y="539.4482758620691"/>
      <point x="1040.7586206896551" y="678.2068965517242"/>
      <point x="731.7241379310344" y="807.0344827586207" type="curve" smooth="yes"/>
      <point x="514.4827586206897" y="898.3448275862069"/>
      <point x="444.0" y="967.3793103448276"/>
      <point x="471.2413793103448" y="1095.1724137931035" type="curve" smooth="yes"/>
      <point x="497.10344827586204" y="1217.8620689655174"/>
      <point x="626.3448275862069" y="1247.3103448275863"/>
      <point x="751.9310344827586" y="1251.3103448275863" type="curve"/>
      <point x="822.1379310344827" y="1251.3103448275863"/>
      <point x="973.3103448275863" y="1209.7241379310346"/>
      <point x="1140.6896551724137" y="1121.3103448275863" type="curve"/>
      <point x="1206.1379310344826" y="1343.9310344827586" type="line"/>
      <point x="1092.758620689655" y="1383.1724137931035"/>
      <point x="891.5172413793103" y="1453.5862068965516"/>
      <point x="732.2068965517242" y="1453.5862068965516" type="curve" smooth="yes"/>
      <point x="432.3448275862069" y="1453.5862068965516"/>
      <point x="269.9310344827586" y="1334.8275862068965"/>
      <point x="224.55172413793102" y="1116.1379310344826" type="curve" smooth="yes"/>
      <point x="176.75862068965515" y="889.5862068965517"/>
      <point x="294.3448275862069" y="753.3103448275862"/>
      <point x="557.6551724137931" y="643.6551724137931" type="curve" smooth="yes"/>
      <point x="754.8275862068966" y="561.3793103448276"/>
      <point x="861.5172413793105" y="490.89655172413796"/>
      <point x="834.2758620689656" y="358.6896551724138" type="curve" smooth="yes"/>
      <point x="804.0000000000001" y="208.75862068965517"/>
      <point x="676.344827586207" y="181.10344827586206"/>
      <point x="545.1724137931034" y="177.10344827586206" type="curve"/>
      <point x="418.55172413793105" y="177.10344827586206"/>
      <point x="250.4137931034483" y="240.6896551724138"/>
      <point x="99.79310344827586" y="327.5172413793104" type="curve"/>
      <point x="35.93103448275862" y="110.27586206896552" type="line"/>
      <point x="147.93103448275863" y="61.6551724137931"/>
      <point x="326.4827586206897" y="-23.379310344827587"/>
    </contour>
  </outline>
</glyph>
<glyph name="T" format="2">
  <advance width="1285.4947368421053"/>
  <unicode hex="0054"/>
  <anchor x="540.9263157894737" y="0.0" name="bottom"/>
  <anchor x="680.2526315789474" y="666.378947368421" name="center"/>
  <anchor x="840.9263157894737" y="1426.0" name="top"/>
  <outline>
    <contour>
      <point x="402.2947368421052" y="0.0" type="curve"/>
      <point x="678.2736842105264" y="0.0" type="line"/>
      <point x="697.242105263158" y="156.25263157894736"/>
      <point x="719.4947368421052" y="288.96842105263164"/>
      <point x="757.4947368421053" y="468.61052631578946" type="curve"/>
      <point x="852.5684210526316" y="912.8" type="line"/>
      <point x="890.2105263157895" y="1094.5473684210526"/>
      <point x="926.3157894736842" y="1230.9052631578948"/>
      <point x="972.5263157894738" y="1389.621052631579" type="curve"/>
      <point x="979.0947368421054" y="1426.0" type="line"/>
      <point x="703.1157894736841" y="1426.0" type="line"/>
      <point x="695.3684210526314" y="1389.621052631579" type="line"/>
      <point x="676.4" y="1230.9052631578948"/>
      <point x="652.5052631578947" y="1093.3684210526317"/>
      <point x="613.6842105263157" y="912.8" type="curve"/>
      <point x="518.6105263157895" y="468.61052631578946" type="line"/>
      <point x="481.78947368421046" y="291.3263157894737"/>
      <point x="447.6842105263157" y="156.25263157894736"/>
    </contour>
    <contour>
      <point x="205.55789473684212" y="1190.1473684210528" type="line"/>
      <point x="317.8105263157895" y="1206.463157894737"/>
      <point x="434.42105263157896" y="1215.3894736842105"/>
      <point x="592.1052631578947" y="1215.3894736842105" type="curve"/>
      <point x="716.2526315789473" y="1215.3894736842105" type="line"/>
      <point x="760.6315789473684" y="1426.0" type="line"/>
      <point x="254.86315789473684" y="1426.0" type="line"/>
    </contour>
    <contour>
      <point x="874.8421052631578" y="1215.3894736842105" type="line"/>
      <point x="998.9894736842105" y="1215.3894736842105" type="line"/>
      <point x="1156.6736842105263" y="1215.3894736842105"/>
      <point x="1271.178947368421" y="1207.6421052631579"/>
      <point x="1375.6842105263158" y="1190.1473684210528" type="curve"/>
      <point x="1424.9894736842105" y="1426.0" type="line"/>
      <point x="919.2210526315789" y="1426.0" type="line"/>
    </contour>
  </outline>
</glyph>
<glyph name="V" format="2">
  <advance width="1395.1157894736841"/>
  <unicode hex="0056"/>
  <anchor x="594.7368421052631" y="0.0" name="bottom"/>
  <anchor x="894.7368421052631" y="1426.0" name="top"/>
  <outline>
    <contour>
      <point x="417.01052631578943" y="0.0" type="curve"/>
      <point x="775.4315789473684" y="0.0" type="line"/>
      <point x="841.4736842105264" y="145.17894736842106"/>
      <point x="931.5157894736842" y="318.71578947368425"/>
      <point x="1006.5894736842106" y="453.17894736842106" type="curve"/>
      <point x="1251.2421052631578" y="900.0" type="line"/>
      <point x="1335.8526315789472" y="1054.821052631579"/>
      <point x="1452.9263157894736" y="1258.4631578947367"/>
      <point x="1563.0315789473682" y="1426.0" type="curve"/>
      <point x="1244.3157894736842" y="1426.0" type="line"/>
      <point x="1154.1894736842103" y="1227.5578947368422"/>
      <point x="1044.421052631579" y="1002.4"/>
      <point x="943.2631578947368" y="806.3157894736843" type="curve"/>
      <point x="651.2210526315789" y="245.2421052631579" type="line"/>
      <point x="631.0105263157894" y="245.2421052631579" type="line"/>
      <point x="568.8421052631578" y="803.1368421052632" type="line"/>
      <point x="547.3684210526316" y="998.7578947368421"/>
      <point x="524.0" y="1229.915789473684"/>
      <point x="511.81052631578945" y="1426.0" type="curve"/>
      <point x="224.4421052631579" y="1426.0" type="line"/>
      <point x="266.18947368421055" y="1257.2842105263157"/>
      <point x="297.978947368421" y="1051.284210526316"/>
      <point x="317.76842105263154" y="898.8210526315789" type="curve"/>
      <point x="375.13684210526316" y="453.17894736842106" type="line"/>
      <point x="392.10526315789474" y="317.17894736842106"/>
      <point x="408.14736842105265" y="142.82105263157894"/>
    </contour>
  </outline>
</glyph>
<glyph name="W" format="2">
  <advance width="2057.1157894736843"/>
  <unicode hex="0057"/>
  <anchor x="920.2736842105263" y="0.0" name="bottom"/>
  <anchor x="1220.2736842105262" y="1426.0" name="top"/>
  <outline>
    <contour>
      <point x="326.7789473684211" y="0.0" type="curve"/>
      <point x="650.8631578947368" y="0.0" type="line"/>
      <point x="720.0210526315789" y="178.94736842105263"/>
      <point x="812.6105263157896" y="394.04210526315785"/>
      <point x="894.6947368421053" y="570.5263157894736" type="curve"/>
      <point x="1132.2315789473685" y="1086.1894736842105" type="line"/>
      <point x="1152.4421052631578" y="1086.1894736842105" type="line"/>
      <point x="1177.7052631578947" y="570.5263157894736" type="line"/>
      <point x="1185.8526315789475" y="392.4"/>
      <point x="1191.0736842105264" y="180.1263157894737"/>
      <point x="1191.4736842105262" y="0.0" type="curve"/>
      <point x="1526.5894736842106" y="0.0" type="line"/>
      <point x="1578.021052631579" y="137.64210526315787"/>
      <point x="1661.4526315789474" y="309.17894736842106"/>
      <point x="1731.3473684210526" y="451.17894736842106" type="curve"/>
      <point x="1950.6736842105263" y="900.0" type="line"/>
      <point x="2027.7473684210524" y="1058.3578947368421"/>
      <point x="2130.568421052632" y="1258.1052631578948"/>
      <point x="2230.673684210527" y="1426.0" type="curve"/>
      <point x="1916.0631578947368" y="1426.0" type="line"/>
      <point x="1840.5473684210526" y="1236.4842105263158"/>
      <point x="1744.778947368421" y="1013.1789473684211"/>
      <point x="1659.5157894736842" y="824.8421052631579" type="curve"/>
      <point x="1414.4421052631578" y="283.36842105263156" type="line"/>
      <point x="1394.2315789473685" y="283.36842105263156" type="line"/>
      <point x="1373.8947368421052" y="823.2" type="line"/>
      <point x="1366.2105263157894" y="1018.2526315789474"/>
      <point x="1361.8105263157895" y="1234.126315789474"/>
      <point x="1364.6947368421054" y="1426.0" type="curve"/>
      <point x="1069.957894736842" y="1426.0" type="line"/>
      <point x="993.9789473684209" y="1237.6631578947367"/>
      <point x="896.4631578947369" y="1010.3578947368421"/>
      <point x="813.9157894736842" y="826.021052631579" type="curve"/>
      <point x="569.4526315789474" y="283.36842105263156" type="line"/>
      <point x="549.2421052631579" y="283.36842105263156" type="line"/>
      <point x="530.2947368421053" y="814.9473684210526" type="line"/>
      <point x="523.0736842105263" y="1007.6421052631579"/>
      <point x="520.4210526315788" y="1234.947368421053"/>
      <point x="524.9473684210527" y="1426.0" type="curve"/>
      <point x="220.8" y="1426.0" type="line"/>
      <point x="251.47368421052633" y="1259.6421052631579"/>
      <point x="270.5473684210526" y="1053.6421052631579"/>
      <point x="282.44210526315794" y="894.1052631578947" type="curve"/>
      <point x="312.1263157894737" y="450.0" type="line"/>
      <point x="322.0210526315789" y="311.17894736842106"/>
      <point x="328.63157894736844" y="142.82105263157897"/>
    </contour>
  </outline>
</glyph>
<glyph name="Y" format="2">
  <advance width="1326.9684210526316"/>
  <unicode hex="0059"/>
  <anchor x="562.1263157894737" y="0.0" name="bottom"/>
  <anchor x="863.7684210526315" y="1426.0" name="top"/>
  <anchor x="235.17894736842106" y="1426.0" name="topleft"/>
  <outline>
    <contour>
      <point x="572.7368421052631" y="535.9578947368421" type="line"/>
      <point x="784.6315789473684" y="535.9578947368421" type="line"/>
      <point x="1205.957894736842" y="1076.5473684210526" type="line"/>
      <point x="1294.3157894736844" y="1190.3999999999999"/>
      <point x="1388.6736842105263" y="1307.7894736842106"/>
      <point x="1498.9894736842107" y="1426.0" type="curve"/>
      <point x="1168.6315789473688" y="1426.0" type="line"/>
      <point x="1057.3894736842108" y="1248.7368421052633"/>
      <point x="994.1263157894737" y="1156.8"/>
      <point x="888.3578947368421" y="1010.2526315789473" type="curve"/>
      <point x="727.9368421052632" y="788.8421052631579" type="line"/>
      <point x="708.5473684210526" y="788.8421052631579" type="line"/>
      <point x="635.2421052631579" y="1016.9684210526316" type="line"/>
      <point x="589.5157894736842" y="1157.9789473684211"/>
      <point x="565.578947368421" y="1245.2"/>
      <point x="523.0947368421052" y="1426.0" type="curve"/>
      <point x="224.33684210526317" y="1426.0" type="line"/>
      <point x="294.1894736842105" y="1288.9684210526316"/>
      <point x="335.01052631578943" y="1191.578947368421"/>
      <point x="376.90526315789475" y="1076.5473684210526" type="curve"/>
    </contour>
    <contour>
      <point x="425.13684210526316" y="0.0" type="curve"/>
      <point x="702.7578947368421" y="0.0" type="line"/>
      <point x="721.7263157894737" y="156.25263157894736"/>
      <point x="743.978947368421" y="288.96842105263164"/>
      <point x="781.978947368421" y="468.61052631578946" type="curve"/>
      <point x="838.8631578947368" y="736.5684210526316" type="line"/>
      <point x="598.3368421052631" y="736.5684210526316" type="line"/>
      <point x="541.4526315789474" y="468.61052631578946" type="line"/>
      <point x="504.6315789473684" y="291.3263157894737"/>
      <point x="470.52631578947364" y="156.25263157894736"/>
    </contour>
  </outline>
</glyph>
<glyph name="Z" format="2">
  <advance width="1354.9473684210527"/>
  <unicode hex="005A"/>
  <anchor x="573.2421052631579" y="0.0" name="bottom"/>
  <anchor x="723.2421052631579" y="714.0" name="center"/>
  <anchor x="873.2421052631579" y="1426.0" name="top"/>
  <outline>
    <contour>
      <point x="-15.347368421052632" y="0.0" type="line"/>
      <point x="1154.757894736842" y="0.0" type="line"/>
      <point x="1203.6000000000001" y="228.82105263157894" type="line"/>
      <point x="1046.1263157894737" y="207.32631578947368"/>
      <point x="797.0736842105263" y="201.57894736842104"/>
      <point x="627.3473684210526" y="201.57894736842104" type="curve"/>
      <point x="273.53684210526313" y="201.57894736842104" type="line"/>
      <point x="302.4631578947368" y="113.45263157894736" type="line"/>
      <point x="981.3052631578947" y="813.7263157894737" type="line"/>
      <point x="1122.2105263157896" y="960.6315789473684"/>
      <point x="1264.757894736842" y="1106.715789473684"/>
      <point x="1406.0210526315789" y="1238.484210526316" type="curve"/>
      <point x="1445.4736842105262" y="1426.0" type="line"/>
      <point x="302.4" y="1426.0" type="line"/>
      <point x="254.73684210526312" y="1195.0736842105264" type="line"/>
      <point x="451.2842105263158" y="1217.4947368421053"/>
      <point x="634.6526315789474" y="1224.421052631579"/>
      <point x="794.8421052631579" y="1224.421052631579" type="curve"/>
      <point x="1183.3684210526314" y="1224.421052631579" type="line"/>
      <point x="1137.3684210526314" y="1303.1157894736841" type="line"/>
      <point x="489.17894736842106" y="628.5684210526316" type="line"/>
      <point x="346.1684210526316" y="479.5578947368421"/>
      <point x="146.18947368421053" y="273.22105263157897"/>
      <point x="19.178947368421053" y="160.1684210526316" type="curve"/>
    </contour>
  </outline>
</glyph>
<glyph name="bracketleft" format="2">
  <advance width="772.1052631578948"/>
  <unicode hex="005B"/>
  <outline>
    <contour>
      <point x="6.421052631578954" y="-238.77894736842106" type="curve"/>
      <point x="241.8105263157895" y="-238.77894736842106" type="line"/>
      <point x="248.37894736842108" y="-201.22105263157894" type="line"/>
      <point x="267.34736842105264" y="-44.96842105263158"/>
      <point x="290.7789473684211" y="90.10526315789474"/>
      <point x="327.6" y="267.38947368421054" type="curve"/>
      <point x="487.4947368421053" y="1025.6842105263158" type="line"/>
      <point x="525.1368421052632" y="1206.2526315789473"/>
      <point x="559.242105263158" y="1343.7894736842106"/>
      <point x="606.6315789473686" y="1502.5052631578947" type="curve"/>
      <point x="615.2" y="1538.8842105263159" type="line"/>
      <point x="379.8105263157895" y="1538.8842105263159" type="line"/>
      <point x="356.3789473684211" y="1381.3473684210526"/>
      <point x="332.94736842105266" y="1241.4526315789474"/>
      <point x="295.3052631578948" y="1062.0631578947368" type="curve"/>
      <point x="120.27368421052633" y="229.83157894736843" type="line"/>
      <point x="83.45263157894738" y="53.72631578947368"/>
      <point x="49.347368421052636" y="-82.52631578947368"/>
    </contour>
    <contour>
      <point x="194.2526315789474" y="-238.77894736842106" type="line"/>
      <point x="580.4000000000001" y="-238.77894736842106" type="line"/>
      <point x="619.4947368421052" y="-49.51578947368421" type="line"/>
      <point x="525.5999999999999" y="-58.90526315789473"/>
      <point x="425.7052631578947" y="-61.368421052631575"/>
      <point x="314.2736842105263" y="-61.368421052631575" type="curve"/>
      <point x="230.88421052631583" y="-61.368421052631575" type="line"/>
    </contour>
    <contour>
      <point x="517.0526315789473" y="1361.4736842105262" type="line"/>
      <point x="600.1894736842105" y="1361.4736842105262" type="line"/>
      <point x="733.6210526315789" y="1361.4736842105262"/>
      <point x="824.6947368421053" y="1356.5473684210526"/>
      <point x="909.7684210526315" y="1349.6210526315788" type="curve"/>
      <point x="950.8631578947368" y="1538.8842105263159" type="line"/>
      <point x="554.5052631578947" y="1538.8842105263159" type="line"/>
    </contour>
  </outline>
</glyph>
<glyph name="backslash" format="2">
  <advance width="914.5894736842105"/>
  <unicode hex="005C"/>
  <outline>
    <contour>
      <point x="539.7894736842105" y="0.0" type="curve"/>
      <point x="774.0" y="0.0" type="line"/>
      <point x="731.4315789473685" y="148.0"/>
      <point x="696.2526315789473" y="274.0"/>
      <point x="657.6421052631579" y="456.0" type="curve"/>
      <point x="552.8842105263158" y="950.8210526315789" type="line"/>
      <point x="513.4526315789474" y="1139.9999999999998"/>
      <point x="488.021052631579" y="1273.178947368421"/>
      <point x="469.2631578947369" y="1426.0" type="curve"/>
      <point x="236.69473684210527" y="1426.0" type="line"/>
      <point x="284.4421052631579" y="1272.0"/>
      <point x="315.1578947368421" y="1143.1789473684212"/>
      <point x="354.58947368421053" y="949.1789473684211" type="curve"/>
      <point x="458.5263157894737" y="456.0" type="line"/>
      <point x="497.95789473684204" y="274.0"/>
      <point x="522.2105263157895" y="148.0"/>
    </contour>
  </outline>
</glyph>
<glyph name="asciicircum" format="2">
  <advance width="1235.8315789473684"/>
  <unicode hex="005E"/>
  <outline>
    <contour>
      <point x="993.3052631578947" y="742.8421052631579" type="curve"/>
      <point x="1179.0736842105262" y="745.6631578947369" type="line"/>
      <point x="1087.7473684210527" y="954.9052631578948"/>
      <point x="1002.7789473684211" y="1163.6842105263156"/>
      <point x="934.1263157894737" y="1372.9263157894736" type="curve"/>
      <point x="630.6105263157893" y="1372.9263157894736" type="line"/>
      <point x="490.4210526315789" y="1168.5052631578947"/>
      <point x="331.8105263157895" y="961.1578947368421"/>
      <point x="163.05263157894737" y="749.6631578947369" type="curve"/>
      <point x="373.9578947368421" y="749.6631578947369" type="line"/>
      <point x="507.22105263157897" y="895.3894736842105"/>
      <point x="631.5578947368422" y="1040.6526315789472"/>
      <point x="754.7157894736843" y="1186.378947368421" type="curve"/>
      <point x="774.1052631578948" y="1186.378947368421" type="line"/>
      <point x="844.8631578947369" y="1038.6526315789474"/>
      <point x="913.621052631579" y="890.5684210526316"/>
    </contour>
  </outline>
</glyph>
<glyph name="underscore" format="2">
  <advance width="825.6842105263158"/>
  <unicode hex="005F"/>
  <outline>
    <contour>
      <point x="-184.9894736842105" y="-283.4526315789474" type="line"/>
      <point x="-53.85263157894737" y="-278.63157894736844"/>
      <point x="74.21052631578947" y="-276.1684210526316"/>
      <point x="177.2421052631579" y="-274.5263157894737" type="curve"/>
      <point x="324.10526315789474" y="-274.5263157894737" type="line"/>
      <point x="425.4947368421052" y="-276.1684210526316"/>
      <point x="551.9157894736842" y="-278.63157894736844"/>
      <point x="680.6947368421053" y="-283.4526315789474" type="curve"/>
      <point x="722.6105263157895" y="-86.44210526315788" type="line"/>
      <point x="590.6526315789473" y="-91.26315789473684"/>
      <point x="462.5894736842105" y="-93.72631578947367"/>
      <point x="360.37894736842105" y="-95.36842105263158" type="curve"/>
      <point x="213.5157894736842" y="-95.36842105263158" type="line"/>
      <point x="111.30526315789473" y="-93.72631578947367"/>
      <point x="-15.11578947368421" y="-91.26315789473684"/>
      <point x="-143.07368421052632" y="-86.44210526315788" type="curve"/>
    </contour>
  </outline>
</glyph>
<glyph name="a" format="2">
  <advance width="1062.4827586206895"/>
  <unicode hex="0061"/>
  <anchor x="419.99999999999994" y="0.0" name="bottom"/>
  <anchor x="815.9310344827586" y="0.0" name="ogonek"/>
  <anchor x="631.9999999999999" y="995.1724137931035" name="top"/>
  <outline>
    <contour>
      <point x="313.7931034482759" y="-21.586206896551722" type="curve" smooth="yes"/>
      <point x="436.00000000000006" y="-21.586206896551722"/>
      <point x="556.2758620689657" y="55.58620689655173"/>
      <point x="631.9310344827586" y="133.31034482758625" type="curve"/>
      <point x="651.1034482758621" y="133.31034482758625" type="line"/>
      <point x="655.9310344827587" y="0.0" type="line"/>
      <point x="877.7241379310343" y="0.0" type="line"/>
      <point x="860.3448275862069" y="118.55172413793103"/>
      <point x="863.1034482758621" y="222.6896551724138"/>
      <point x="882.6896551724137" y="315.2413793103448" type="curve"/>
      <point x="905.7241379310344" y="422.0" type="line" smooth="yes"/>
      <point x="923.9310344827586" y="503.0344827586207"/>
      <point x="941.7241379310343" y="569.2413793103448"/>
      <point x="955.5172413793102" y="632.4137931034483" type="curve" smooth="yes"/>
      <point x="1006.8965517241378" y="864.7586206896552"/>
      <point x="878.8275862068966" y="1018.7586206896551"/>
      <point x="598.4137931034484" y="1018.7586206896551" type="curve" smooth="yes"/>
      <point x="491.86206896551727" y="1018.7586206896551"/>
      <point x="330.1379310344828" y="981.9310344827587"/>
      <point x="230.75862068965517" y="961.3103448275862" type="curve"/>
      <point x="195.6551724137931" y="750.6206896551724" type="line"/>
      <point x="339.3103448275862" y="801.2413793103448"/>
      <point x="491.7931034482759" y="836.4137931034483"/>
      <point x="540.6206896551724" y="836.4137931034483" type="curve" smooth="yes"/>
      <point x="693.9310344827586" y="836.4137931034483"/>
      <point x="771.7931034482758" y="766.1379310344828"/>
      <point x="742.6896551724137" y="640.1379310344828" type="curve"/>
      <point x="409.3793103448276" y="584.2758620689655" type="line" smooth="yes"/>
      <point x="241.79310344827587" y="555.8620689655172"/>
      <point x="90.34482758620689" y="503.5172413793104"/>
      <point x="50.137931034482754" y="317.51724137931035" type="curve" smooth="yes"/>
      <point x="9.93103448275862" y="135.31034482758622"/>
      <point x="117.58620689655172" y="-21.586206896551722"/>
    </contour>
    <contour>
      <point x="398.27586206896547" y="151.58620689655174" type="curve" smooth="yes"/>
      <point x="308.6206896551724" y="151.58620689655174"/>
      <point x="253.65517241379314" y="204.68965517241378"/>
      <point x="271.72413793103453" y="299.5862068965517" type="curve" smooth="yes"/>
      <point x="288.96551724137936" y="386.96551724137936"/>
      <point x="364.0" y="415.3793103448276"/>
      <point x="467.5862068965517" y="436.41379310344826" type="curve" smooth="yes"/>
      <point x="628.6896551724138" y="470.0689655172414"/>
      <point x="672.7586206896551" y="486.48275862068965"/>
      <point x="705.7931034482758" y="506.06896551724134" type="curve"/>
      <point x="667.103448275862" y="318.48275862068965" type="line"/>
      <point x="567.7931034482759" y="200.6206896551724"/>
      <point x="454.0689655172414" y="151.58620689655174"/>
    </contour>
  </outline>
</glyph>
<glyph name="b" format="2">
  <advance width="1186.5684210526315"/>
  <unicode hex="0062"/>
  <outline>
    <contour>
      <point x="619.9368421052632" y="-23.74736842105263" type="curve" smooth="yes"/>
      <point x="859.0105263157895" y="-23.74736842105263"/>
      <point x="1027.5157894736842" y="164.31578947368422"/>
      <point x="1087.5157894736842" y="449.85263157894735" type="curve" smooth="yes"/>
      <point x="1150.336842105263" y="751.4947368421052"/>
      <point x="1042.757894736842" y="1019.4947368421052"/>
      <point x="755.6421052631579" y="1019.4947368421052" type="curve" smooth="yes"/>
      <point x="660.421052631579" y="1019.4947368421052"/>
      <point x="545.7684210526314" y="957.9157894736842"/>
      <point x="474.58947368421053" y="884.8842105263158" type="curve"/>
      <point x="454.37894736842105" y="884.8842105263158" type="line"/>
      <point x="476.2736842105263" y="987.1789473684211" type="line"/>
      <point x="513.9157894736842" y="1166.2105263157894"/>
      <point x="557.7684210526317" y="1329.9578947368423"/>
      <point x="607.5157894736843" y="1489.8526315789475" type="curve"/>
      <point x="324.00000000000006" y="1460.463157894737" type="line"/>
      <point x="317.2421052631579" y="1307.4315789473685"/>
      <point x="292.98947368421057" y="1152.2526315789473"/>
      <point x="258.63157894736844" y="987.1789473684211" type="curve"/>
      <point x="141.81052631578947" y="435.4315789473684" type="line"/>
      <point x="106.98947368421054" y="270.9684210526316"/>
      <point x="73.70526315789475" y="145.07368421052632"/>
      <point x="31.136842105263174" y="0.0" type="curve"/>
      <point x="221.32631578947368" y="0.0" type="line"/>
      <point x="279.2842105263158" y="143.47368421052633" type="line"/>
      <point x="297.0315789473684" y="143.47368421052633" type="line"/>
      <point x="373.17894736842106" y="41.93684210526316"/>
      <point x="508.14736842105265" y="-23.74736842105263"/>
    </contour>
    <contour>
      <point x="563.2842105263159" y="168.33684210526317" type="curve"/>
      <point x="476.69473684210527" y="169.97894736842107"/>
      <point x="388.2105263157894" y="219.70526315789476"/>
      <point x="332.58947368421053" y="305.7263157894737" type="curve"/>
      <point x="415.9578947368421" y="699.6" type="line"/>
      <point x="487.83157894736837" y="777.221052631579"/>
      <point x="583.4947368421053" y="827.8736842105262"/>
      <point x="656.7578947368422" y="829.8736842105262" type="curve"/>
      <point x="841.3684210526317" y="823.8736842105262"/>
      <point x="906.6315789473686" y="660.0631578947368"/>
      <point x="867.0526315789475" y="467.70526315789476" type="curve" smooth="yes"/>
      <point x="831.3684210526317" y="296.82105263157894"/>
      <point x="733.8526315789474" y="175.1578947368421"/>
    </contour>
  </outline>
</glyph>
<glyph name="e" format="2">
  <advance width="1056.103448275862"/>
  <unicode hex="0065"/>
  <anchor x="463.34482758620686" y="0.0" name="bottom"/>
  <anchor x="697.1379310344828" y="0.0" name="ogonek"/>
  <anchor x="660.3103448275862" y="995.1724137931035" name="top"/>
  <outline>
    <contour>
      <point x="556.448275862069" y="-23.379310344827587" type="curve" smooth="yes"/>
      <point x="670.6551724137931" y="-23.379310344827587"/>
      <point x="796.1724137931035" y="10.827586206896555"/>
      <point x="865.0" y="37.03448275862068" type="curve"/>
      <point x="894.7241379310344" y="235.5862068965517" type="line"/>
      <point x="779.551724137931" y="185.17241379310343"/>
      <point x="669.3448275862069" y="160.75862068965517"/>
      <point x="599.4827586206897" y="160.75862068965517" type="curve" smooth="yes"/>
      <point x="384.44827586206895" y="160.75862068965517"/>
      <point x="262.7931034482759" y="286.0"/>
      <point x="308.2413793103448" y="508.2068965517241" type="curve"/>
      <point x="315.41379310344826" y="541.1034482758621" type="line"/>
      <point x="363.06896551724134" y="743.6551724137931"/>
      <point x="491.0689655172414" y="840.9655172413793"/>
      <point x="623.3448275862069" y="846.9655172413793" type="curve"/>
      <point x="761.6206896551724" y="840.9655172413793"/>
      <point x="824.1724137931034" y="733.8620689655172"/>
      <point x="792.7241379310344" y="591.3793103448277" type="curve" smooth="yes"/>
      <point x="788.7241379310344" y="573.1724137931035"/>
      <point x="782.7241379310345" y="552.9655172413793"/>
      <point x="776.7241379310345" y="534.9655172413793" type="curve"/>
      <point x="955.4137931034483" y="457.86206896551727" type="line"/>
      <point x="967.2068965517241" y="491.2413793103448"/>
      <point x="979.4137931034483" y="531.6551724137931"/>
      <point x="989.0" y="570.6206896551723" type="curve" smooth="yes"/>
      <point x="1052.9310344827586" y="829.3103448275862"/>
      <point x="916.0344827586207" y="1018.5517241379309"/>
      <point x="620.1724137931034" y="1018.5517241379309" type="curve" smooth="yes"/>
      <point x="352.8620689655172" y="1018.5517241379309"/>
      <point x="156.0344827586207" y="831.3793103448276"/>
      <point x="96.0344827586207" y="543.7931034482758" type="curve" smooth="yes"/>
      <point x="24.034482758620694" y="199.24137931034483"/>
      <point x="211.9655172413793" y="-23.379310344827587"/>
    </contour>
    <contour>
      <point x="164.0344827586207" y="457.86206896551727" type="line"/>
      <point x="955.4137931034483" y="457.86206896551727" type="line"/>
      <point x="976.3793103448276" y="561.1034482758621" type="line"/>
      <point x="850.103448275862" y="618.2758620689656" type="line"/>
      <point x="185.0" y="609.3103448275862" type="line"/>
    </contour>
  </outline>
</glyph>
<glyph name="g" format="2">
  <advance width="1093.5172413793102"/>
  <unicode hex="0067"/>
  <anchor x="396.4137931034482" y="-384.0" name="bottom"/>
  <anchor x="623.5172413793103" y="995.1724137931035" name="top"/>
  <outline>
    <contour>
      <point x="356.3448275862069" y="-405.58620689655174" type="curve" smooth="yes"/>
      <point x="592.2758620689656" y="-405.58620689655174"/>
      <point x="838.0" y="-319.17241379310343"/>
      <point x="883.1724137931034" y="-105.3103448275862" type="curve" smooth="yes"/>
      <point x="920.3448275862069" y="72.3448275862069"/>
      <point x="802.0" y="185.31034482758622"/>
      <point x="542.3448275862069" y="185.31034482758622" type="curve" smooth="yes"/>
      <point x="454.82758620689657" y="185.31034482758622" type="line" smooth="yes"/>
      <point x="374.89655172413796" y="185.31034482758622"/>
      <point x="318.0" y="204.6896551724138"/>
      <point x="326.41379310344826" y="248.34482758620692" type="curve" smooth="yes"/>
      <point x="333.44827586206895" y="286.0689655172414"/>
      <point x="407.65517241379314" y="309.86206896551727"/>
      <point x="538.4137931034483" y="326.68965517241384" type="curve" smooth="yes"/>
      <point x="722.0689655172414" y="351.10344827586204"/>
      <point x="891.3793103448276" y="425.72413793103453"/>
      <point x="931.3793103448276" y="638.4137931034483" type="curve" smooth="yes"/>
      <point x="951.7931034482758" y="747.2413793103448"/>
      <point x="919.5862068965516" y="843.1034482758621"/>
      <point x="820.4827586206897" y="921.5172413793103" type="curve"/>
      <point x="760.6206896551723" y="861.103448275862" type="line"/>
      <point x="880.0689655172414" y="857.103448275862"/>
      <point x="997.9310344827586" y="845.9310344827586"/>
      <point x="1121.3793103448277" y="820.0" type="curve"/>
      <point x="1158.6896551724137" y="996.9655172413793" type="line"/>
      <point x="827.7931034482758" y="996.9655172413793" type="line" smooth="yes"/>
      <point x="714.2758620689655" y="996.9655172413793"/>
      <point x="669.1034482758621" y="1018.7586206896551"/>
      <point x="537.8620689655172" y="1018.7586206896551" type="curve" smooth="yes"/>
      <point x="316.0" y="1018.7586206896551"/>
      <point x="170.34482758620692" y="911.0344827586207"/>
      <point x="133.93103448275863" y="733.3793103448276" type="curve" smooth="yes"/>
      <point x="95.93103448275862" y="549.3793103448274"/>
      <point x="226.75862068965515" y="427.5862068965517"/>
      <point x="303.3103448275862" y="389.7931034482758" type="curve"/>
      <point x="303.3103448275862" y="372.62068965517244" type="line"/>
      <point x="215.1034482758621" y="350.82758620689657"/>
      <point x="140.7586206896552" y="310.62068965517244"/>
      <point x="122.75862068965517" y="227.44827586206898" type="curve" smooth="yes"/>
      <point x="102.75862068965517" y="133.86206896551724"/>
      <point x="168.55172413793105" y="82.27586206896552"/>
      <point x="195.17241379310343" y="66.48275862068967" type="curve"/>
      <point x="195.17241379310343" y="51.310344827586206" type="line"/>
      <point x="108.75862068965517" y="29.10344827586207"/>
      <point x="-10.896551724137936" y="-29.51724137931035"/>
      <point x="-33.310344827586206" y="-133.17241379310343" type="curve" smooth="yes"/>
      <point x="-73.10344827586206" y="-321.7241379310345"/>
      <point x="137.1724137931035" y="-405.58620689655174"/>
    </contour>
    <contour>
      <point x="383.2413793103448" y="-237.58620689655174" type="curve"/>
      <point x="269.7241379310345" y="-235.7931034482759"/>
      <point x="147.10344827586204" y="-196.75862068965517"/>
      <point x="164.9655172413793" y="-115.65517241379311" type="curve" smooth="yes"/>
      <point x="179.79310344827582" y="-50.6896551724138"/>
      <point x="283.65517241379314" y="-11.24137931034483"/>
      <point x="371.86206896551727" y="8.551724137931032" type="curve"/>
      <point x="457.03448275862075" y="8.551724137931032" type="line" smooth="yes"/>
      <point x="660.0689655172415" y="8.551724137931032"/>
      <point x="692.7586206896552" y="-51.310344827586206"/>
      <point x="679.7241379310344" y="-113.44827586206897" type="curve" smooth="yes"/>
      <point x="668.2758620689655" y="-167.2413793103448"/>
      <point x="577.103448275862" y="-228.62068965517244"/>
    </contour>
    <contour>
      <point x="479.24137931034477" y="488.06896551724134" type="curve"/>
      <point x="399.8620689655173" y="522.6896551724138"/>
      <point x="309.1724137931035" y="583.5172413793105"/>
      <point x="330.2068965517241" y="692.6896551724137" type="curve" smooth="yes"/>
      <point x="349.65517241379314" y="793.5172413793103"/>
      <point x="434.2068965517242" y="840.0"/>
      <point x="546.2068965517241" y="840.0" type="curve"/>
      <point x="670.5517241379312" y="840.0"/>
      <point x="756.5517241379309" y="754.2758620689655"/>
      <point x="731.3103448275862" y="641.6551724137931" type="curve" smooth="yes"/>
      <point x="705.2413793103448" y="523.7241379310344"/>
      <point x="586.4137931034483" y="497.10344827586204"/>
    </contour>
  </outline>
</glyph>
<glyph name="h" format="2">
  <advance width="1160.6315789473683"/>
  <unicode hex="0068"/>
  <guideline x="87.15789473684211" y="725.9052631578948" angle="4.470799999999997"/>
  <anchor x="527.3684210526316" y="0.0" name="bottom"/>
  <anchor x="628.7578947368421" y="818.0" name="center"/>
  <anchor x="745.6421052631579" y="1454.2105263157894" name="top"/>
  <outline>
    <contour>
      <point x="31.136842105263174" y="0.0" type="curve"/>
      <point x="284.2315789473684" y="0.0" type="line"/>
      <point x="304.37894736842105" y="145.07368421052632"/>
      <point x="324.63157894736844" y="270.9684210526316"/>
      <point x="356.9894736842105" y="424.7578947368421" type="curve"/>
      <point x="405.6" y="651.5578947368422" type="line"/>
      <point x="489.1157894736841" y="739.7894736842105"/>
      <point x="603.0315789473684" y="817.5578947368421"/>
      <point x="685.8736842105264" y="817.5578947368421" type="curve" smooth="yes"/>
      <point x="819.9368421052632" y="817.5578947368421"/>
      <point x="853.8736842105263" y="727.7263157894737"/>
      <point x="818.0842105263159" y="564.4210526315788" type="curve"/>
      <point x="789.9368421052632" y="424.7578947368421" type="line"/>
      <point x="757.5789473684212" y="270.9684210526316"/>
      <point x="725.1157894736842" y="145.07368421052632"/>
      <point x="684.1894736842105" y="0.0" type="curve"/>
      <point x="935.6421052631579" y="0.0" type="line"/>
      <point x="953.3263157894737" y="145.07368421052632"/>
      <point x="975.221052631579" y="270.9684210526316"/>
      <point x="1010.042105263158" y="435.4315789473684" type="curve"/>
      <point x="1026.042105263158" y="512.2526315789473"/>
      <point x="1045.4315789473683" y="578.6736842105263"/>
      <point x="1057.4315789473683" y="634.3157894736843" type="curve" smooth="yes"/>
      <point x="1108.9684210526314" y="871.7473684210527"/>
      <point x="1016.1473684210528" y="1019.4947368421052"/>
      <point x="799.0736842105264" y="1019.4947368421052" type="curve" smooth="yes"/>
      <point x="682.7789473684211" y="1019.4947368421052"/>
      <point x="546.5894736842106" y="927.7684210526315"/>
      <point x="465.5157894736842" y="846.8421052631578" type="curve"/>
      <point x="445.66315789473686" y="846.8421052631578" type="line"/>
      <point x="476.2736842105263" y="987.1789473684211" type="line"/>
      <point x="513.9157894736842" y="1166.2105263157894"/>
      <point x="557.7684210526317" y="1329.957894736842"/>
      <point x="607.5157894736843" y="1489.8526315789475" type="curve"/>
      <point x="324.00000000000006" y="1460.463157894737" type="line"/>
      <point x="317.2421052631579" y="1307.4315789473683"/>
      <point x="292.98947368421057" y="1152.2526315789473"/>
      <point x="258.63157894736844" y="987.1789473684211" type="curve"/>
      <point x="141.81052631578947" y="435.4315789473684" type="line"/>
      <point x="106.98947368421054" y="270.9684210526316"/>
      <point x="73.70526315789475" y="145.07368421052632"/>
    </contour>
  </outline>
</glyph>
<glyph name="l" format="2">
  <advance width="528.5473684210526"/>
  <unicode hex="006C"/>
  <anchor x="158.2736842105263" y="0.0" name="bottom"/>
  <anchor x="336.37894736842105" y="818.0" name="center"/>
  <anchor x="459.7052631578947" y="1454.2105263157894" name="top"/>
  <anchor x="560.1473684210526" y="994.5684210526316" name="topright"/>
  <outline>
    <contour>
      <point x="31.136842105263174" y="0.0" type="curve"/>
      <point x="284.2315789473684" y="0.0" type="line"/>
      <point x="304.37894736842105" y="145.07368421052632"/>
      <point x="324.63157894736844" y="270.9684210526316"/>
      <point x="359.4526315789474" y="435.4315789473684" type="curve"/>
      <point x="476.2736842105263" y="987.1789473684211" type="line"/>
      <point x="513.9157894736842" y="1166.2105263157894"/>
      <point x="557.7684210526317" y="1329.9578947368423"/>
      <point x="607.5157894736843" y="1489.8526315789475" type="curve"/>
      <point x="324.00000000000006" y="1460.463157894737" type="line"/>
      <point x="317.2421052631579" y="1307.4315789473685"/>
      <point x="292.98947368421057" y="1152.2526315789473"/>
      <point x="258.63157894736844" y="987.1789473684211" type="curve"/>
      <point x="141.81052631578947" y="435.4315789473684" type="line"/>
      <point x="106.98947368421054" y="270.9684210526316"/>
      <point x="73.70526315789475" y="145.07368421052632"/>
    </contour>
  </outline>
</glyph>
<glyph name="m" format="2">
  <advance width="1765.4947368421053"/>
  <unicode hex="006D"/>
  <anchor x="794.7157894736841" y="0.0" name="bottom"/>
  <anchor x="1004.357894736842" y="994.5684210526316" name="top"/>
  <outline>
    <contour>
      <point x="41.49473684210528" y="0.0" type="curve"/>
      <point x="294.58947368421053" y="0.0" type="line"/>
      <point x="314.7368421052632" y="145.07368421052632"/>
      <point x="334.98947368421057" y="270.9684210526316"/>
      <point x="367.34736842105264" y="424.7578947368421" type="curve"/>
      <point x="415.95789473684215" y="651.5578947368422" type="line"/>
      <point x="499.4736842105264" y="739.7894736842105"/>
      <point x="607.0315789473683" y="817.5578947368421"/>
      <point x="687.5157894736841" y="817.5578947368421" type="curve" smooth="yes"/>
      <point x="805.7894736842105" y="817.5578947368421"/>
      <point x="839.7263157894736" y="727.7263157894737"/>
      <point x="803.9368421052632" y="564.4210526315788" type="curve"/>
      <point x="775.7894736842104" y="424.7578947368421" type="line"/>
      <point x="743.4315789473684" y="270.9684210526316"/>
      <point x="710.9684210526316" y="145.07368421052632"/>
      <point x="670.0421052631579" y="0.0" type="curve"/>
      <point x="921.4947368421052" y="0.0" type="line"/>
      <point x="939.1789473684211" y="145.07368421052632"/>
      <point x="961.0736842105263" y="270.9684210526316"/>
      <point x="995.8947368421052" y="435.4315789473684" type="curve"/>
      <point x="1011.8947368421052" y="512.2526315789473"/>
      <point x="1031.2842105263157" y="578.6736842105263"/>
      <point x="1043.2842105263155" y="634.3157894736843" type="curve" smooth="yes"/>
      <point x="1054.9263157894734" y="688.8842105263158"/>
      <point x="1059.2842105263157" y="737.4526315789474"/>
      <point x="1056.0" y="781.5578947368421" type="curve"/>
      <point x="1047.4315789473685" y="786.2736842105263" type="line"/>
      <point x="1040.1473684210525" y="932.7789473684211"/>
      <point x="953.7894736842106" y="1019.4947368421052"/>
      <point x="799.5368421052631" y="1019.4947368421052" type="curve" smooth="yes"/>
      <point x="680.2105263157896" y="1019.4947368421052"/>
      <point x="537.7052631578947" y="922.8421052631579"/>
      <point x="450.42105263157896" y="832.5263157894738" type="curve"/>
      <point x="430.5684210526316" y="832.5263157894738" type="line"/>
      <point x="447.6421052631579" y="1006.3157894736842" type="line"/>
      <point x="232.10526315789474" y="994.5684210526316" type="line"/>
      <point x="228.06315789473683" y="839.1789473684211"/>
      <point x="204.98947368421057" y="684.0"/>
      <point x="174.1684210526316" y="535.4315789473684" type="curve"/>
      <point x="152.1684210526316" y="435.4315789473684" type="line"/>
      <point x="117.34736842105264" y="270.9684210526316"/>
      <point x="84.06315789473686" y="145.07368421052632"/>
    </contour>
    <contour>
      <point x="1289.0526315789473" y="0.0" type="curve"/>
      <point x="1540.5052631578947" y="0.0" type="line"/>
      <point x="1558.1894736842103" y="145.07368421052632"/>
      <point x="1580.0842105263155" y="270.9684210526316"/>
      <point x="1614.9052631578945" y="435.4315789473684" type="curve"/>
      <point x="1630.9052631578945" y="512.2526315789473"/>
      <point x="1650.294736842105" y="578.6736842105263"/>
      <point x="1662.294736842105" y="634.3157894736843" type="curve" smooth="yes"/>
      <point x="1713.8315789473681" y="871.7473684210526"/>
      <point x="1621.0105263157895" y="1019.4947368421052"/>
      <point x="1418.5473684210526" y="1019.4947368421052" type="curve" smooth="yes"/>
      <point x="1299.221052631579" y="1019.4947368421052"/>
      <point x="1151.6421052631579" y="919.3052631578947"/>
      <point x="1061.9999999999998" y="826.6315789473684" type="curve"/>
      <point x="1038.9684210526316" y="826.6315789473684" type="line"/>
      <point x="1034.9684210526316" y="651.5578947368422" type="line"/>
      <point x="1118.4842105263158" y="739.7894736842105"/>
      <point x="1226.042105263158" y="817.5578947368421"/>
      <point x="1306.5263157894735" y="817.5578947368421" type="curve" smooth="yes"/>
      <point x="1424.8" y="817.5578947368421"/>
      <point x="1458.7368421052631" y="727.7263157894737"/>
      <point x="1422.9473684210525" y="564.4210526315788" type="curve"/>
      <point x="1394.8" y="424.7578947368421" type="line"/>
      <point x="1362.4421052631576" y="270.9684210526316"/>
      <point x="1329.9789473684211" y="145.07368421052632"/>
    </contour>
  </outline>
</glyph>
<glyph name="n" format="2">
  <advance width="1170.9894736842105"/>
  <unicode hex="006E"/>
  <anchor x="487.2842105263158" y="0.0" name="bottom"/>
  <anchor x="696.9263157894736" y="994.5684210526316" name="top"/>
  <outline>
    <contour>
      <point x="41.49473684210528" y="0.0" type="curve"/>
      <point x="294.58947368421053" y="0.0" type="line"/>
      <point x="314.7368421052632" y="145.07368421052632"/>
      <point x="334.98947368421057" y="270.9684210526316"/>
      <point x="367.34736842105264" y="424.7578947368421" type="curve"/>
      <point x="415.95789473684215" y="651.5578947368422" type="line"/>
      <point x="499.47368421052624" y="739.7894736842105"/>
      <point x="613.3894736842104" y="817.5578947368421"/>
      <point x="696.2315789473685" y="817.5578947368421" type="curve" smooth="yes"/>
      <point x="830.2947368421052" y="817.5578947368421"/>
      <point x="864.2315789473683" y="727.7263157894737"/>
      <point x="828.4421052631579" y="564.4210526315788" type="curve"/>
      <point x="800.2947368421052" y="424.7578947368421" type="line"/>
      <point x="767.9368421052632" y="270.9684210526316"/>
      <point x="735.4736842105264" y="145.07368421052632"/>
      <point x="694.5473684210526" y="0.0" type="curve"/>
      <point x="946.0" y="0.0" type="line"/>
      <point x="963.6842105263158" y="145.07368421052632"/>
      <point x="985.578947368421" y="270.9684210526316"/>
      <point x="1020.4" y="435.4315789473684" type="curve"/>
      <point x="1036.3999999999999" y="512.2526315789473"/>
      <point x="1055.7894736842104" y="578.6736842105263"/>
      <point x="1067.7894736842104" y="634.3157894736843" type="curve" smooth="yes"/>
      <point x="1119.3263157894735" y="871.7473684210527"/>
      <point x="1026.5052631578947" y="1019.4947368421052"/>
      <point x="809.4315789473684" y="1019.4947368421052" type="curve" smooth="yes"/>
      <point x="684.9263157894736" y="1019.4947368421052"/>
      <point x="538.5263157894738" y="922.8421052631579"/>
      <point x="450.42105263157896" y="832.5263157894738" type="curve"/>
      <point x="430.5684210526316" y="832.5263157894738" type="line"/>
      <point x="447.6421052631579" y="1006.3157894736842" type="line"/>
      <point x="232.10526315789474" y="994.5684210526316" type="line"/>
      <point x="228.06315789473683" y="839.1789473684211"/>
      <point x="204.98947368421057" y="684.0"/>
      <point x="174.1684210526316" y="535.4315789473684" type="curve"/>
      <point x="152.1684210526316" y="435.4315789473684" type="line"/>
      <point x="117.34736842105264" y="270.9684210526316"/>
      <point x="84.06315789473686" y="145.07368421052632"/>
    </contour>
  </outline>
</glyph>
<glyph name="p" format="2">
  <advance width="1196.9263157894736"/>
  <unicode hex="0070"/>
  <outline>
    <contour>
      <point x="-41.68421052631578" y="-391.2842105263158" type="curve"/>
      <point x="217.5157894736842" y="-384.0" type="line"/>
      <point x="233.2" y="-238.92631578947368"/>
      <point x="252.63157894736844" y="-113.03157894736842"/>
      <point x="286.1684210526316" y="40.757894736842104" type="curve"/>
      <point x="306.88421052631577" y="133.62105263157895" type="line"/>
      <point x="323.81052631578945" y="133.62105263157895" type="line"/>
      <point x="396.67368421052635" y="38.65263157894737"/>
      <point x="524.2526315789474" y="-23.74736842105263"/>
      <point x="630.2947368421052" y="-23.74736842105263" type="curve" smooth="yes"/>
      <point x="869.3684210526316" y="-23.74736842105263"/>
      <point x="1037.873684210526" y="164.31578947368422"/>
      <point x="1097.873684210526" y="449.85263157894735" type="curve" smooth="yes"/>
      <point x="1160.6947368421052" y="751.4947368421052"/>
      <point x="1053.115789473684" y="1019.4947368421052"/>
      <point x="766.0" y="1019.4947368421052" type="curve" smooth="yes"/>
      <point x="663.0315789473684" y="1019.4947368421052"/>
      <point x="540.6315789473684" y="952.6315789473684"/>
      <point x="462.52631578947364" y="869.3894736842104" type="curve"/>
      <point x="441.4947368421052" y="869.3894736842104" type="line"/>
      <point x="455.0315789473684" y="1006.3157894736842" type="line"/>
      <point x="232.10526315789474" y="994.5684210526316" type="line"/>
      <point x="228.06315789473683" y="839.1789473684211"/>
      <point x="204.98947368421057" y="684.0"/>
      <point x="174.1684210526316" y="535.4315789473684" type="curve"/>
      <point x="70.98947368421054" y="51.43157894736842" type="line"/>
      <point x="36.168421052631594" y="-113.03157894736842"/>
      <point x="0.8842105263158047" y="-246.21052631578948"/>
    </contour>
    <contour>
      <point x="573.642105263158" y="168.33684210526317" type="curve"/>
      <point x="487.05263157894734" y="169.97894736842107"/>
      <point x="398.56842105263155" y="219.70526315789476"/>
      <point x="342.94736842105266" y="305.7263157894737" type="curve"/>
      <point x="426.3157894736842" y="699.6" type="line"/>
      <point x="498.1894736842105" y="777.221052631579"/>
      <point x="593.8526315789474" y="827.8736842105262"/>
      <point x="667.1157894736842" y="829.8736842105262" type="curve"/>
      <point x="851.7263157894737" y="823.8736842105262"/>
      <point x="916.9894736842106" y="660.0631578947368"/>
      <point x="877.4105263157895" y="467.70526315789476" type="curve" smooth="yes"/>
      <point x="841.7263157894737" y="296.82105263157894"/>
      <point x="744.2105263157895" y="175.1578947368421"/>
    </contour>
  </outline>
</glyph>
<glyph name="q" format="2">
  <advance width="1174.1052631578948"/>
  <unicode hex="0071"/>
  <outline>
    <contour>
      <point x="606.3368421052633" y="-391.2842105263158" type="curve"/>
      <point x="861.4315789473683" y="-384.0" type="line"/>
      <point x="881.578947368421" y="-238.92631578947368"/>
      <point x="901.8315789473684" y="-113.03157894736842"/>
      <point x="936.6526315789473" y="51.43157894736842" type="curve"/>
      <point x="1039.4736842105262" y="535.4315789473684" type="line"/>
      <point x="1071.1157894736841" y="687.6421052631579"/>
      <point x="1114.0421052631577" y="847.2842105263157"/>
      <point x="1170.7157894736843" y="1006.3157894736842" type="curve"/>
      <point x="953.5368421052631" y="994.5684210526316" type="line"/>
      <point x="911.5368421052631" y="861.1368421052631" type="line"/>
      <point x="891.3263157894737" y="861.1368421052631" type="line"/>
      <point x="820.7157894736843" y="952.9894736842105"/>
      <point x="688.2105263157895" y="1019.4947368421052"/>
      <point x="567.4526315789474" y="1019.4947368421052" type="curve" smooth="yes"/>
      <point x="328.37894736842105" y="1019.4947368421052"/>
      <point x="159.8736842105263" y="831.4315789473684"/>
      <point x="99.8736842105263" y="545.8947368421052" type="curve" smooth="yes"/>
      <point x="37.05263157894736" y="244.2526315789474"/>
      <point x="144.6315789473684" y="-23.74736842105263"/>
      <point x="431.74736842105267" y="-23.74736842105263" type="curve" smooth="yes"/>
      <point x="524.2526315789473" y="-23.74736842105263"/>
      <point x="636.0842105263159" y="29.936842105263157"/>
      <point x="716.3368421052631" y="124.18947368421053" type="curve"/>
      <point x="734.9052631578948" y="124.18947368421053" type="line"/>
      <point x="716.5473684210527" y="40.757894736842104" type="line"/>
      <point x="684.1894736842106" y="-113.03157894736842"/>
      <point x="648.9052631578948" y="-246.21052631578948"/>
    </contour>
    <contour>
      <point x="530.6315789473684" y="165.87368421052633" type="curve"/>
      <point x="346.0210526315789" y="170.69473684210527"/>
      <point x="279.57894736842104" y="336.86315789473684"/>
      <point x="320.33684210526314" y="528.0421052631579" type="curve" smooth="yes"/>
      <point x="357.2" y="701.2842105263157"/>
      <point x="453.53684210526313" y="820.5894736842105"/>
      <point x="624.1052631578947" y="827.4105263157894" type="curve"/>
      <point x="714.2315789473683" y="824.5894736842105"/>
      <point x="801.5368421052632" y="779.578947368421"/>
      <point x="859.5157894736842" y="712.421052631579" type="curve"/>
      <point x="777.3263157894737" y="326.8" type="line"/>
      <point x="712.5263157894738" y="227.9578947368421"/>
      <point x="619.2210526315789" y="169.05263157894737"/>
    </contour>
  </outline>
</glyph>
<glyph name="r" format="2">
  <advance width="824.1263157894738"/>
  <unicode hex="0072"/>
  <anchor x="156.5263157894737" y="0.0" name="bottom"/>
  <anchor x="572.9263157894737" y="994.5684210526316" name="top"/>
  <outline>
    <contour>
      <point x="41.49473684210528" y="0.0" type="curve"/>
      <point x="294.58947368421053" y="0.0" type="line"/>
      <point x="314.7368421052632" y="145.07368421052632"/>
      <point x="334.98947368421057" y="270.9684210526316"/>
      <point x="367.34736842105264" y="424.7578947368421" type="curve"/>
      <point x="402.42105263157896" y="585.3052631578947" type="line"/>
      <point x="513.8736842105262" y="756.5263157894738"/>
      <point x="625.7052631578946" y="798.6736842105263"/>
      <point x="688.357894736842" y="798.6736842105263" type="curve" smooth="yes"/>
      <point x="723.5368421052631" y="798.6736842105263"/>
      <point x="761.1789473684211" y="790.2105263157894"/>
      <point x="818.5684210526316" y="769.3894736842105" type="curve"/>
      <point x="886.1894736842105" y="998.3157894736842" type="line"/>
      <point x="851.0105263157894" y="1009.4947368421052"/>
      <point x="797.3684210526314" y="1019.4947368421052"/>
      <point x="758.8631578947368" y="1019.4947368421052" type="curve" smooth="yes"/>
      <point x="672.8631578947369" y="1019.4947368421052"/>
      <point x="564.2105263157895" y="979.1368421052632"/>
      <point x="444.52631578947364" y="814.8421052631578" type="curve"/>
      <point x="424.6736842105263" y="814.8421052631578" type="line"/>
      <point x="447.6421052631579" y="1006.3157894736842" type="line"/>
      <point x="232.10526315789474" y="994.5684210526316" type="line"/>
      <point x="228.06315789473683" y="839.1789473684211"/>
      <point x="204.98947368421057" y="684.0"/>
      <point x="174.1684210526316" y="535.4315789473684" type="curve"/>
      <point x="152.1684210526316" y="435.4315789473684" type="line"/>
      <point x="117.34736842105264" y="270.9684210526316"/>
      <point x="84.06315789473686" y="145.07368421052632"/>
    </contour>
  </outline>
</glyph>
<glyph name="u" format="2">
  <advance width="1135.7684210526315"/>
  <unicode hex="0075"/>
  <anchor x="462.4210526315789" y="0.0" name="bottom"/>
  <anchor x="901.3894736842104" y="0.0" name="ogonek"/>
  <anchor x="671.2421052631578" y="994.5684210526316" name="top"/>
  <anchor x="1187.621052631579" y="994.5684210526316" name="topright"/>
  <outline>
    <contour>
      <point x="358.6315789473684" y="-23.74736842105263" type="curve" smooth="yes"/>
      <point x="476.0631578947369" y="-23.74736842105263"/>
      <point x="622.4631578947368" y="72.90526315789474"/>
      <point x="710.5684210526316" y="163.22105263157894" type="curve"/>
      <point x="730.4210526315791" y="163.22105263157894" type="line"/>
      <point x="705.0947368421052" y="0.0" type="line"/>
      <point x="906.3157894736842" y="0.0" type="line"/>
      <point x="926.4631578947368" y="145.07368421052632"/>
      <point x="945.8947368421052" y="270.9684210526316"/>
      <point x="980.7157894736841" y="435.4315789473684" type="curve"/>
      <point x="1004.357894736842" y="543.6421052631579" type="line"/>
      <point x="1041.6421052631579" y="721.2421052631579"/>
      <point x="1074.9263157894736" y="849.4947368421052"/>
      <point x="1117.8526315789472" y="994.5684210526316" type="curve"/>
      <point x="866.0421052631579" y="994.5684210526316" type="line"/>
      <point x="848.2526315789473" y="849.4947368421052"/>
      <point x="825.178947368421" y="721.2421052631579"/>
      <point x="791.6421052631579" y="567.4526315789474" type="curve"/>
      <point x="743.3894736842104" y="340.0842105263158" type="line"/>
      <point x="659.8736842105263" y="251.85263157894738"/>
      <point x="545.9578947368421" y="174.0842105263158"/>
      <point x="470.1894736842105" y="174.0842105263158" type="curve" smooth="yes"/>
      <point x="336.12631578947367" y="174.0842105263158"/>
      <point x="302.1894736842105" y="263.91578947368424"/>
      <point x="337.1578947368421" y="427.2210526315789" type="curve"/>
      <point x="365.76842105263154" y="567.4526315789474" type="line"/>
      <point x="397.30526315789473" y="721.2421052631579"/>
      <point x="432.58947368421053" y="856.7789473684211"/>
      <point x="475.5157894736842" y="1001.8526315789474" type="curve"/>
      <point x="219.24210526315787" y="994.5684210526316" type="line"/>
      <point x="201.45263157894735" y="849.4947368421052"/>
      <point x="181.66315789473686" y="722.8842105263158"/>
      <point x="143.2" y="543.6421052631579" type="curve"/>
      <point x="127.2" y="470.35789473684207"/>
      <point x="113.91578947368421" y="417.0736842105263"/>
      <point x="101.91578947368421" y="361.4315789473684" type="curve" smooth="yes"/>
      <point x="50.378947368421045" y="124.0"/>
      <point x="141.5578947368421" y="-23.74736842105263"/>
    </contour>
  </outline>
</glyph>
<glyph name="v" format="2">
  <advance width="1063.4315789473685"/>
  <unicode hex="0076"/>
  <outline>
    <contour>
      <point x="299.09473684210525" y="0.0" type="curve"/>
      <point x="559.5157894736842" y="0.0" type="line"/>
      <point x="624.1263157894737" y="124.82105263157895"/>
      <point x="692.021052631579" y="248.46315789473684"/>
      <point x="763.5578947368421" y="372.46315789473687" type="curve"/>
      <point x="866.2736842105263" y="550.1052631578948" type="line"/>
      <point x="950.6315789473684" y="697.7473684210527"/>
      <point x="1038.1684210526319" y="847.7473684210527"/>
      <point x="1134.6315789473683" y="994.5684210526316" type="curve"/>
      <point x="862.9684210526317" y="994.5684210526316" type="line"/>
      <point x="793.9157894736842" y="845.5157894736842"/>
      <point x="719.1157894736842" y="692.2526315789473"/>
      <point x="636.3157894736843" y="534.2736842105263" type="curve"/>
      <point x="481.43157894736845" y="236.67368421052632" type="line"/>
      <point x="461.22105263157897" y="236.67368421052632" type="line"/>
      <point x="428.7789473684211" y="534.2736842105263" type="line"/>
      <point x="411.2" y="692.2526315789473"/>
      <point x="398.08421052631576" y="846.3368421052631"/>
      <point x="389.7894736842105" y="1001.8526315789474" type="curve"/>
      <point x="140.79999999999998" y="994.5684210526316" type="line"/>
      <point x="173.26315789473685" y="850.5684210526316"/>
      <point x="200.44210526315788" y="698.9263157894737"/>
      <point x="223.1578947368421" y="553.2842105263157" type="curve"/>
      <point x="250.69473684210527" y="376.46315789473687" type="line"/>
      <point x="270.2315789473684" y="254.0"/>
      <point x="287.3052631578948" y="124.82105263157895"/>
    </contour>
  </outline>
</glyph>
<glyph name="w" format="2">
  <advance width="1635.6842105263158"/>
  <unicode hex="0077"/>
  <anchor x="710.2736842105263" y="0.0" name="bottom"/>
  <anchor x="919.0947368421052" y="994.5684210526316" name="top"/>
  <outline>
    <contour>
      <point x="249.09473684210525" y="0.0" type="curve"/>
      <point x="504.1263157894736" y="0.0" type="line"/>
      <point x="566.1052631578947" y="140.58947368421053"/>
      <point x="637.7263157894737" y="291.0736842105263"/>
      <point x="705.4526315789475" y="429.30526315789473" type="curve"/>
      <point x="836.5473684210527" y="697.4105263157894" type="line"/>
      <point x="855.1157894736842" y="697.4105263157894" type="line"/>
      <point x="876.2315789473683" y="435.7684210526316" type="line"/>
      <point x="886.378947368421" y="297.0736842105263"/>
      <point x="896.8842105263158" y="138.23157894736843"/>
      <point x="900.1052631578947" y="0.0" type="curve"/>
      <point x="1178.3789473684208" y="0.0" type="line"/>
      <point x="1233.3473684210526" y="122.82105263157895"/>
      <point x="1297.7052631578945" y="249.6421052631579"/>
      <point x="1366.8842105263157" y="380.46315789473687" type="curve"/>
      <point x="1459.2421052631578" y="554.4631578947368" type="line"/>
      <point x="1537.2421052631578" y="701.7473684210527"/>
      <point x="1614.421052631579" y="845.7473684210527"/>
      <point x="1707.3473684210526" y="994.5684210526316" type="curve"/>
      <point x="1434.8631578947368" y="994.5684210526316" type="line"/>
      <point x="1378.778947368421" y="856.4842105263158"/>
      <point x="1297.1578947368419" y="682.1473684210526"/>
      <point x="1224.6105263157895" y="529.7052631578947" type="curve"/>
      <point x="1081.5157894736842" y="228.82105263157894" type="line"/>
      <point x="1063.3052631578946" y="228.82105263157894" type="line"/>
      <point x="1044.2947368421053" y="526.8842105263158" type="line"/>
      <point x="1034.6105263157892" y="681.3263157894737"/>
      <point x="1026.5684210526315" y="844.1263157894737"/>
      <point x="1025.8105263157895" y="994.5684210526316" type="curve"/>
      <point x="795.9157894736842" y="994.5684210526316" type="line"/>
      <point x="730.4" y="835.4105263157894"/>
      <point x="657.8526315789474" y="680.6105263157895"/>
      <point x="584.4842105263159" y="524.5263157894736" type="curve"/>
      <point x="444.9263157894737" y="228.82105263157894" type="line"/>
      <point x="426.7157894736842" y="228.82105263157894" type="line"/>
      <point x="406.5263157894737" y="519.8105263157895" type="line"/>
      <point x="396.84210526315786" y="673.0736842105263"/>
      <point x="386.4421052631578" y="846.2315789473683"/>
      <point x="385.6842105263158" y="1001.8526315789474" type="curve"/>
      <point x="134.69473684210521" y="994.5684210526316" type="line"/>
      <point x="165.62105263157898" y="844.5684210526316"/>
      <point x="182.79999999999998" y="702.1052631578948"/>
      <point x="198.33684210526314" y="554.4631578947368" type="curve"/>
      <point x="218.23157894736843" y="377.2842105263158" type="line"/>
      <point x="231.76842105263157" y="250.46315789473684"/>
      <point x="243.30526315789473" y="124.82105263157895"/>
    </contour>
  </outline>
</glyph>
<glyph name="y" format="2">
  <advance width="1068.1473684210525"/>
  <unicode hex="0079"/>
  <anchor x="728.5473684210527" y="0.0" name="bottom"/>
  <anchor x="639.6631578947369" y="994.5684210526316" name="top"/>
  <outline>
    <contour>
      <point x="47.03157894736843" y="-391.2842105263158" type="curve"/>
      <point x="320.3368421052632" y="-384.0" type="line"/>
      <point x="393.6631578947369" y="-240.0"/>
      <point x="489.19999999999993" y="-74.71578947368421"/>
      <point x="641.0947368421052" y="179.2842105263158" type="curve"/>
      <point x="808.6315789473684" y="458.9263157894737" type="line"/>
      <point x="958.1684210526316" y="709.7473684210527"/>
      <point x="1032.5263157894738" y="832.5684210526316"/>
      <point x="1134.526315789474" y="994.5684210526316" type="curve"/>
      <point x="865.3263157894738" y="994.5684210526316" type="line"/>
      <point x="794.2736842105262" y="838.9473684210526"/>
      <point x="718.2947368421053" y="689.3263157894737"/>
      <point x="633.4947368421053" y="530.1684210526316" type="curve"/>
      <point x="473.4315789473684" y="230.10526315789474" type="line"/>
      <point x="453.2210526315789" y="230.10526315789474" type="line"/>
      <point x="423.13684210526316" y="529.8105263157895" type="line"/>
      <point x="405.91578947368424" y="690.6105263157895"/>
      <point x="393.978947368421" y="841.0526315789474"/>
      <point x="387.32631578947365" y="1001.8526315789474" type="curve"/>
      <point x="138.33684210526312" y="994.5684210526316" type="line"/>
      <point x="171.62105263157895" y="851.7473684210527"/>
      <point x="195.97894736842105" y="699.7473684210527"/>
      <point x="217.51578947368418" y="556.9263157894737" type="curve"/>
      <point x="244.2315789473684" y="376.9263157894737" type="line"/>
      <point x="264.58947368421053" y="242.46315789473684"/>
      <point x="280.0210526315789" y="102.10526315789474"/>
      <point x="293.81052631578945" y="-34.71578947368421" type="curve"/>
      <point x="310.9473684210526" y="19.91578947368421" type="line"/>
      <point x="234.94736842105263" y="-114.29473684210527"/>
      <point x="142.6315789473684" y="-257.0736842105263"/>
    </contour>
  </outline>
</glyph>
<glyph name="z" format="2">
  <advance width="1008.3368421052631"/>
  <unicode hex="007A"/>
  <anchor x="396.1684210526316" y="0.0" name="bottom"/>
  <anchor x="500.9894736842105" y="497.2842105263158" name="center"/>
  <anchor x="605.8105263157894" y="994.5684210526316" name="top"/>
  <outline>
    <contour>
      <point x="-33.242105263157896" y="0.0" type="line"/>
      <point x="836.6526315789474" y="0.0" type="line"/>
      <point x="876.9263157894737" y="188.44210526315788" type="line"/>
      <point x="745.8105263157895" y="172.1263157894737"/>
      <point x="572.0842105263158" y="164.37894736842105"/>
      <point x="468.5052631578947" y="164.37894736842105" type="curve"/>
      <point x="239.45263157894738" y="164.37894736842105" type="line"/>
      <point x="263.41052631578947" y="117.64210526315789" type="line"/>
      <point x="631.9157894736842" y="497.6842105263158" type="line"/>
      <point x="745.2842105263159" y="614.2315789473683"/>
      <point x="890.5473684210526" y="756.1052631578948"/>
      <point x="984.2315789473683" y="843.5789473684212" type="curve"/>
      <point x="1015.578947368421" y="994.5684210526316" type="line"/>
      <point x="182.14736842105262" y="994.5684210526316" type="line"/>
      <point x="141.05263157894737" y="802.021052631579" type="line"/>
      <point x="284.1684210526316" y="821.978947368421"/>
      <point x="461.53684210526313" y="829.3684210526316"/>
      <point x="563.9368421052632" y="829.3684210526316" type="curve"/>
      <point x="772.7368421052631" y="829.3684210526316" type="line"/>
      <point x="741.3894736842105" y="895.7473684210527" type="line"/>
      <point x="365.85263157894735" y="502.10526315789474" type="line"/>
      <point x="259.6631578947368" y="390.27368421052637"/>
      <point x="131.4736842105263" y="262.18947368421055"/>
      <point x="-5.17894736842105" y="132.21052631578948" type="curve"/>
    </contour>
  </outline>
</glyph>
<glyph name="braceleft" format="2">
  <advance width="840.8842105263158"/>
  <unicode hex="007B"/>
  <outline>
    <contour>
      <point x="479.2631578947369" y="-238.77894736842106" type="curve" smooth="yes"/>
      <point x="650.3578947368421" y="-238.77894736842106" type="line"/>
      <point x="687.8105263157894" y="-56.084210526315786" type="line"/>
      <point x="620.1684210526315" y="-60.547368421052624"/>
      <point x="566.1684210526315" y="-61.368421052631575"/>
      <point x="532.1684210526315" y="-61.368421052631575" type="curve"/>
      <point x="417.8315789473684" y="-58.084210526315786"/>
      <point x="380.2526315789474" y="13.957894736842107"/>
      <point x="399.3263157894737" y="117.43157894736842" type="curve" smooth="yes"/>
      <point x="450.4421052631579" y="382.5052631578947" type="line" smooth="yes"/>
      <point x="478.8" y="530.6105263157895"/>
      <point x="438.4421052631579" y="593.8947368421053"/>
      <point x="336.5263157894737" y="636.8210526315789" type="curve"/>
      <point x="340.16842105263163" y="656.2105263157895" type="line"/>
      <point x="459.7263157894737" y="702.8842105263158"/>
      <point x="527.0105263157895" y="769.3052631578947"/>
      <point x="564.2947368421053" y="925.7684210526315" type="curve" smooth="yes"/>
      <point x="628.9473684210526" y="1209.7473684210527" type="line" smooth="yes"/>
      <point x="653.6631578947369" y="1316.757894736842"/>
      <point x="712.421052631579" y="1359.0105263157893"/>
      <point x="820.8631578947368" y="1361.4736842105262" type="curve"/>
      <point x="858.4" y="1361.4736842105262"/>
      <point x="915.1157894736841" y="1360.6526315789472"/>
      <point x="980.1894736842105" y="1356.1894736842105" type="curve"/>
      <point x="1019.6421052631579" y="1538.8842105263159" type="line"/>
      <point x="813.8315789473685" y="1538.8842105263159" type="line" smooth="yes"/>
      <point x="603.5999999999999" y="1538.8842105263159"/>
      <point x="468.0421052631579" y="1455.7473684210527"/>
      <point x="427.4736842105263" y="1262.9052631578948" type="curve"/>
      <point x="404.7578947368421" y="1150.8631578947368"/>
      <point x="386.6105263157895" y="1031.957894736842"/>
      <point x="363.0736842105263" y="919.9157894736842" type="curve"/>
      <point x="334.82105263157894" y="784.5473684210526"/>
      <point x="241.45263157894738" y="729.3684210526316"/>
      <point x="147.66315789473683" y="729.3684210526316" type="curve" smooth="yes"/>
      <point x="76.8842105263158" y="729.3684210526316" type="line"/>
      <point x="43.536842105263155" y="569.5578947368421" type="line"/>
      <point x="114.3157894736842" y="569.5578947368421" type="line" smooth="yes"/>
      <point x="208.10526315789474" y="569.5578947368421"/>
      <point x="277.47368421052636" y="514.378947368421"/>
      <point x="249.22105263157897" y="379.0105263157895" type="curve"/>
      <point x="229.3263157894737" y="284.35789473684207"/>
      <point x="204.14736842105265" y="190.8842105263158"/>
      <point x="184.25263157894736" y="96.23157894736843" type="curve"/>
      <point x="144.86315789473684" y="-93.0736842105263"/>
      <point x="258.42105263157896" y="-238.77894736842106"/>
    </contour>
  </outline>
</glyph>
<glyph name="cent" format="2">
  <advance width="981.0105263157894"/>
  <unicode hex="00A2"/>
  <anchor x="462.04210526315785" y="0.0" name="bottom"/>
  <anchor x="661.0736842105263" y="994.5684210526316" name="top"/>
  <outline>
    <contour>
      <point x="311.2" y="-274.0" type="curve"/>
      <point x="492.9684210526316" y="-274.0" type="line"/>
      <point x="529.9368421052632" y="-41.642105263157895"/>
      <point x="574.7578947368421" y="168.0"/>
      <point x="620.7578947368421" y="384.82105263157894" type="curve"/>
      <point x="664.7578947368421" y="591.2842105263157" type="line"/>
      <point x="710.7578947368421" y="808.1052631578947"/>
      <point x="754.7578947368421" y="1015.2842105263157"/>
      <point x="816.9684210526316" y="1250.1052631578948" type="curve"/>
      <point x="635.1999999999999" y="1250.1052631578948" type="line"/>
      <point x="597.4105263157894" y="1016.1052631578947"/>
      <point x="553.4105263157894" y="807.2842105263157"/>
      <point x="507.41052631578947" y="591.2842105263157" type="curve"/>
      <point x="463.41052631578947" y="384.82105263157894" type="line"/>
      <point x="418.2315789473684" y="171.2842105263158"/>
      <point x="373.41052631578947" y="-39.17894736842105"/>
    </contour>
    <contour>
      <point x="564.6736842105263" y="-21.28421052631579" type="curve" smooth="yes"/>
      <point x="649.6421052631579" y="-21.28421052631579"/>
      <point x="750.3578947368421" y="8.968421052631578"/>
      <point x="804.3578947368421" y="32.0421052631579" type="curve"/>
      <point x="829.8105263157895" y="233.55789473684212" type="line"/>
      <point x="761.5578947368422" y="194.4842105263158"/>
      <point x="668.4842105263159" y="164.58947368421053"/>
      <point x="602.4421052631579" y="163.41052631578947" type="curve" smooth="yes"/>
      <point x="390.0210526315789" y="167.41052631578947"/>
      <point x="267.1157894736842" y="301.7894736842105"/>
      <point x="317.1578947368421" y="532.3578947368421" type="curve" smooth="yes"/>
      <point x="359.2" y="723.7473684210526"/>
      <point x="488.29473684210524" y="819.8736842105263"/>
      <point x="655.178947368421" y="829.8736842105263" type="curve"/>
      <point x="716.042105263158" y="829.8736842105263"/>
      <point x="819.7263157894737" y="801.978947368421"/>
      <point x="931.8315789473685" y="740.0842105263158" type="curve"/>
      <point x="988.3157894736843" y="935.7052631578948" type="line"/>
      <point x="905.8526315789474" y="970.7789473684211"/>
      <point x="774.821052631579" y="1018.6736842105263"/>
      <point x="655.5368421052631" y="1018.6736842105263" type="curve" smooth="yes"/>
      <point x="361.05263157894734" y="1018.6736842105263"/>
      <point x="155.1578947368421" y="831.1368421052631"/>
      <point x="97.51578947368421" y="555.0315789473684" type="curve" smooth="yes"/>
      <point x="26.589473684210517" y="212.96842105263158"/>
      <point x="216.4" y="-21.28421052631579"/>
    </contour>
  </outline>
</glyph>
<glyph name="sterling" format="2">
  <advance width="1194.1263157894737"/>
  <unicode hex="00A3"/>
  <outline>
    <contour>
      <point x="12.336842105263162" y="0.0" type="line"/>
      <point x="1023.4105263157895" y="0.0" type="line"/>
      <point x="1070.2526315789473" y="220.3578947368421" type="line"/>
      <point x="898.8210526315789" y="201.22105263157894"/>
      <point x="749.8526315789474" y="199.57894736842104"/>
      <point x="497.81052631578945" y="199.57894736842104" type="curve"/>
      <point x="219.05263157894737" y="199.57894736842104" type="line"/>
      <point x="252.4" y="152.54736842105262" type="line"/>
      <point x="443.43157894736845" y="293.30526315789473"/>
      <point x="478.9684210526316" y="409.34736842105264"/>
      <point x="501.6842105263158" y="514.2105263157895" type="curve" smooth="yes"/>
      <point x="584.9473684210527" y="906.9473684210526" type="line" smooth="yes"/>
      <point x="627.8105263157895" y="1107.8315789473684"/>
      <point x="726.9263157894737" y="1199.557894736842"/>
      <point x="893.3052631578947" y="1204.0210526315789" type="curve"/>
      <point x="956.1684210526316" y="1204.0210526315789"/>
      <point x="1063.0315789473684" y="1176.126315789474"/>
      <point x="1179.1368421052632" y="1114.5894736842106" type="curve"/>
      <point x="1245.0105263157895" y="1319.7052631578947" type="line"/>
      <point x="1151.9789473684211" y="1353.957894736842"/>
      <point x="1005.4526315789474" y="1400.2105263157894"/>
      <point x="872.3157894736843" y="1400.2105263157894" type="curve" smooth="yes"/>
      <point x="600.5894736842106" y="1400.2105263157894"/>
      <point x="417.4526315789473" y="1245.6842105263158"/>
      <point x="353.81052631578945" y="939.0105263157895" type="curve" smooth="yes"/>
      <point x="322.7368421052631" y="795.8947368421053"/>
      <point x="290.58947368421053" y="604.3157894736842"/>
      <point x="258.2315789473684" y="449.7052631578947" type="curve"/>
      <point x="239.8736842105263" y="366.4842105263158"/>
      <point x="205.62105263157898" y="251.0105263157895"/>
      <point x="39.93684210526316" y="130.3578947368421" type="curve"/>
    </contour>
    <contour>
      <point x="146.69473684210527" y="657.6421052631579" type="line"/>
      <point x="278.65263157894736" y="665.7473684210527"/>
      <point x="402.61052631578946" y="666.5684210526316"/>
      <point x="508.92631578947373" y="666.5684210526316" type="curve"/>
      <point x="580.421052631579" y="666.5684210526316" type="line"/>
      <point x="686.7368421052631" y="666.5684210526316"/>
      <point x="809.0526315789474" y="665.7473684210527"/>
      <point x="937.0105263157894" y="657.6421052631579" type="curve"/>
      <point x="974.0" y="831.6631578947369" type="line"/>
      <point x="843.221052631579" y="823.5578947368421"/>
      <point x="719.2631578947369" y="822.7368421052631"/>
      <point x="612.9473684210527" y="822.7368421052631" type="curve"/>
      <point x="541.4526315789475" y="822.7368421052631" type="line"/>
      <point x="435.13684210526316" y="822.7368421052631"/>
      <point x="312.82105263157894" y="823.5578947368421"/>
      <point x="183.68421052631578" y="831.6631578947369" type="curve"/>
    </contour>
  </outline>
</glyph>
<glyph name="currency" format="2">
  <advance width="1268.9684210526316"/>
  <unicode hex="00A4"/>
  <outline>
    <contour>
      <point x="632.378947368421" y="214.8421052631579" type="curve" smooth="yes"/>
      <point x="874.0421052631579" y="214.8421052631579"/>
      <point x="1035.7473684210527" y="329.7684210526316"/>
      <point x="1087.1368421052632" y="582.0421052631579" type="curve" smooth="yes"/>
      <point x="1139.705263157895" y="839.4947368421052"/>
      <point x="962.0" y="1064.6947368421052"/>
      <point x="692.4842105263158" y="1064.6947368421052" type="curve" smooth="yes"/>
      <point x="459.07368421052627" y="1064.6947368421052"/>
      <point x="287.57894736842104" y="950.9473684210526"/>
      <point x="236.18947368421053" y="698.6736842105263" type="curve" smooth="yes"/>
      <point x="183.62105263157895" y="440.0421052631579"/>
      <point x="358.1473684210526" y="214.8421052631579"/>
    </contour>
    <contour>
      <point x="218.50526315789477" y="78.21052631578947" type="line"/>
      <point x="307.89473684210526" y="172.5263157894737"/>
      <point x="396.9263157894737" y="256.37894736842105"/>
      <point x="474.7789473684211" y="329.41052631578947" type="curve"/>
      <point x="341.17894736842106" y="471.93684210526317" type="line"/>
      <point x="264.14736842105265" y="399.7263157894737"/>
      <point x="172.29473684210527" y="317.51578947368415"/>
      <point x="73.15789473684211" y="234.94736842105263" type="curve"/>
    </contour>
    <contour>
      <point x="646.2315789473683" y="398.7157894736842" type="curve"/>
      <point x="497.3894736842105" y="406.0"/>
      <point x="399.7684210526316" y="526.2315789473683"/>
      <point x="428.7368421052632" y="672.6105263157895" type="curve" smooth="yes"/>
      <point x="454.8842105263158" y="808.0631578947368"/>
      <point x="554.4" y="876.8210526315789"/>
      <point x="681.9157894736842" y="883.2842105263157" type="curve"/>
      <point x="828.8631578947369" y="875.1789473684211"/>
      <point x="925.2" y="753.3052631578947"/>
      <point x="897.0526315789474" y="611.3894736842105" type="curve" smooth="yes"/>
      <point x="868.9052631578948" y="469.0105263157895"/>
      <point x="780.0" y="402.7157894736842"/>
    </contour>
    <contour>
      <point x="389.4315789473684" y="797.8105263157895" type="curve"/>
      <point x="528.3157894736842" y="927.3052631578947" type="line"/>
      <point x="455.2842105263158" y="1006.3368421052631"/>
      <point x="373.07368421052627" y="1096.1894736842105"/>
      <point x="290.5052631578948" y="1196.1473684210528" type="curve"/>
      <point x="138.23157894736843" y="1053.2631578947369" type="line"/>
      <point x="232.18947368421055" y="965.0526315789474"/>
      <point x="317.22105263157897" y="874.8421052631579"/>
    </contour>
    <contour>
      <point x="1040.8210526315788" y="86.21052631578948" type="curve"/>
      <point x="1193.0947368421052" y="229.09473684210528" type="line"/>
      <point x="1099.1368421052632" y="317.30526315789473"/>
      <point x="1014.1052631578948" y="407.5157894736842"/>
      <point x="941.8947368421052" y="484.5473684210526" type="curve"/>
      <point x="803.0105263157895" y="355.0526315789474" type="line"/>
      <point x="876.042105263158" y="276.0210526315789"/>
      <point x="958.2526315789474" y="186.1684210526316"/>
    </contour>
    <contour>
      <point x="990.1473684210526" y="810.4210526315788" type="line"/>
      <point x="1067.178947368421" y="882.6315789473683"/>
      <point x="1159.0315789473684" y="964.8421052631579"/>
      <point x="1258.1684210526314" y="1047.4105263157896" type="curve"/>
      <point x="1112.821052631579" y="1204.1473684210528" type="line"/>
      <point x="1023.4315789473684" y="1109.8315789473684"/>
      <point x="934.4000000000001" y="1025.978947368421"/>
      <point x="856.5473684210527" y="952.9473684210527" type="curve"/>
    </contour>
  </outline>
</glyph>
<glyph name="yen" format="2">
  <advance width="1271.6842105263158"/>
  <unicode hex="00A5"/>
  <outline>
    <contour>
      <point x="541.5578947368421" y="520.1684210526316" type="line"/>
      <point x="744.0631578947368" y="520.1684210526316" type="line"/>
      <point x="1142.2105263157896" y="1035.1157894736841" type="line"/>
      <point x="1233.7473684210527" y="1153.3263157894735"/>
      <point x="1322.4631578947367" y="1267.8947368421052"/>
      <point x="1419.957894736842" y="1372.9263157894736" type="curve"/>
      <point x="1112.0210526315786" y="1372.9263157894736" type="line"/>
      <point x="1005.4947368421052" y="1201.663157894737"/>
      <point x="949.6631578947369" y="1122.8"/>
      <point x="851.4315789473684" y="986.6105263157895" type="curve"/>
      <point x="689.8315789473684" y="762.021052631579" type="line"/>
      <point x="671.2631578947368" y="762.021052631579" type="line"/>
      <point x="603.4947368421052" y="976.9684210526316" type="line"/>
      <point x="560.9473684210526" y="1111.0526315789473"/>
      <point x="538.1894736842105" y="1200.9473684210525"/>
      <point x="498.8842105263158" y="1372.9263157894736" type="curve"/>
      <point x="219.7263157894737" y="1372.9263157894736" type="line"/>
      <point x="299.4736842105263" y="1199.7894736842106"/>
      <point x="323.01052631578943" y="1134.0421052631577"/>
      <point x="358.90526315789475" y="1032.6526315789472" type="curve"/>
    </contour>
    <contour>
      <point x="400.4210526315789" y="0.0" type="curve"/>
      <point x="664.5473684210527" y="0.0" type="line"/>
      <point x="679.4105263157895" y="150.25263157894736"/>
      <point x="705.7684210526317" y="279.3263157894737"/>
      <point x="741.7684210526317" y="446.9684210526315" type="curve"/>
      <point x="796.6526315789474" y="706.4631578947368" type="line"/>
      <point x="567.978947368421" y="706.4631578947368" type="line"/>
      <point x="513.0947368421052" y="447.7894736842105" type="line"/>
      <point x="477.0947368421052" y="280.14736842105265"/>
      <point x="449.09473684210525" y="150.25263157894736"/>
    </contour>
    <contour>
      <point x="103.97894736842105" y="256.9894736842105" type="line"/>
      <point x="234.7578947368421" y="265.09473684210525"/>
      <point x="357.8947368421052" y="265.9157894736842"/>
      <point x="464.2105263157894" y="265.9157894736842" type="curve"/>
      <point x="712.1263157894737" y="265.9157894736842" type="line"/>
      <point x="818.4421052631579" y="265.9157894736842"/>
      <point x="941.578947368421" y="265.09473684210525"/>
      <point x="1070.715789473684" y="256.9894736842105" type="curve"/>
      <point x="1102.421052631579" y="410.4842105263158" type="line"/>
      <point x="971.6421052631579" y="406.4842105263158"/>
      <point x="848.5052631578948" y="405.66315789473686"/>
      <point x="742.1894736842105" y="405.66315789473686" type="curve"/>
      <point x="494.2736842105263" y="405.66315789473686" type="line"/>
      <point x="387.9578947368421" y="405.66315789473686"/>
      <point x="264.82105263157894" y="406.4842105263158"/>
      <point x="135.68421052631578" y="410.4842105263158" type="curve"/>
    </contour>
    <contour>
      <point x="167.8315789473684" y="561.3263157894737" type="line"/>
      <point x="298.9684210526315" y="565.3263157894737"/>
      <point x="422.1052631578947" y="566.1473684210526"/>
      <point x="528.421052631579" y="566.1473684210526" type="curve"/>
      <point x="776.3368421052631" y="566.1473684210526" type="line"/>
      <point x="882.6526315789474" y="566.1473684210526"/>
      <point x="1005.7894736842105" y="565.3263157894737"/>
      <point x="1134.5684210526317" y="561.3263157894737" type="curve"/>
      <point x="1167.4526315789474" y="714.8210526315789" type="line"/>
      <point x="1035.8526315789472" y="706.7157894736841"/>
      <point x="912.7157894736843" y="705.8947368421052"/>
      <point x="806.4" y="705.8947368421052" type="curve"/>
      <point x="558.4842105263158" y="705.8947368421052" type="line"/>
      <point x="452.1684210526315" y="705.8947368421052"/>
      <point x="329.03157894736836" y="706.7157894736841"/>
      <point x="200.71578947368423" y="714.8210526315789" type="curve"/>
    </contour>
  </outline>
</glyph>
<glyph name="brokenbar" format="2">
  <advance width="542.6947368421053"/>
  <unicode hex="00A6"/>
  <outline>
    <contour>
      <point x="224.37894736842105" y="723.7894736842105" type="line"/>
      <point x="415.7473684210526" y="723.7894736842105" type="line"/>
      <point x="454.56842105263155" y="905.7894736842105" type="line"/>
      <point x="500.56842105263155" y="1121.7894736842106"/>
      <point x="545.3894736842105" y="1329.7894736842106"/>
      <point x="606.7789473684211" y="1563.7894736842106" type="curve"/>
      <point x="390.9894736842105" y="1563.7894736842106" type="line"/>
      <point x="352.37894736842105" y="1329.7894736842106"/>
      <point x="309.2" y="1121.7894736842106"/>
      <point x="263.2" y="905.7894736842105" type="curve"/>
    </contour>
    <contour>
      <point x="-9.01052631578946" y="-316.2105263157895" type="curve"/>
      <point x="206.77894736842106" y="-316.2105263157895" type="line"/>
      <point x="245.38947368421051" y="-82.21052631578948"/>
      <point x="288.56842105263155" y="125.78947368421052"/>
      <point x="334.56842105263155" y="341.7894736842105" type="curve"/>
      <point x="372.56842105263155" y="523.7894736842105" type="line"/>
      <point x="181.20000000000002" y="523.7894736842105" type="line"/>
      <point x="143.20000000000002" y="341.7894736842105" type="line"/>
      <point x="97.20000000000002" y="125.78947368421052"/>
      <point x="51.55789473684211" y="-82.21052631578948"/>
    </contour>
  </outline>
</glyph>
<glyph name="ordfeminine" format="2">
  <advance width="797.5172413793103"/>
  <unicode hex="00AA"/>
  <outline>
    <contour>
      <point x="355.51724137931035" y="662.8275862068965" type="curve" smooth="yes"/>
      <point x="447.7241379310345" y="662.8275862068965"/>
      <point x="537.3793103448277" y="718.6206896551724"/>
      <point x="598.2068965517241" y="797.0344827586207" type="curve"/>
      <point x="611.7931034482758" y="797.0344827586207" type="line"/>
      <point x="617.9999999999999" y="678.6206896551724" type="line"/>
      <point x="780.4137931034484" y="678.6206896551724" type="line"/>
      <point x="768.8275862068966" y="769.5862068965517"/>
      <point x="768.2068965517242" y="844.1379310344827"/>
      <point x="783.7931034482759" y="917.5172413793103" type="curve"/>
      <point x="800.6206896551724" y="997.2413793103448" type="line" smooth="yes"/>
      <point x="812.8275862068966" y="1054.4827586206898"/>
      <point x="830.6206896551724" y="1114.4827586206895"/>
      <point x="838.4137931034483" y="1158.6206896551723" type="curve" smooth="yes"/>
      <point x="876.2068965517242" y="1337.5862068965516"/>
      <point x="780.6896551724138" y="1453.5862068965516"/>
      <point x="580.9655172413793" y="1453.5862068965516" type="curve" smooth="yes"/>
      <point x="500.0" y="1453.5862068965516"/>
      <point x="377.448275862069" y="1421.5862068965516"/>
      <point x="300.0689655172414" y="1405.1724137931033" type="curve"/>
      <point x="275.7241379310345" y="1241.9310344827586" type="line"/>
      <point x="388.7586206896552" y="1285.7241379310344"/>
      <point x="498.68965517241384" y="1311.103448275862"/>
      <point x="535.3103448275862" y="1311.103448275862" type="curve" smooth="yes"/>
      <point x="649.5862068965517" y="1311.103448275862"/>
      <point x="707.2413793103448" y="1259.655172413793"/>
      <point x="685.1724137931035" y="1171.3793103448277" type="curve"/>
      <point x="438.2758620689655" y="1128.1379310344828" type="line" smooth="yes"/>
      <point x="301.7241379310344" y="1104.1379310344828"/>
      <point x="192.06896551724137" y="1049.9999999999998"/>
      <point x="160.06896551724137" y="904.4137931034483" type="curve" smooth="yes"/>
      <point x="128.06896551724137" y="764.6206896551726"/>
      <point x="214.48275862068962" y="662.8275862068965"/>
    </contour>
    <contour>
      <point x="433.6551724137931" y="798.1379310344828" type="curve" smooth="yes"/>
      <point x="357.7241379310345" y="798.1379310344828"/>
      <point x="301.6551724137931" y="837.5862068965517"/>
      <point x="318.6896551724138" y="918.7586206896551" type="curve" smooth="yes"/>
      <point x="335.3103448275862" y="994.0689655172414"/>
      <point x="406.4137931034483" y="1012.4827586206897"/>
      <point x="482.1379310344828" y="1029.103448275862" type="curve" smooth="yes"/>
      <point x="604.7586206896552" y="1056.1379310344828"/>
      <point x="633.3793103448276" y="1066.3448275862067"/>
      <point x="664.4137931034483" y="1082.344827586207" type="curve"/>
      <point x="629.1724137931034" y="920.3448275862067" type="line"/>
      <point x="562.0689655172413" y="825.3793103448277"/>
      <point x="488.13793103448273" y="798.1379310344828"/>
    </contour>
  </outline>
</glyph>
<glyph name="logicalnot" format="2">
  <advance width="1144.6315789473683"/>
  <unicode hex="00AC"/>
  <outline>
    <contour>
      <point x="741.9368421052632" y="112.7578947368421" type="curve"/>
      <point x="956.0842105263159" y="112.7578947368421" type="line"/>
      <point x="975.2631578947369" y="240.3578947368421"/>
      <point x="1000.9052631578948" y="365.0315789473684"/>
      <point x="1023.3684210526316" y="470.5263157894737" type="curve"/>
      <point x="1073.6842105263158" y="706.1052631578948" type="line"/>
      <point x="941.7263157894737" y="698.0"/>
      <point x="818.5894736842106" y="697.1789473684211"/>
      <point x="712.2736842105263" y="697.1789473684211" type="curve"/>
      <point x="517.1999999999999" y="697.1789473684211" type="line"/>
      <point x="410.8842105263158" y="697.1789473684211"/>
      <point x="287.74736842105267" y="698.0"/>
      <point x="159.78947368421052" y="706.1052631578948" type="curve"/>
      <point x="115.41052631578945" y="496.8842105263158" type="line"/>
      <point x="247.0105263157895" y="504.98947368421057"/>
      <point x="370.14736842105265" y="505.8105263157895"/>
      <point x="476.4631578947368" y="505.8105263157895" type="curve"/>
      <point x="671.5368421052632" y="505.8105263157895" type="line"/>
      <point x="766.9263157894737" y="505.8105263157895"/>
      <point x="878.3157894736843" y="504.98947368421057"/>
      <point x="992.8842105263159" y="496.8842105263158" type="curve"/>
      <point x="863.1789473684211" y="641.0526315789474" type="line"/>
      <point x="827.0736842105263" y="471.34736842105264" type="line"/>
      <point x="804.6105263157895" y="365.85263157894735"/>
      <point x="777.3263157894737" y="240.3578947368421"/>
    </contour>
  </outline>
</glyph>
<glyph name="plusminus" format="2">
  <advance width="1144.6315789473683"/>
  <unicode hex="00B1"/>
  <outline>
    <contour>
      <point x="7.726315789473681" y="-8.926315789473684" type="line"/>
      <point x="138.50526315789475" y="-0.8210526315789474"/>
      <point x="262.46315789473687" y="0.0"/>
      <point x="368.77894736842103" y="0.0" type="curve"/>
      <point x="563.8526315789474" y="0.0" type="line"/>
      <point x="670.1684210526316" y="0.0"/>
      <point x="792.4842105263158" y="-0.8210526315789474"/>
      <point x="921.621052631579" y="-8.926315789473684" type="curve"/>
      <point x="966.0" y="200.29473684210527" type="line"/>
      <point x="834.4" y="192.18947368421053"/>
      <point x="711.2631578947369" y="191.3684210526316"/>
      <point x="604.9473684210526" y="191.3684210526316" type="curve"/>
      <point x="409.8736842105263" y="191.3684210526316" type="line"/>
      <point x="303.5578947368421" y="191.3684210526316"/>
      <point x="180.42105263157896" y="192.18947368421053"/>
      <point x="52.10526315789474" y="200.29473684210527" type="curve"/>
    </contour>
    <contour>
      <point x="161.01052631578946" y="714.3157894736842" type="line"/>
      <point x="293.7894736842106" y="722.421052631579"/>
      <point x="416.92631578947373" y="723.2421052631579"/>
      <point x="523.2421052631579" y="723.2421052631579" type="curve"/>
      <point x="718.3157894736842" y="723.2421052631579" type="line"/>
      <point x="824.6315789473684" y="723.2421052631579"/>
      <point x="947.7684210526315" y="722.421052631579"/>
      <point x="1074.9052631578948" y="714.3157894736842" type="curve"/>
      <point x="1119.284210526316" y="923.5368421052632" type="line"/>
      <point x="988.5052631578948" y="915.4315789473684"/>
      <point x="865.3684210526317" y="914.6105263157895"/>
      <point x="759.0526315789474" y="914.6105263157895" type="curve"/>
      <point x="563.9789473684211" y="914.6105263157895" type="line"/>
      <point x="457.66315789473686" y="914.6105263157895"/>
      <point x="334.5263157894737" y="915.4315789473684"/>
      <point x="205.3894736842105" y="923.5368421052632" type="curve"/>
    </contour>
    <contour>
      <point x="431.2" y="346.61052631578946" type="curve"/>
      <point x="647.3473684210527" y="346.61052631578946" type="line"/>
      <point x="667.7052631578947" y="475.38947368421054"/>
      <point x="692.1684210526315" y="599.7052631578947"/>
      <point x="714.6315789473684" y="706.021052631579" type="curve"/>
      <point x="763.1368421052631" y="931.8315789473684" type="line"/>
      <point x="785.6" y="1038.1473684210525"/>
      <point x="812.8842105263158" y="1161.2842105263157"/>
      <point x="848.2736842105263" y="1291.242105263158" type="curve"/>
      <point x="632.1263157894737" y="1291.242105263158" type="line"/>
      <point x="611.7684210526317" y="1162.4631578947367"/>
      <point x="587.3052631578948" y="1038.1473684210525"/>
      <point x="564.8421052631579" y="931.8315789473684" type="curve"/>
      <point x="516.3368421052631" y="706.021052631579" type="line"/>
      <point x="493.87368421052633" y="599.7052631578947"/>
      <point x="466.58947368421053" y="475.38947368421054"/>
    </contour>
  </outline>
</glyph>
<glyph name="micro" format="2">
  <advance width="1132.4842105263158"/>
  <unicode hex="00B5"/>
  <outline>
    <contour>
      <point x="-75.11578947368422" y="-391.2842105263158" type="curve"/>
      <point x="184.08421052631576" y="-384.0" type="line"/>
      <point x="199.7684210526316" y="-238.92631578947368"/>
      <point x="219.20000000000002" y="-113.03157894736842"/>
      <point x="252.73684210526315" y="40.757894736842104" type="curve" smooth="yes"/>
      <point x="267.34736842105264" y="109.91578947368419" type="line"/>
      <point x="169.2421052631579" y="109.91578947368419" type="line"/>
      <point x="198.52631578947367" y="24.652631578947368"/>
      <point x="270.56842105263155" y="-23.74736842105263"/>
      <point x="384.90526315789475" y="-23.74736842105263" type="curve" smooth="yes"/>
      <point x="492.48421052631574" y="-23.74736842105263"/>
      <point x="628.2105263157895" y="73.72631578947369"/>
      <point x="710.4631578947369" y="167.22105263157894" type="curve"/>
      <point x="730.3157894736843" y="167.22105263157894" type="line"/>
      <point x="738.5684210526316" y="0.0" type="line"/>
      <point x="949.5368421052632" y="0.0" type="line"/>
      <point x="933.4315789473684" y="119.13684210526316"/>
      <point x="936.4631578947369" y="226.2736842105263"/>
      <point x="955.7473684210527" y="319.05263157894734" type="curve"/>
      <point x="1003.5368421052632" y="545.2842105263157" type="line"/>
      <point x="1040.8210526315788" y="722.0631578947368"/>
      <point x="1079.747368421053" y="850.3157894736842"/>
      <point x="1106.0" y="994.5684210526316" type="curve"/>
      <point x="865.2210526315789" y="994.5684210526316" type="line"/>
      <point x="847.4315789473684" y="849.4947368421052"/>
      <point x="824.3578947368421" y="721.2421052631579"/>
      <point x="790.821052631579" y="567.4526315789474" type="curve"/>
      <point x="742.5684210526316" y="340.0842105263158" type="line"/>
      <point x="659.0526315789473" y="251.85263157894738"/>
      <point x="545.1368421052632" y="174.0842105263158"/>
      <point x="469.3684210526315" y="174.0842105263158" type="curve" smooth="yes"/>
      <point x="335.30526315789473" y="174.0842105263158"/>
      <point x="301.36842105263156" y="263.91578947368424"/>
      <point x="336.33684210526314" y="427.2210526315789" type="curve"/>
      <point x="364.9473684210526" y="567.4526315789474" type="line"/>
      <point x="397.30526315789473" y="720.421052631579"/>
      <point x="439.7684210526316" y="856.7789473684211"/>
      <point x="466.12631578947367" y="1001.8526315789474" type="curve"/>
      <point x="218.42105263157893" y="994.5684210526316" type="line"/>
      <point x="200.63157894736838" y="849.4947368421052"/>
      <point x="180.84210526315792" y="722.8842105263158"/>
      <point x="142.37894736842105" y="543.6421052631579" type="curve"/>
      <point x="37.557894736842094" y="51.43157894736842" type="line"/>
      <point x="2.7368421052631535" y="-113.03157894736842"/>
      <point x="-32.54736842105263" y="-246.21052631578948"/>
    </contour>
  </outline>
</glyph>
<glyph name="ordmasculine" format="2">
  <advance width="913.8526315789474"/>
  <unicode hex="00BA"/>
  <outline>
    <contour>
      <point x="539.3894736842105" y="660.9684210526316" type="curve" smooth="yes"/>
      <point x="753.9157894736842" y="660.9684210526316"/>
      <point x="909.0947368421052" y="802.5052631578948"/>
      <point x="954.7368421052631" y="1017.0736842105264" type="curve" smooth="yes"/>
      <point x="1003.5578947368421" y="1244.7157894736843"/>
      <point x="878.9894736842106" y="1453.2842105263157"/>
      <point x="613.1789473684212" y="1453.2842105263157" type="curve" smooth="yes"/>
      <point x="408.4421052631579" y="1453.2842105263157"/>
      <point x="244.65263157894736" y="1324.0"/>
      <point x="197.8315789473684" y="1097.5368421052633" type="curve" smooth="yes"/>
      <point x="151.01052631578946" y="871.4315789473684"/>
      <point x="268.7578947368421" y="660.9684210526316"/>
    </contour>
    <contour>
      <point x="545.0315789473683" y="802.2526315789473" type="curve"/>
      <point x="395.0736842105264" y="807.8947368421052"/>
      <point x="335.2421052631579" y="932.1263157894737"/>
      <point x="365.38947368421054" y="1079.3263157894737" type="curve" smooth="yes"/>
      <point x="393.17894736842106" y="1217.9157894736843"/>
      <point x="486.33684210526314" y="1307.1789473684212"/>
      <point x="610.7157894736841" y="1312.0" type="curve"/>
      <point x="750.5263157894735" y="1305.5368421052633"/>
      <point x="818.8631578947369" y="1191.4526315789471"/>
      <point x="786.3578947368421" y="1034.1052631578948" type="curve" smooth="yes"/>
      <point x="758.5684210526316" y="899.8736842105263"/>
      <point x="669.4105263157894" y="807.8947368421052"/>
    </contour>
  </outline>
</glyph>
<glyph name="AE" format="2">
  <advance width="1969.3793103448277"/>
  <unicode hex="00C6"/>
  <anchor x="958.689655172414" y="0.0" name="bottom"/>
  <anchor x="1258.689655172414" y="1426.0" name="top"/>
  <outline>
    <contour>
      <point x="-90.13793103448276" y="0.0" type="curve"/>
      <point x="210.68965517241378" y="0.0" type="line"/>
      <point x="311.0344827586207" y="160.0689655172414"/>
      <point x="431.37931034482756" y="342.3448275862069"/>
      <point x="542.2758620689656" y="500.0" type="curve"/>
      <point x="1059.1724137931035" y="1231.3103448275863" type="line"/>
      <point x="1103.5172413793105" y="1231.3103448275863" type="line"/>
      <point x="1263.3103448275863" y="1231.3103448275863" type="line"/>
      <point x="1325.7241379310346" y="1426.0" type="line"/>
      <point x="927.7241379310344" y="1426.0" type="line"/>
      <point x="837.655172413793" y="1278.4137931034486"/>
      <point x="740.2068965517242" y="1136.6206896551726"/>
      <point x="630.1379310344828" y="981.7931034482759" type="curve"/>
      <point x="273.58620689655174" y="482.2068965517241" type="line"/>
      <point x="166.13793103448276" y="330.2068965517241"/>
      <point x="32.89655172413792" y="152.0"/>
    </contour>
    <contour>
      <point x="363.5862068965517" y="334.2758620689655" type="line"/>
      <point x="1016.2068965517242" y="334.2758620689655" type="line"/>
      <point x="1035.3793103448277" y="518.0" type="line"/>
      <point x="424.0" y="518.0" type="line"/>
    </contour>
    <contour>
      <point x="824.0689655172414" y="0.0" type="curve"/>
      <point x="1095.3103448275863" y="0.0" type="line"/>
      <point x="1104.4827586206898" y="36.689655172413794" type="line"/>
      <point x="1121.7241379310346" y="193.31034482758622"/>
      <point x="1148.137931034483" y="331.7241379310345"/>
      <point x="1184.137931034483" y="501.7241379310345" type="curve"/>
      <point x="1271.3793103448277" y="913.7241379310345" type="line"/>
      <point x="1309.1724137931037" y="1094.6896551724137"/>
      <point x="1342.9655172413793" y="1231.103448275862"/>
      <point x="1388.1379310344828" y="1389.5172413793102" type="curve"/>
      <point x="1395.3103448275863" y="1426.0" type="line"/>
      <point x="1124.0689655172414" y="1426.0" type="line"/>
      <point x="1103.0344827586207" y="1267.5862068965516"/>
      <point x="1082.2068965517242" y="1132.9655172413793"/>
      <point x="1042.4137931034484" y="945.7931034482758" type="curve"/>
      <point x="942.4137931034484" y="472.0" type="line"/>
      <point x="902.8275862068966" y="285.86206896551727"/>
      <point x="869.2413793103449" y="156.6206896551724"/>
    </contour>
    <contour>
      <point x="1048.6206896551726" y="0.0" type="line"/>
      <point x="1755.5172413793105" y="0.0" type="line"/>
      <point x="1803.5862068965519" y="222.41379310344828" type="line"/>
      <point x="1660.3448275862072" y="205.6551724137931"/>
      <point x="1512.4827586206898" y="201.86206896551724"/>
      <point x="1344.4137931034484" y="201.86206896551724" type="curve"/>
      <point x="1091.3103448275865" y="201.86206896551724" type="line"/>
    </contour>
    <contour>
      <point x="1153.3793103448277" y="624.0689655172414" type="line"/>
      <point x="1423.448275862069" y="624.0689655172414" type="line"/>
      <point x="1598.896551724138" y="624.0689655172414"/>
      <point x="1717.7241379310344" y="622.2758620689656"/>
      <point x="1844.9655172413793" y="614.8965517241379" type="curve"/>
      <point x="1891.2413793103449" y="831.9310344827586" type="line"/>
      <point x="1766.6206896551726" y="820.5517241379309"/>
      <point x="1645.7931034482758" y="818.7586206896551"/>
      <point x="1466.344827586207" y="818.7586206896551" type="curve"/>
      <point x="1194.2758620689656" y="818.7586206896551" type="line"/>
    </contour>
    <contour>
      <point x="1291.5862068965519" y="1224.1379310344828" type="line"/>
      <point x="1540.2758620689656" y="1224.1379310344828" type="line"/>
      <point x="1740.5517241379312" y="1224.1379310344828"/>
      <point x="1878.2068965517244" y="1218.5517241379312"/>
      <point x="2005.8620689655174" y="1203.5862068965519" type="curve"/>
      <point x="2052.137931034483" y="1426.0" type="line"/>
      <point x="1334.2758620689656" y="1426.0" type="line"/>
    </contour>
  </outline>
</glyph>
<glyph name="multiply" format="2">
  <advance width="1144.1263157894737"/>
  <unicode hex="00D7"/>
  <outline>
    <contour>
      <point x="832.2947368421053" y="141.66315789473683" type="curve"/>
      <point x="992.2105263157895" y="280.4421052631579" type="line"/>
      <point x="913.8947368421052" y="365.8315789473684"/>
      <point x="840.4" y="453.3263157894737"/>
      <point x="777.8315789473684" y="531.0736842105264" type="curve"/>
      <point x="561.642105263158" y="800.9473684210527" type="line"/>
      <point x="501.7894736842105" y="875.6210526315789"/>
      <point x="429.57894736842104" y="969.0105263157895"/>
      <point x="362.65263157894736" y="1065.3263157894735" type="curve"/>
      <point x="200.73684210526312" y="924.9052631578948" type="line"/>
      <point x="281.0526315789474" y="837.8736842105263"/>
      <point x="352.90526315789475" y="753.6631578947369"/>
      <point x="415.47368421052636" y="675.9157894736842" type="curve"/>
      <point x="632.4842105263157" y="404.4" type="line"/>
      <point x="694.2315789473685" y="326.6526315789473"/>
      <point x="762.9052631578948" y="237.97894736842105"/>
    </contour>
    <contour>
      <point x="182.4421052631579" y="132.73684210526315" type="line"/>
      <point x="291.4736842105263" y="231.41052631578947"/>
      <point x="393.07368421052627" y="315.72631578947363"/>
      <point x="484.9263157894737" y="391.1157894736842" type="curve"/>
      <point x="820.1263157894737" y="663.2421052631579" type="line"/>
      <point x="910.8" y="736.6315789473684"/>
      <point x="1023.2210526315789" y="820.8421052631579"/>
      <point x="1136.3578947368421" y="904.5894736842106" type="curve"/>
      <point x="1004.9684210526317" y="1071.0736842105262" type="line"/>
      <point x="898.2947368421053" y="973.9368421052632"/>
      <point x="792.8000000000001" y="884.9052631578946"/>
      <point x="703.3052631578947" y="811.8736842105263" type="curve"/>
      <point x="374.0" y="544.4631578947368" type="line"/>
      <point x="279.7894736842105" y="467.89473684210526"/>
      <point x="169.83157894736843" y="383.3263157894737"/>
      <point x="53.05263157894737" y="298.4" type="curve"/>
    </contour>
  </outline>
</glyph>
